STARTFONT 2.1
COMMENT
COMMENT Converted from OpenType font "Vollda-Bold.otf" by "otf2bdf 3.0".
COMMENT
FONT -FreeType-Vollda-Bold-R-Normal--10-70-100-100-P-58-ISO10646-1
SIZE 7 100 100
FONTBOUNDINGBOX 31 14 -2 -3
STARTPROPERTIES 19
FOUNDRY "FreeType"
FAMILY_NAME "Vollda"
WEIGHT_NAME "Bold"
SLANT "R"
SETWIDTH_NAME "Normal"
ADD_STYLE_NAME ""
PIXEL_SIZE 10
POINT_SIZE 70
RESOLUTION_X 100
RESOLUTION_Y 100
SPACING "P"
AVERAGE_WIDTH 58
CHARSET_REGISTRY "ISO10646"
CHARSET_ENCODING "1"
FONT_ASCENT 9
FONT_DESCENT 4
COPYRIGHT "Copyright 2023 Vollda (https://github.com/alexburba/vollda)"
_OTF_FONTFILE "Vollda-Bold.otf"
_OTF_PSNAME "Vollda-Bold"
ENDPROPERTIES
CHARS 1220
STARTCHAR 0000
ENCODING 0
SWIDTH 0 0
DWIDTH 0 0
BBX 0 0 0 0
BITMAP
ENDCHAR
STARTCHAR 000D
ENCODING 13
SWIDTH 102 0
DWIDTH 1 0
BBX 0 0 0 0
BITMAP
ENDCHAR
STARTCHAR 0020
ENCODING 32
SWIDTH 102 0
DWIDTH 1 0
BBX 0 0 0 0
BITMAP
ENDCHAR
STARTCHAR 0021
ENCODING 33
SWIDTH 411 0
DWIDTH 4 0
BBX 2 7 1 0
BITMAP
C0
C0
C0
80
00
00
C0
ENDCHAR
STARTCHAR 0022
ENCODING 34
SWIDTH 308 0
DWIDTH 3 0
BBX 2 3 1 4
BITMAP
C0
C0
40
ENDCHAR
STARTCHAR 0023
ENCODING 35
SWIDTH 514 0
DWIDTH 5 0
BBX 6 7 0 0
BITMAP
28
28
7C
50
F8
50
50
ENDCHAR
STARTCHAR 0024
ENCODING 36
SWIDTH 514 0
DWIDTH 5 0
BBX 5 8 0 -1
BITMAP
30
68
60
70
38
68
F8
20
ENDCHAR
STARTCHAR 0025
ENCODING 37
SWIDTH 822 0
DWIDTH 8 0
BBX 7 7 1 0
BITMAP
44
A8
A8
50
2C
52
8C
ENDCHAR
STARTCHAR 0026
ENCODING 38
SWIDTH 720 0
DWIDTH 7 0
BBX 6 7 1 0
BITMAP
70
D0
40
E8
B8
98
EC
ENDCHAR
STARTCHAR 0027
ENCODING 39
SWIDTH 205 0
DWIDTH 2 0
BBX 1 2 1 4
BITMAP
80
80
ENDCHAR
STARTCHAR 0028
ENCODING 40
SWIDTH 308 0
DWIDTH 3 0
BBX 3 10 0 -3
BITMAP
40
40
40
C0
C0
C0
40
40
40
20
ENDCHAR
STARTCHAR 0029
ENCODING 41
SWIDTH 308 0
DWIDTH 3 0
BBX 3 10 0 -3
BITMAP
80
40
40
20
20
20
20
40
40
80
ENDCHAR
STARTCHAR 002A
ENCODING 42
SWIDTH 411 0
DWIDTH 4 0
BBX 3 3 1 4
BITMAP
C0
60
C0
ENDCHAR
STARTCHAR 002B
ENCODING 43
SWIDTH 514 0
DWIDTH 5 0
BBX 5 5 0 0
BITMAP
20
20
F8
20
20
ENDCHAR
STARTCHAR 002C
ENCODING 44
SWIDTH 205 0
DWIDTH 2 0
BBX 1 2 1 -2
BITMAP
80
80
ENDCHAR
STARTCHAR 002D
ENCODING 45
SWIDTH 411 0
DWIDTH 4 0
BBX 2 1 1 2
BITMAP
C0
ENDCHAR
STARTCHAR 002E
ENCODING 46
SWIDTH 205 0
DWIDTH 2 0
BBX 1 2 1 0
BITMAP
80
80
ENDCHAR
STARTCHAR 002F
ENCODING 47
SWIDTH 308 0
DWIDTH 3 0
BBX 3 6 0 1
BITMAP
20
20
40
40
40
80
ENDCHAR
STARTCHAR 0030
ENCODING 48
SWIDTH 514 0
DWIDTH 5 0
BBX 6 5 0 0
BITMAP
78
48
CC
48
78
ENDCHAR
STARTCHAR 0031
ENCODING 49
SWIDTH 308 0
DWIDTH 3 0
BBX 2 5 1 0
BITMAP
C0
C0
C0
C0
C0
ENDCHAR
STARTCHAR 0032
ENCODING 50
SWIDTH 514 0
DWIDTH 5 0
BBX 5 5 0 0
BITMAP
70
50
30
48
F8
ENDCHAR
STARTCHAR 0033
ENCODING 51
SWIDTH 411 0
DWIDTH 4 0
BBX 5 7 0 -2
BITMAP
70
90
20
30
18
10
60
ENDCHAR
STARTCHAR 0034
ENCODING 52
SWIDTH 514 0
DWIDTH 5 0
BBX 5 7 0 -2
BITMAP
10
30
50
50
F8
10
10
ENDCHAR
STARTCHAR 0035
ENCODING 53
SWIDTH 411 0
DWIDTH 4 0
BBX 4 7 0 -2
BITMAP
70
80
60
30
10
10
60
ENDCHAR
STARTCHAR 0036
ENCODING 54
SWIDTH 514 0
DWIDTH 5 0
BBX 5 6 0 0
BITMAP
30
40
F0
D8
C8
70
ENDCHAR
STARTCHAR 0037
ENCODING 55
SWIDTH 411 0
DWIDTH 4 0
BBX 4 7 0 -2
BITMAP
F0
90
20
20
60
60
40
ENDCHAR
STARTCHAR 0038
ENCODING 56
SWIDTH 514 0
DWIDTH 5 0
BBX 5 6 0 0
BITMAP
70
58
70
58
D8
70
ENDCHAR
STARTCHAR 0039
ENCODING 57
SWIDTH 514 0
DWIDTH 5 0
BBX 5 7 0 -2
BITMAP
70
C8
C8
78
18
30
40
ENDCHAR
STARTCHAR 003A
ENCODING 58
SWIDTH 205 0
DWIDTH 2 0
BBX 1 4 1 0
BITMAP
80
00
80
80
ENDCHAR
STARTCHAR 003B
ENCODING 59
SWIDTH 205 0
DWIDTH 2 0
BBX 1 5 1 -2
BITMAP
80
00
00
80
80
ENDCHAR
STARTCHAR 003C
ENCODING 60
SWIDTH 514 0
DWIDTH 5 0
BBX 4 5 1 0
BITMAP
30
40
80
40
30
ENDCHAR
STARTCHAR 003D
ENCODING 61
SWIDTH 514 0
DWIDTH 5 0
BBX 4 3 1 1
BITMAP
F0
00
F0
ENDCHAR
STARTCHAR 003E
ENCODING 62
SWIDTH 514 0
DWIDTH 5 0
BBX 4 5 1 0
BITMAP
80
60
10
60
80
ENDCHAR
STARTCHAR 003F
ENCODING 63
SWIDTH 514 0
DWIDTH 5 0
BBX 4 7 1 0
BITMAP
E0
B0
20
40
40
00
60
ENDCHAR
STARTCHAR 0040
ENCODING 64
SWIDTH 925 0
DWIDTH 9 0
BBX 8 8 1 -2
BITMAP
7E
91
AD
AD
AE
B6
40
3E
ENDCHAR
STARTCHAR 0041
ENCODING 65
SWIDTH 617 0
DWIDTH 6 0
BBX 7 7 0 0
BITMAP
10
10
38
58
48
7C
CE
ENDCHAR
STARTCHAR 0042
ENCODING 66
SWIDTH 617 0
DWIDTH 6 0
BBX 6 7 0 0
BITMAP
F0
6C
6C
78
6C
6C
F8
ENDCHAR
STARTCHAR 0043
ENCODING 67
SWIDTH 617 0
DWIDTH 6 0
BBX 6 7 0 0
BITMAP
18
64
40
C0
C0
40
3C
ENDCHAR
STARTCHAR 0044
ENCODING 68
SWIDTH 720 0
DWIDTH 7 0
BBX 7 7 0 0
BITMAP
F0
6C
66
66
66
64
F8
ENDCHAR
STARTCHAR 0045
ENCODING 69
SWIDTH 617 0
DWIDTH 6 0
BBX 6 7 0 0
BITMAP
F8
68
60
70
60
64
FC
ENDCHAR
STARTCHAR 0046
ENCODING 70
SWIDTH 514 0
DWIDTH 5 0
BBX 5 7 0 0
BITMAP
F8
68
60
68
78
60
F0
ENDCHAR
STARTCHAR 0047
ENCODING 71
SWIDTH 617 0
DWIDTH 6 0
BBX 6 7 0 0
BITMAP
18
64
40
C0
CC
44
3C
ENDCHAR
STARTCHAR 0048
ENCODING 72
SWIDTH 720 0
DWIDTH 7 0
BBX 7 7 0 0
BITMAP
EE
64
64
7C
64
64
EE
ENDCHAR
STARTCHAR 0049
ENCODING 73
SWIDTH 308 0
DWIDTH 3 0
BBX 3 7 0 0
BITMAP
E0
60
60
60
60
60
E0
ENDCHAR
STARTCHAR 004A
ENCODING 74
SWIDTH 308 0
DWIDTH 3 0
BBX 3 9 0 -2
BITMAP
E0
40
40
40
40
40
40
40
C0
ENDCHAR
STARTCHAR 004B
ENCODING 75
SWIDTH 720 0
DWIDTH 7 0
BBX 7 7 0 0
BITMAP
EE
68
70
70
78
6C
EE
ENDCHAR
STARTCHAR 004C
ENCODING 76
SWIDTH 514 0
DWIDTH 5 0
BBX 6 7 0 0
BITMAP
E0
60
60
60
60
64
F8
ENDCHAR
STARTCHAR 004D
ENCODING 77
SWIDTH 925 0
DWIDTH 9 0
BBX 9 7 0 0
BITMAP
6180
6300
7300
5500
5D00
5900
CB80
ENDCHAR
STARTCHAR 004E
ENCODING 78
SWIDTH 720 0
DWIDTH 7 0
BBX 7 7 0 0
BITMAP
C6
64
74
5C
5C
4C
C4
ENDCHAR
STARTCHAR 004F
ENCODING 79
SWIDTH 720 0
DWIDTH 7 0
BBX 7 7 0 0
BITMAP
18
64
46
C6
C6
44
3C
ENDCHAR
STARTCHAR 0050
ENCODING 80
SWIDTH 617 0
DWIDTH 6 0
BBX 6 7 0 0
BITMAP
F0
6C
6C
6C
78
60
F0
ENDCHAR
STARTCHAR 0051
ENCODING 81
SWIDTH 720 0
DWIDTH 7 0
BBX 7 9 0 -2
BITMAP
18
64
46
C6
C6
44
3C
0C
06
ENDCHAR
STARTCHAR 0052
ENCODING 82
SWIDTH 617 0
DWIDTH 6 0
BBX 7 7 0 0
BITMAP
F8
6C
6C
68
78
6C
EE
ENDCHAR
STARTCHAR 0053
ENCODING 83
SWIDTH 514 0
DWIDTH 5 0
BBX 5 7 0 0
BITMAP
30
48
40
70
18
48
F8
ENDCHAR
STARTCHAR 0054
ENCODING 84
SWIDTH 617 0
DWIDTH 6 0
BBX 6 7 0 0
BITMAP
FC
B4
30
30
30
30
38
ENDCHAR
STARTCHAR 0055
ENCODING 85
SWIDTH 617 0
DWIDTH 6 0
BBX 6 7 0 0
BITMAP
EC
44
44
44
44
64
78
ENDCHAR
STARTCHAR 0056
ENCODING 86
SWIDTH 617 0
DWIDTH 6 0
BBX 7 7 0 0
BITMAP
E6
44
64
28
38
30
10
ENDCHAR
STARTCHAR 0057
ENCODING 87
SWIDTH 925 0
DWIDTH 9 0
BBX 9 7 0 0
BITMAP
E580
4480
6C80
7700
3300
3300
2200
ENDCHAR
STARTCHAR 0058
ENCODING 88
SWIDTH 617 0
DWIDTH 6 0
BBX 6 7 0 0
BITMAP
EC
64
38
30
38
48
CC
ENDCHAR
STARTCHAR 0059
ENCODING 89
SWIDTH 617 0
DWIDTH 6 0
BBX 6 7 0 0
BITMAP
EC
68
68
30
30
30
78
ENDCHAR
STARTCHAR 005A
ENCODING 90
SWIDTH 514 0
DWIDTH 5 0
BBX 5 7 0 0
BITMAP
78
58
10
30
20
60
F8
ENDCHAR
STARTCHAR 005B
ENCODING 91
SWIDTH 205 0
DWIDTH 2 0
BBX 2 10 0 -3
BITMAP
C0
80
80
80
80
80
80
80
80
C0
ENDCHAR
STARTCHAR 005C
ENCODING 92
SWIDTH 308 0
DWIDTH 3 0
BBX 3 7 0 0
BITMAP
80
80
40
40
20
20
20
ENDCHAR
STARTCHAR 005D
ENCODING 93
SWIDTH 205 0
DWIDTH 2 0
BBX 3 10 0 -3
BITMAP
60
20
20
20
20
20
20
20
20
E0
ENDCHAR
STARTCHAR 005E
ENCODING 94
SWIDTH 514 0
DWIDTH 5 0
BBX 5 3 0 4
BITMAP
20
50
88
ENDCHAR
STARTCHAR 005F
ENCODING 95
SWIDTH 514 0
DWIDTH 5 0
BBX 4 1 1 -2
BITMAP
F0
ENDCHAR
STARTCHAR 0060
ENCODING 96
SWIDTH 205 0
DWIDTH 2 0
BBX 1 1 1 5
BITMAP
80
ENDCHAR
STARTCHAR 0061
ENCODING 97
SWIDTH 411 0
DWIDTH 4 0
BBX 5 5 0 0
BITMAP
20
50
30
D0
F8
ENDCHAR
STARTCHAR 0062
ENCODING 98
SWIDTH 514 0
DWIDTH 5 0
BBX 5 7 0 0
BITMAP
C0
40
50
68
48
48
78
ENDCHAR
STARTCHAR 0063
ENCODING 99
SWIDTH 411 0
DWIDTH 4 0
BBX 4 5 0 0
BITMAP
20
50
C0
C0
70
ENDCHAR
STARTCHAR 0064
ENCODING 100
SWIDTH 514 0
DWIDTH 5 0
BBX 6 7 0 0
BITMAP
18
08
08
78
C8
C8
7C
ENDCHAR
STARTCHAR 0065
ENCODING 101
SWIDTH 411 0
DWIDTH 4 0
BBX 5 5 0 0
BITMAP
20
50
F8
C0
70
ENDCHAR
STARTCHAR 0066
ENCODING 102
SWIDTH 308 0
DWIDTH 3 0
BBX 4 7 0 0
BITMAP
30
40
40
60
40
40
E0
ENDCHAR
STARTCHAR 0067
ENCODING 103
SWIDTH 514 0
DWIDTH 5 0
BBX 5 7 0 -2
BITMAP
20
58
D8
60
78
58
F8
ENDCHAR
STARTCHAR 0068
ENCODING 104
SWIDTH 617 0
DWIDTH 6 0
BBX 6 7 0 0
BITMAP
C0
40
40
78
48
48
FC
ENDCHAR
STARTCHAR 0069
ENCODING 105
SWIDTH 308 0
DWIDTH 3 0
BBX 3 7 0 0
BITMAP
40
40
00
40
40
40
E0
ENDCHAR
STARTCHAR 006A
ENCODING 106
SWIDTH 308 0
DWIDTH 3 0
BBX 2 9 0 -2
BITMAP
40
40
00
40
40
40
40
40
C0
ENDCHAR
STARTCHAR 006B
ENCODING 107
SWIDTH 617 0
DWIDTH 6 0
BBX 6 7 0 0
BITMAP
C0
40
40
48
50
58
EC
ENDCHAR
STARTCHAR 006C
ENCODING 108
SWIDTH 308 0
DWIDTH 3 0
BBX 3 7 0 0
BITMAP
C0
40
40
40
40
40
E0
ENDCHAR
STARTCHAR 006D
ENCODING 109
SWIDTH 925 0
DWIDTH 9 0
BBX 9 4 0 1
BITMAP
7F00
4900
4900
FD80
ENDCHAR
STARTCHAR 006E
ENCODING 110
SWIDTH 617 0
DWIDTH 6 0
BBX 6 4 0 1
BITMAP
78
4C
4C
EC
ENDCHAR
STARTCHAR 006F
ENCODING 111
SWIDTH 514 0
DWIDTH 5 0
BBX 5 5 0 0
BITMAP
20
58
C8
C8
70
ENDCHAR
STARTCHAR 0070
ENCODING 112
SWIDTH 617 0
DWIDTH 6 0
BBX 5 6 1 -1
BITMAP
F8
98
98
F0
80
C0
ENDCHAR
STARTCHAR 0071
ENCODING 113
SWIDTH 514 0
DWIDTH 5 0
BBX 5 7 0 -2
BITMAP
10
68
C8
C8
78
08
18
ENDCHAR
STARTCHAR 0072
ENCODING 114
SWIDTH 411 0
DWIDTH 4 0
BBX 4 4 0 1
BITMAP
70
40
40
E0
ENDCHAR
STARTCHAR 0073
ENCODING 115
SWIDTH 411 0
DWIDTH 4 0
BBX 4 5 0 0
BITMAP
20
D0
60
B0
F0
ENDCHAR
STARTCHAR 0074
ENCODING 116
SWIDTH 308 0
DWIDTH 3 0
BBX 2 6 1 0
BITMAP
80
80
C0
80
80
C0
ENDCHAR
STARTCHAR 0075
ENCODING 117
SWIDTH 514 0
DWIDTH 5 0
BBX 5 4 1 1
BITMAP
90
90
90
F8
ENDCHAR
STARTCHAR 0076
ENCODING 118
SWIDTH 514 0
DWIDTH 5 0
BBX 4 4 1 0
BITMAP
90
E0
60
40
ENDCHAR
STARTCHAR 0077
ENCODING 119
SWIDTH 720 0
DWIDTH 7 0
BBX 6 5 1 0
BITMAP
10
94
F4
D8
48
ENDCHAR
STARTCHAR 0078
ENCODING 120
SWIDTH 514 0
DWIDTH 5 0
BBX 5 4 0 0
BITMAP
78
30
50
D8
ENDCHAR
STARTCHAR 0079
ENCODING 121
SWIDTH 514 0
DWIDTH 5 0
BBX 5 6 0 -2
BITMAP
48
70
30
20
20
E0
ENDCHAR
STARTCHAR 007A
ENCODING 122
SWIDTH 411 0
DWIDTH 4 0
BBX 5 4 0 0
BITMAP
F0
30
68
F8
ENDCHAR
STARTCHAR 007B
ENCODING 123
SWIDTH 308 0
DWIDTH 3 0
BBX 3 10 0 -3
BITMAP
20
40
60
60
C0
60
60
40
40
20
ENDCHAR
STARTCHAR 007C
ENCODING 124
SWIDTH 102 0
DWIDTH 1 0
BBX 1 8 0 -1
BITMAP
80
80
80
80
80
80
80
80
ENDCHAR
STARTCHAR 007D
ENCODING 125
SWIDTH 308 0
DWIDTH 3 0
BBX 3 10 0 -3
BITMAP
40
40
40
40
20
60
40
40
40
80
ENDCHAR
STARTCHAR 007E
ENCODING 126
SWIDTH 514 0
DWIDTH 5 0
BBX 4 1 1 2
BITMAP
F0
ENDCHAR
STARTCHAR 00A0
ENCODING 160
SWIDTH 102 0
DWIDTH 1 0
BBX 0 0 0 0
BITMAP
ENDCHAR
STARTCHAR 00A1
ENCODING 161
SWIDTH 411 0
DWIDTH 4 0
BBX 2 6 1 -2
BITMAP
C0
00
80
80
C0
C0
ENDCHAR
STARTCHAR 00A2
ENCODING 162
SWIDTH 411 0
DWIDTH 4 0
BBX 4 7 0 -1
BITMAP
20
20
70
E0
E0
70
20
ENDCHAR
STARTCHAR 00A3
ENCODING 163
SWIDTH 514 0
DWIDTH 5 0
BBX 4 7 1 0
BITMAP
60
90
80
C0
E0
A0
F0
ENDCHAR
STARTCHAR 00A4
ENCODING 164
SWIDTH 514 0
DWIDTH 5 0
BBX 3 4 1 0
BITMAP
E0
A0
A0
40
ENDCHAR
STARTCHAR 00A5
ENCODING 165
SWIDTH 617 0
DWIDTH 6 0
BBX 6 7 0 0
BITMAP
EC
68
68
68
30
78
78
ENDCHAR
STARTCHAR 00A6
ENCODING 166
SWIDTH 102 0
DWIDTH 1 0
BBX 1 8 0 -1
BITMAP
80
80
00
00
00
80
80
80
ENDCHAR
STARTCHAR 00A7
ENCODING 167
SWIDTH 514 0
DWIDTH 5 0
BBX 5 9 0 -2
BITMAP
70
50
60
78
C8
48
70
10
70
ENDCHAR
STARTCHAR 00A8
ENCODING 168
SWIDTH 205 0
DWIDTH 2 0
BBX 3 1 0 5
BITMAP
A0
ENDCHAR
STARTCHAR 00A9
ENCODING 169
SWIDTH 720 0
DWIDTH 7 0
BBX 6 7 1 -1
BITMAP
30
C8
F4
C4
C4
B4
78
ENDCHAR
STARTCHAR 00AA
ENCODING 170
SWIDTH 411 0
DWIDTH 4 0
BBX 3 4 0 3
BITMAP
60
20
E0
40
ENDCHAR
STARTCHAR 00AB
ENCODING 171
SWIDTH 411 0
DWIDTH 4 0
BBX 3 3 1 1
BITMAP
A0
A0
A0
ENDCHAR
STARTCHAR 00AC
ENCODING 172
SWIDTH 514 0
DWIDTH 5 0
BBX 4 2 1 1
BITMAP
F0
10
ENDCHAR
STARTCHAR 00AD
ENCODING 173
SWIDTH 411 0
DWIDTH 4 0
BBX 2 1 1 2
BITMAP
C0
ENDCHAR
STARTCHAR 00AE
ENCODING 174
SWIDTH 514 0
DWIDTH 5 0
BBX 4 4 1 4
BITMAP
60
E0
D0
E0
ENDCHAR
STARTCHAR 00AF
ENCODING 175
SWIDTH 205 0
DWIDTH 2 0
BBX 2 1 0 5
BITMAP
C0
ENDCHAR
STARTCHAR 00B0
ENCODING 176
SWIDTH 411 0
DWIDTH 4 0
BBX 2 3 1 4
BITMAP
C0
C0
C0
ENDCHAR
STARTCHAR 00B1
ENCODING 177
SWIDTH 514 0
DWIDTH 5 0
BBX 4 5 1 0
BITMAP
40
40
E0
40
F0
ENDCHAR
STARTCHAR 00B2
ENCODING 178
SWIDTH 308 0
DWIDTH 3 0
BBX 3 3 0 4
BITMAP
60
20
E0
ENDCHAR
STARTCHAR 00B3
ENCODING 179
SWIDTH 308 0
DWIDTH 3 0
BBX 2 4 1 3
BITMAP
C0
C0
40
C0
ENDCHAR
STARTCHAR 00B4
ENCODING 180
SWIDTH 205 0
DWIDTH 2 0
BBX 1 1 1 5
BITMAP
80
ENDCHAR
STARTCHAR 00B5
ENCODING 181
SWIDTH 617 0
DWIDTH 6 0
BBX 5 6 1 -1
BITMAP
90
90
90
F8
80
80
ENDCHAR
STARTCHAR 00B6
ENCODING 182
SWIDTH 514 0
DWIDTH 5 0
BBX 5 9 0 -2
BITMAP
38
58
D8
78
18
18
18
18
18
ENDCHAR
STARTCHAR 00B7
ENCODING 183
SWIDTH 205 0
DWIDTH 2 0
BBX 1 1 1 2
BITMAP
80
ENDCHAR
STARTCHAR 00B8
ENCODING 184
SWIDTH 205 0
DWIDTH 2 0
BBX 1 2 1 -2
BITMAP
80
80
ENDCHAR
STARTCHAR 00B9
ENCODING 185
SWIDTH 308 0
DWIDTH 3 0
BBX 2 3 1 4
BITMAP
80
80
C0
ENDCHAR
STARTCHAR 00BA
ENCODING 186
SWIDTH 411 0
DWIDTH 4 0
BBX 4 4 0 3
BITMAP
60
D0
D0
20
ENDCHAR
STARTCHAR 00BB
ENCODING 187
SWIDTH 411 0
DWIDTH 4 0
BBX 3 3 1 1
BITMAP
C0
A0
A0
ENDCHAR
STARTCHAR 00BC
ENCODING 188
SWIDTH 822 0
DWIDTH 8 0
BBX 8 7 0 0
BITMAP
E2
64
64
6A
16
17
23
ENDCHAR
STARTCHAR 00BD
ENCODING 189
SWIDTH 925 0
DWIDTH 9 0
BBX 9 7 0 0
BITMAP
E200
6400
6400
6B80
1080
1100
2380
ENDCHAR
STARTCHAR 00BE
ENCODING 190
SWIDTH 822 0
DWIDTH 8 0
BBX 8 7 0 0
BITMAP
E2
44
64
2A
56
27
23
ENDCHAR
STARTCHAR 00BF
ENCODING 191
SWIDTH 514 0
DWIDTH 5 0
BBX 3 8 1 -3
BITMAP
40
40
00
40
40
80
A0
40
ENDCHAR
STARTCHAR 00C0
ENCODING 192
SWIDTH 617 0
DWIDTH 6 0
BBX 7 8 0 1
BITMAP
10
10
10
38
58
48
7C
CE
ENDCHAR
STARTCHAR 00C1
ENCODING 193
SWIDTH 617 0
DWIDTH 6 0
BBX 7 9 0 0
BITMAP
08
10
10
10
38
58
48
7C
CE
ENDCHAR
STARTCHAR 00C2
ENCODING 194
SWIDTH 617 0
DWIDTH 6 0
BBX 7 9 0 0
BITMAP
10
28
10
10
38
58
48
7C
CE
ENDCHAR
STARTCHAR 00C3
ENCODING 195
SWIDTH 617 0
DWIDTH 6 0
BBX 7 8 0 0
BITMAP
38
10
10
38
58
48
7C
CE
ENDCHAR
STARTCHAR 00C4
ENCODING 196
SWIDTH 617 0
DWIDTH 6 0
BBX 7 8 0 0
BITMAP
28
10
10
38
58
48
7C
CE
ENDCHAR
STARTCHAR 00C5
ENCODING 197
SWIDTH 617 0
DWIDTH 6 0
BBX 7 9 0 0
BITMAP
10
30
10
10
38
58
48
7C
CE
ENDCHAR
STARTCHAR 00C6
ENCODING 198
SWIDTH 925 0
DWIDTH 9 0
BBX 9 7 0 0
BITMAP
1F00
0C80
1C00
2D00
3F00
4C80
CF80
ENDCHAR
STARTCHAR 00C7
ENCODING 199
SWIDTH 617 0
DWIDTH 6 0
BBX 6 9 0 -2
BITMAP
18
64
40
C0
C0
40
3C
10
10
ENDCHAR
STARTCHAR 00C8
ENCODING 200
SWIDTH 617 0
DWIDTH 6 0
BBX 6 9 0 0
BITMAP
20
20
F8
68
60
70
60
64
FC
ENDCHAR
STARTCHAR 00C9
ENCODING 201
SWIDTH 617 0
DWIDTH 6 0
BBX 6 9 0 0
BITMAP
10
00
F8
68
60
70
60
64
FC
ENDCHAR
STARTCHAR 00CA
ENCODING 202
SWIDTH 617 0
DWIDTH 6 0
BBX 6 8 0 1
BITMAP
78
F8
68
60
70
60
64
FC
ENDCHAR
STARTCHAR 00CB
ENCODING 203
SWIDTH 617 0
DWIDTH 6 0
BBX 6 8 0 0
BITMAP
78
F8
68
60
70
60
64
FC
ENDCHAR
STARTCHAR 00CC
ENCODING 204
SWIDTH 308 0
DWIDTH 3 0
BBX 3 9 0 0
BITMAP
40
40
E0
60
60
60
60
60
E0
ENDCHAR
STARTCHAR 00CD
ENCODING 205
SWIDTH 308 0
DWIDTH 3 0
BBX 3 9 0 0
BITMAP
20
40
E0
60
60
60
60
60
E0
ENDCHAR
STARTCHAR 00CE
ENCODING 206
SWIDTH 308 0
DWIDTH 3 0
BBX 3 8 0 1
BITMAP
60
E0
60
60
60
60
60
E0
ENDCHAR
STARTCHAR 00CF
ENCODING 207
SWIDTH 308 0
DWIDTH 3 0
BBX 3 8 0 0
BITMAP
E0
E0
60
60
60
60
60
E0
ENDCHAR
STARTCHAR 00D0
ENCODING 208
SWIDTH 720 0
DWIDTH 7 0
BBX 7 7 0 0
BITMAP
F0
6C
66
F6
66
64
F8
ENDCHAR
STARTCHAR 00D1
ENCODING 209
SWIDTH 720 0
DWIDTH 7 0
BBX 7 8 0 0
BITMAP
38
C6
64
74
5C
5C
4C
C4
ENDCHAR
STARTCHAR 00D2
ENCODING 210
SWIDTH 720 0
DWIDTH 7 0
BBX 7 9 0 0
BITMAP
10
10
18
64
46
C6
C6
44
3C
ENDCHAR
STARTCHAR 00D3
ENCODING 211
SWIDTH 720 0
DWIDTH 7 0
BBX 7 9 0 0
BITMAP
08
10
18
64
46
C6
C6
44
3C
ENDCHAR
STARTCHAR 00D4
ENCODING 212
SWIDTH 720 0
DWIDTH 7 0
BBX 7 9 0 0
BITMAP
10
28
18
64
46
C6
C6
44
3C
ENDCHAR
STARTCHAR 00D5
ENCODING 213
SWIDTH 720 0
DWIDTH 7 0
BBX 7 8 0 0
BITMAP
38
18
64
46
C6
C6
44
3C
ENDCHAR
STARTCHAR 00D6
ENCODING 214
SWIDTH 720 0
DWIDTH 7 0
BBX 7 8 0 0
BITMAP
28
18
64
46
C6
C6
44
3C
ENDCHAR
STARTCHAR 00D7
ENCODING 215
SWIDTH 514 0
DWIDTH 5 0
BBX 5 5 0 0
BITMAP
88
50
20
50
88
ENDCHAR
STARTCHAR 00D8
ENCODING 216
SWIDTH 720 0
DWIDTH 7 0
BBX 7 7 0 0
BITMAP
1A
64
4E
D6
D6
64
7C
ENDCHAR
STARTCHAR 00D9
ENCODING 217
SWIDTH 617 0
DWIDTH 6 0
BBX 6 9 0 0
BITMAP
10
10
EC
44
44
44
44
64
78
ENDCHAR
STARTCHAR 00DA
ENCODING 218
SWIDTH 617 0
DWIDTH 6 0
BBX 6 9 0 0
BITMAP
08
10
EC
44
44
44
44
64
78
ENDCHAR
STARTCHAR 00DB
ENCODING 219
SWIDTH 617 0
DWIDTH 6 0
BBX 6 9 0 0
BITMAP
10
28
EC
44
44
44
44
64
78
ENDCHAR
STARTCHAR 00DC
ENCODING 220
SWIDTH 617 0
DWIDTH 6 0
BBX 6 8 0 0
BITMAP
2C
EC
44
44
44
44
64
78
ENDCHAR
STARTCHAR 00DD
ENCODING 221
SWIDTH 617 0
DWIDTH 6 0
BBX 6 9 0 0
BITMAP
08
10
EC
68
68
30
30
30
78
ENDCHAR
STARTCHAR 00DE
ENCODING 222
SWIDTH 617 0
DWIDTH 6 0
BBX 6 7 0 0
BITMAP
E0
60
7C
6C
6C
70
F0
ENDCHAR
STARTCHAR 00DF
ENCODING 223
SWIDTH 617 0
DWIDTH 6 0
BBX 6 7 0 0
BITMAP
38
48
48
58
5C
54
DC
ENDCHAR
STARTCHAR 00E0
ENCODING 224
SWIDTH 514 0
DWIDTH 5 0
BBX 4 7 1 0
BITMAP
80
40
00
E0
30
E0
F0
ENDCHAR
STARTCHAR 00E1
ENCODING 225
SWIDTH 514 0
DWIDTH 5 0
BBX 4 7 1 0
BITMAP
20
40
00
E0
30
E0
F0
ENDCHAR
STARTCHAR 00E2
ENCODING 226
SWIDTH 514 0
DWIDTH 5 0
BBX 4 7 1 0
BITMAP
40
A0
00
E0
30
E0
F0
ENDCHAR
STARTCHAR 00E3
ENCODING 227
SWIDTH 514 0
DWIDTH 5 0
BBX 4 7 1 0
BITMAP
80
60
00
E0
30
E0
F0
ENDCHAR
STARTCHAR 00E4
ENCODING 228
SWIDTH 514 0
DWIDTH 5 0
BBX 4 6 1 0
BITMAP
A0
00
E0
30
E0
F0
ENDCHAR
STARTCHAR 00E5
ENCODING 229
SWIDTH 514 0
DWIDTH 5 0
BBX 4 7 1 0
BITMAP
E0
C0
00
E0
30
E0
F0
ENDCHAR
STARTCHAR 00E6
ENCODING 230
SWIDTH 720 0
DWIDTH 7 0
BBX 7 5 0 0
BITMAP
20
5E
3E
D0
FE
ENDCHAR
STARTCHAR 00E7
ENCODING 231
SWIDTH 411 0
DWIDTH 4 0
BBX 4 7 0 -2
BITMAP
20
50
C0
C0
70
20
30
ENDCHAR
STARTCHAR 00E8
ENCODING 232
SWIDTH 411 0
DWIDTH 4 0
BBX 5 7 0 0
BITMAP
60
20
20
50
F8
C0
70
ENDCHAR
STARTCHAR 00E9
ENCODING 233
SWIDTH 411 0
DWIDTH 4 0
BBX 5 7 0 0
BITMAP
10
20
20
50
F8
C0
70
ENDCHAR
STARTCHAR 00EA
ENCODING 234
SWIDTH 411 0
DWIDTH 4 0
BBX 5 7 0 0
BITMAP
20
50
20
50
F8
C0
70
ENDCHAR
STARTCHAR 00EB
ENCODING 235
SWIDTH 411 0
DWIDTH 4 0
BBX 5 6 0 0
BITMAP
50
20
50
F8
C0
70
ENDCHAR
STARTCHAR 00EC
ENCODING 236
SWIDTH 308 0
DWIDTH 3 0
BBX 3 7 0 0
BITMAP
C0
40
00
40
40
40
E0
ENDCHAR
STARTCHAR 00ED
ENCODING 237
SWIDTH 308 0
DWIDTH 3 0
BBX 3 7 0 0
BITMAP
20
40
00
40
40
40
E0
ENDCHAR
STARTCHAR 00EE
ENCODING 238
SWIDTH 308 0
DWIDTH 3 0
BBX 3 7 0 0
BITMAP
40
A0
00
40
40
40
E0
ENDCHAR
STARTCHAR 00EF
ENCODING 239
SWIDTH 308 0
DWIDTH 3 0
BBX 3 6 0 0
BITMAP
A0
00
40
40
40
E0
ENDCHAR
STARTCHAR 00F0
ENCODING 240
SWIDTH 514 0
DWIDTH 5 0
BBX 5 7 0 0
BITMAP
68
30
18
68
C8
C8
70
ENDCHAR
STARTCHAR 00F1
ENCODING 241
SWIDTH 617 0
DWIDTH 6 0
BBX 6 7 0 0
BITMAP
20
58
00
78
4C
4C
EC
ENDCHAR
STARTCHAR 00F2
ENCODING 242
SWIDTH 514 0
DWIDTH 5 0
BBX 5 7 0 0
BITMAP
20
20
20
58
C8
C8
70
ENDCHAR
STARTCHAR 00F3
ENCODING 243
SWIDTH 514 0
DWIDTH 5 0
BBX 5 7 0 0
BITMAP
10
20
20
58
C8
C8
70
ENDCHAR
STARTCHAR 00F4
ENCODING 244
SWIDTH 514 0
DWIDTH 5 0
BBX 5 7 0 0
BITMAP
30
58
20
58
C8
C8
70
ENDCHAR
STARTCHAR 00F5
ENCODING 245
SWIDTH 514 0
DWIDTH 5 0
BBX 5 7 0 0
BITMAP
20
50
20
58
C8
C8
70
ENDCHAR
STARTCHAR 00F6
ENCODING 246
SWIDTH 514 0
DWIDTH 5 0
BBX 5 6 0 0
BITMAP
58
20
58
C8
C8
70
ENDCHAR
STARTCHAR 00F7
ENCODING 247
SWIDTH 514 0
DWIDTH 5 0
BBX 5 5 0 0
BITMAP
20
00
F8
20
20
ENDCHAR
STARTCHAR 00F8
ENCODING 248
SWIDTH 514 0
DWIDTH 5 0
BBX 5 5 0 0
BITMAP
28
58
E8
E8
70
ENDCHAR
STARTCHAR 00F9
ENCODING 249
SWIDTH 514 0
DWIDTH 5 0
BBX 5 7 1 0
BITMAP
40
00
00
90
90
90
F8
ENDCHAR
STARTCHAR 00FA
ENCODING 250
SWIDTH 514 0
DWIDTH 5 0
BBX 5 7 1 0
BITMAP
20
00
00
90
90
90
F8
ENDCHAR
STARTCHAR 00FB
ENCODING 251
SWIDTH 514 0
DWIDTH 5 0
BBX 5 7 1 0
BITMAP
60
90
00
90
90
90
F8
ENDCHAR
STARTCHAR 00FC
ENCODING 252
SWIDTH 514 0
DWIDTH 5 0
BBX 5 6 1 0
BITMAP
F0
00
90
90
90
F8
ENDCHAR
STARTCHAR 00FD
ENCODING 253
SWIDTH 514 0
DWIDTH 5 0
BBX 5 9 0 -2
BITMAP
10
10
00
48
70
30
20
20
E0
ENDCHAR
STARTCHAR 00FE
ENCODING 254
SWIDTH 617 0
DWIDTH 6 0
BBX 6 9 0 -2
BITMAP
C0
40
40
6C
4C
4C
78
40
60
ENDCHAR
STARTCHAR 00FF
ENCODING 255
SWIDTH 514 0
DWIDTH 5 0
BBX 5 8 0 -2
BITMAP
78
00
48
70
30
20
20
E0
ENDCHAR
STARTCHAR 0100
ENCODING 256
SWIDTH 617 0
DWIDTH 6 0
BBX 7 8 0 0
BITMAP
38
10
10
38
58
48
7C
CE
ENDCHAR
STARTCHAR 0101
ENCODING 257
SWIDTH 514 0
DWIDTH 5 0
BBX 4 6 1 0
BITMAP
C0
00
E0
30
E0
F0
ENDCHAR
STARTCHAR 0102
ENCODING 258
SWIDTH 617 0
DWIDTH 6 0
BBX 7 9 0 0
BITMAP
08
38
10
10
38
58
48
7C
CE
ENDCHAR
STARTCHAR 0103
ENCODING 259
SWIDTH 514 0
DWIDTH 5 0
BBX 4 7 1 0
BITMAP
80
E0
00
E0
30
E0
F0
ENDCHAR
STARTCHAR 0104
ENCODING 260
SWIDTH 617 0
DWIDTH 6 0
BBX 7 9 0 -2
BITMAP
10
10
38
58
48
7C
CE
08
0C
ENDCHAR
STARTCHAR 0105
ENCODING 261
SWIDTH 514 0
DWIDTH 5 0
BBX 4 6 1 -1
BITMAP
E0
30
E0
F0
20
30
ENDCHAR
STARTCHAR 0106
ENCODING 262
SWIDTH 617 0
DWIDTH 6 0
BBX 6 9 0 0
BITMAP
08
10
18
64
40
C0
C0
40
3C
ENDCHAR
STARTCHAR 0107
ENCODING 263
SWIDTH 411 0
DWIDTH 4 0
BBX 4 7 0 0
BITMAP
10
20
20
50
C0
C0
70
ENDCHAR
STARTCHAR 0108
ENCODING 264
SWIDTH 617 0
DWIDTH 6 0
BBX 6 9 0 0
BITMAP
10
28
18
64
40
C0
C0
40
3C
ENDCHAR
STARTCHAR 0109
ENCODING 265
SWIDTH 411 0
DWIDTH 4 0
BBX 4 7 0 0
BITMAP
20
50
20
50
C0
C0
70
ENDCHAR
STARTCHAR 010A
ENCODING 266
SWIDTH 617 0
DWIDTH 6 0
BBX 6 8 0 0
BITMAP
10
18
64
40
C0
C0
40
3C
ENDCHAR
STARTCHAR 010B
ENCODING 267
SWIDTH 411 0
DWIDTH 4 0
BBX 4 6 0 0
BITMAP
20
20
50
C0
C0
70
ENDCHAR
STARTCHAR 010C
ENCODING 268
SWIDTH 617 0
DWIDTH 6 0
BBX 6 9 0 0
BITMAP
20
18
18
64
40
C0
C0
40
3C
ENDCHAR
STARTCHAR 010D
ENCODING 269
SWIDTH 411 0
DWIDTH 4 0
BBX 4 7 0 0
BITMAP
50
20
20
50
C0
C0
70
ENDCHAR
STARTCHAR 010E
ENCODING 270
SWIDTH 720 0
DWIDTH 7 0
BBX 7 9 0 0
BITMAP
08
30
F0
6C
66
66
66
64
F8
ENDCHAR
STARTCHAR 010F
ENCODING 271
SWIDTH 720 0
DWIDTH 7 0
BBX 7 7 0 0
BITMAP
1A
0A
08
78
C8
C8
7C
ENDCHAR
STARTCHAR 0110
ENCODING 272
SWIDTH 720 0
DWIDTH 7 0
BBX 7 7 0 0
BITMAP
F0
6C
66
F6
66
64
F8
ENDCHAR
STARTCHAR 0111
ENCODING 273
SWIDTH 514 0
DWIDTH 5 0
BBX 6 7 0 0
BITMAP
18
1C
08
78
C8
C8
7C
ENDCHAR
STARTCHAR 0112
ENCODING 274
SWIDTH 617 0
DWIDTH 6 0
BBX 6 8 0 0
BITMAP
78
F8
68
60
70
60
64
FC
ENDCHAR
STARTCHAR 0113
ENCODING 275
SWIDTH 411 0
DWIDTH 4 0
BBX 5 6 0 0
BITMAP
60
20
50
F8
C0
70
ENDCHAR
STARTCHAR 0114
ENCODING 276
SWIDTH 617 0
DWIDTH 6 0
BBX 6 8 0 1
BITMAP
30
F8
68
60
70
60
64
FC
ENDCHAR
STARTCHAR 0115
ENCODING 277
SWIDTH 411 0
DWIDTH 4 0
BBX 5 7 0 0
BITMAP
40
70
20
50
F8
C0
70
ENDCHAR
STARTCHAR 0116
ENCODING 278
SWIDTH 617 0
DWIDTH 6 0
BBX 6 8 0 0
BITMAP
30
F8
68
60
70
60
64
FC
ENDCHAR
STARTCHAR 0117
ENCODING 279
SWIDTH 411 0
DWIDTH 4 0
BBX 5 6 0 0
BITMAP
20
20
50
F8
C0
70
ENDCHAR
STARTCHAR 0118
ENCODING 280
SWIDTH 617 0
DWIDTH 6 0
BBX 6 9 0 -2
BITMAP
F8
68
60
70
60
64
FC
10
18
ENDCHAR
STARTCHAR 0119
ENCODING 281
SWIDTH 411 0
DWIDTH 4 0
BBX 5 7 0 -2
BITMAP
20
50
F8
C0
70
20
30
ENDCHAR
STARTCHAR 011A
ENCODING 282
SWIDTH 617 0
DWIDTH 6 0
BBX 6 9 0 0
BITMAP
40
30
F8
68
60
70
60
64
FC
ENDCHAR
STARTCHAR 011B
ENCODING 283
SWIDTH 411 0
DWIDTH 4 0
BBX 5 7 0 0
BITMAP
50
20
20
50
F8
C0
70
ENDCHAR
STARTCHAR 011C
ENCODING 284
SWIDTH 617 0
DWIDTH 6 0
BBX 6 9 0 0
BITMAP
10
28
18
64
40
C0
CC
44
3C
ENDCHAR
STARTCHAR 011D
ENCODING 285
SWIDTH 514 0
DWIDTH 5 0
BBX 5 9 0 -2
BITMAP
20
50
20
58
D8
60
78
58
F8
ENDCHAR
STARTCHAR 011E
ENCODING 286
SWIDTH 617 0
DWIDTH 6 0
BBX 6 8 0 1
BITMAP
38
18
64
40
C0
CC
44
3C
ENDCHAR
STARTCHAR 011F
ENCODING 287
SWIDTH 514 0
DWIDTH 5 0
BBX 5 8 0 -1
BITMAP
70
20
58
D8
60
78
58
F8
ENDCHAR
STARTCHAR 0120
ENCODING 288
SWIDTH 617 0
DWIDTH 6 0
BBX 6 8 0 0
BITMAP
18
18
64
40
C0
CC
44
3C
ENDCHAR
STARTCHAR 0121
ENCODING 289
SWIDTH 514 0
DWIDTH 5 0
BBX 5 8 0 -2
BITMAP
20
20
58
D8
60
78
58
F8
ENDCHAR
STARTCHAR 0122
ENCODING 290
SWIDTH 617 0
DWIDTH 6 0
BBX 6 10 0 -3
BITMAP
18
64
40
C0
CC
44
3C
00
10
10
ENDCHAR
STARTCHAR 0123
ENCODING 291
SWIDTH 514 0
DWIDTH 5 0
BBX 5 9 0 -2
BITMAP
20
20
20
58
D8
60
78
58
F8
ENDCHAR
STARTCHAR 0124
ENCODING 292
SWIDTH 720 0
DWIDTH 7 0
BBX 7 9 0 0
BITMAP
10
28
EE
64
64
7C
64
64
EE
ENDCHAR
STARTCHAR 0125
ENCODING 293
SWIDTH 617 0
DWIDTH 6 0
BBX 6 8 0 1
BITMAP
78
C0
40
40
78
48
48
FC
ENDCHAR
STARTCHAR 0126
ENCODING 294
SWIDTH 720 0
DWIDTH 7 0
BBX 7 7 0 0
BITMAP
EE
64
FE
7C
64
64
EE
ENDCHAR
STARTCHAR 0127
ENCODING 295
SWIDTH 617 0
DWIDTH 6 0
BBX 6 7 0 0
BITMAP
C0
40
60
78
48
48
FC
ENDCHAR
STARTCHAR 0128
ENCODING 296
SWIDTH 308 0
DWIDTH 3 0
BBX 3 8 0 0
BITMAP
E0
E0
60
60
60
60
60
E0
ENDCHAR
STARTCHAR 0129
ENCODING 297
SWIDTH 308 0
DWIDTH 3 0
BBX 3 6 0 1
BITMAP
E0
00
40
40
40
E0
ENDCHAR
STARTCHAR 012A
ENCODING 298
SWIDTH 308 0
DWIDTH 3 0
BBX 3 8 0 0
BITMAP
E0
E0
60
60
60
60
60
E0
ENDCHAR
STARTCHAR 012B
ENCODING 299
SWIDTH 308 0
DWIDTH 3 0
BBX 3 6 0 0
BITMAP
C0
00
40
40
40
E0
ENDCHAR
STARTCHAR 012C
ENCODING 300
SWIDTH 308 0
DWIDTH 3 0
BBX 3 8 0 0
BITMAP
60
E0
60
60
60
60
60
E0
ENDCHAR
STARTCHAR 012D
ENCODING 301
SWIDTH 308 0
DWIDTH 3 0
BBX 3 7 0 0
BITMAP
80
E0
00
40
40
40
E0
ENDCHAR
STARTCHAR 012E
ENCODING 302
SWIDTH 308 0
DWIDTH 3 0
BBX 3 9 0 -2
BITMAP
E0
60
60
60
60
60
E0
40
60
ENDCHAR
STARTCHAR 012F
ENCODING 303
SWIDTH 308 0
DWIDTH 3 0
BBX 3 9 0 -2
BITMAP
40
40
00
40
40
40
E0
40
E0
ENDCHAR
STARTCHAR 0130
ENCODING 304
SWIDTH 308 0
DWIDTH 3 0
BBX 3 8 0 0
BITMAP
60
E0
60
60
60
60
60
E0
ENDCHAR
STARTCHAR 0131
ENCODING 305
SWIDTH 308 0
DWIDTH 3 0
BBX 3 4 0 1
BITMAP
40
40
40
E0
ENDCHAR
STARTCHAR 0132
ENCODING 306
SWIDTH 617 0
DWIDTH 6 0
BBX 6 9 0 -2
BITMAP
FC
6C
6C
6C
6C
6C
EC
08
08
ENDCHAR
STARTCHAR 0133
ENCODING 307
SWIDTH 514 0
DWIDTH 5 0
BBX 5 9 0 -2
BITMAP
48
48
00
48
48
48
E8
08
10
ENDCHAR
STARTCHAR 0134
ENCODING 308
SWIDTH 308 0
DWIDTH 3 0
BBX 3 10 0 -1
BITMAP
E0
E0
40
40
40
40
40
40
40
C0
ENDCHAR
STARTCHAR 0135
ENCODING 309
SWIDTH 308 0
DWIDTH 3 0
BBX 3 9 0 -2
BITMAP
40
A0
00
40
40
40
40
40
C0
ENDCHAR
STARTCHAR 0136
ENCODING 310
SWIDTH 720 0
DWIDTH 7 0
BBX 7 10 0 -3
BITMAP
EE
68
70
70
78
6C
EE
00
10
10
ENDCHAR
STARTCHAR 0137
ENCODING 311
SWIDTH 514 0
DWIDTH 5 0
BBX 6 10 0 -3
BITMAP
C0
40
40
48
50
58
EC
00
30
20
ENDCHAR
STARTCHAR 0138
ENCODING 312
SWIDTH 514 0
DWIDTH 5 0
BBX 6 4 0 1
BITMAP
58
70
58
EC
ENDCHAR
STARTCHAR 0139
ENCODING 313
SWIDTH 514 0
DWIDTH 5 0
BBX 6 9 0 0
BITMAP
20
40
E0
60
60
60
60
64
F8
ENDCHAR
STARTCHAR 013A
ENCODING 314
SWIDTH 308 0
DWIDTH 3 0
BBX 3 9 0 0
BITMAP
20
40
C0
40
40
40
40
40
E0
ENDCHAR
STARTCHAR 013B
ENCODING 315
SWIDTH 514 0
DWIDTH 5 0
BBX 6 10 0 -3
BITMAP
E0
60
60
60
60
64
F8
10
30
20
ENDCHAR
STARTCHAR 013C
ENCODING 316
SWIDTH 308 0
DWIDTH 3 0
BBX 3 10 0 -3
BITMAP
C0
40
40
40
40
40
E0
00
40
40
ENDCHAR
STARTCHAR 013D
ENCODING 317
SWIDTH 514 0
DWIDTH 5 0
BBX 6 7 0 0
BITMAP
EC
64
68
60
60
64
F8
ENDCHAR
STARTCHAR 013E
ENCODING 318
SWIDTH 411 0
DWIDTH 4 0
BBX 5 7 0 0
BITMAP
D8
50
50
40
40
40
E0
ENDCHAR
STARTCHAR 013F
ENCODING 319
SWIDTH 514 0
DWIDTH 5 0
BBX 6 7 0 0
BITMAP
E0
60
60
68
60
64
F8
ENDCHAR
STARTCHAR 0140
ENCODING 320
SWIDTH 308 0
DWIDTH 3 0
BBX 4 7 0 0
BITMAP
C0
40
40
50
40
40
E0
ENDCHAR
STARTCHAR 0141
ENCODING 321
SWIDTH 514 0
DWIDTH 5 0
BBX 6 7 0 0
BITMAP
E0
60
60
60
E0
64
F8
ENDCHAR
STARTCHAR 0142
ENCODING 322
SWIDTH 308 0
DWIDTH 3 0
BBX 3 7 0 0
BITMAP
C0
40
40
60
C0
40
E0
ENDCHAR
STARTCHAR 0143
ENCODING 323
SWIDTH 720 0
DWIDTH 7 0
BBX 7 9 0 0
BITMAP
08
10
C6
64
74
5C
5C
4C
C4
ENDCHAR
STARTCHAR 0144
ENCODING 324
SWIDTH 617 0
DWIDTH 6 0
BBX 6 7 0 0
BITMAP
10
10
00
78
4C
4C
EC
ENDCHAR
STARTCHAR 0145
ENCODING 325
SWIDTH 720 0
DWIDTH 7 0
BBX 7 10 0 -3
BITMAP
C6
64
74
5C
5C
4C
C4
00
18
10
ENDCHAR
STARTCHAR 0146
ENCODING 326
SWIDTH 617 0
DWIDTH 6 0
BBX 6 6 0 -2
BITMAP
78
4C
4C
EC
10
10
ENDCHAR
STARTCHAR 0147
ENCODING 327
SWIDTH 720 0
DWIDTH 7 0
BBX 7 9 0 0
BITMAP
20
18
C6
64
74
5C
5C
4C
C4
ENDCHAR
STARTCHAR 0148
ENCODING 328
SWIDTH 617 0
DWIDTH 6 0
BBX 6 7 0 0
BITMAP
68
30
00
78
4C
4C
EC
ENDCHAR
STARTCHAR 0149
ENCODING 329
SWIDTH 822 0
DWIDTH 8 0
BBX 7 7 1 0
BITMAP
80
80
80
3C
24
24
7E
ENDCHAR
STARTCHAR 014A
ENCODING 330
SWIDTH 617 0
DWIDTH 6 0
BBX 6 9 0 -2
BITMAP
08
74
64
64
64
64
E4
04
1C
ENDCHAR
STARTCHAR 014B
ENCODING 331
SWIDTH 617 0
DWIDTH 6 0
BBX 6 6 0 -1
BITMAP
78
4C
4C
E8
08
38
ENDCHAR
STARTCHAR 014C
ENCODING 332
SWIDTH 720 0
DWIDTH 7 0
BBX 7 8 0 0
BITMAP
38
18
64
46
C6
C6
44
3C
ENDCHAR
STARTCHAR 014D
ENCODING 333
SWIDTH 514 0
DWIDTH 5 0
BBX 5 6 0 0
BITMAP
70
20
58
C8
C8
70
ENDCHAR
STARTCHAR 014E
ENCODING 334
SWIDTH 720 0
DWIDTH 7 0
BBX 7 8 0 1
BITMAP
38
18
64
46
C6
C6
44
3C
ENDCHAR
STARTCHAR 014F
ENCODING 335
SWIDTH 514 0
DWIDTH 5 0
BBX 5 7 0 0
BITMAP
48
70
20
58
C8
C8
70
ENDCHAR
STARTCHAR 0150
ENCODING 336
SWIDTH 720 0
DWIDTH 7 0
BBX 7 9 0 0
BITMAP
14
28
18
64
46
C6
C6
44
3C
ENDCHAR
STARTCHAR 0151
ENCODING 337
SWIDTH 514 0
DWIDTH 5 0
BBX 5 7 0 0
BITMAP
28
50
20
58
C8
C8
70
ENDCHAR
STARTCHAR 0152
ENCODING 338
SWIDTH 925 0
DWIDTH 9 0
BBX 9 7 0 0
BITMAP
1F80
6C80
4400
C700
C600
4400
3F80
ENDCHAR
STARTCHAR 0153
ENCODING 339
SWIDTH 822 0
DWIDTH 8 0
BBX 8 5 0 0
BITMAP
24
5A
CF
C8
7F
ENDCHAR
STARTCHAR 0154
ENCODING 340
SWIDTH 617 0
DWIDTH 6 0
BBX 7 9 0 0
BITMAP
10
10
F8
6C
6C
68
78
6C
EE
ENDCHAR
STARTCHAR 0155
ENCODING 341
SWIDTH 411 0
DWIDTH 4 0
BBX 4 7 0 0
BITMAP
10
20
00
70
40
40
E0
ENDCHAR
STARTCHAR 0156
ENCODING 342
SWIDTH 617 0
DWIDTH 6 0
BBX 7 10 0 -3
BITMAP
F8
6C
6C
68
78
6C
EE
00
10
10
ENDCHAR
STARTCHAR 0157
ENCODING 343
SWIDTH 411 0
DWIDTH 4 0
BBX 4 7 0 -2
BITMAP
70
40
40
E0
00
60
40
ENDCHAR
STARTCHAR 0158
ENCODING 344
SWIDTH 617 0
DWIDTH 6 0
BBX 7 9 0 0
BITMAP
08
30
F8
6C
6C
68
78
6C
EE
ENDCHAR
STARTCHAR 0159
ENCODING 345
SWIDTH 411 0
DWIDTH 4 0
BBX 4 7 0 0
BITMAP
50
20
00
70
40
40
E0
ENDCHAR
STARTCHAR 015A
ENCODING 346
SWIDTH 514 0
DWIDTH 5 0
BBX 5 9 0 0
BITMAP
10
20
30
48
40
70
18
48
F8
ENDCHAR
STARTCHAR 015B
ENCODING 347
SWIDTH 411 0
DWIDTH 4 0
BBX 4 7 0 0
BITMAP
20
20
20
D0
60
B0
F0
ENDCHAR
STARTCHAR 015C
ENCODING 348
SWIDTH 514 0
DWIDTH 5 0
BBX 5 9 0 0
BITMAP
20
50
30
48
40
70
18
48
F8
ENDCHAR
STARTCHAR 015D
ENCODING 349
SWIDTH 411 0
DWIDTH 4 0
BBX 4 7 0 0
BITMAP
20
D0
20
D0
60
B0
F0
ENDCHAR
STARTCHAR 015E
ENCODING 350
SWIDTH 514 0
DWIDTH 5 0
BBX 5 9 0 -2
BITMAP
30
48
40
70
18
48
F8
20
30
ENDCHAR
STARTCHAR 015F
ENCODING 351
SWIDTH 411 0
DWIDTH 4 0
BBX 4 7 0 -2
BITMAP
20
D0
60
B0
F0
40
20
ENDCHAR
STARTCHAR 0160
ENCODING 352
SWIDTH 514 0
DWIDTH 5 0
BBX 5 9 0 0
BITMAP
40
30
30
48
40
70
18
48
F8
ENDCHAR
STARTCHAR 0161
ENCODING 353
SWIDTH 411 0
DWIDTH 4 0
BBX 4 7 0 0
BITMAP
90
60
20
D0
60
B0
F0
ENDCHAR
STARTCHAR 0162
ENCODING 354
SWIDTH 617 0
DWIDTH 6 0
BBX 6 9 0 -2
BITMAP
FC
B4
30
30
30
30
38
20
10
ENDCHAR
STARTCHAR 0163
ENCODING 355
SWIDTH 308 0
DWIDTH 3 0
BBX 2 8 1 -2
BITMAP
80
80
C0
80
80
C0
80
C0
ENDCHAR
STARTCHAR 0164
ENCODING 356
SWIDTH 617 0
DWIDTH 6 0
BBX 6 9 0 0
BITMAP
08
30
FC
B4
30
30
30
30
38
ENDCHAR
STARTCHAR 0165
ENCODING 357
SWIDTH 514 0
DWIDTH 5 0
BBX 4 7 1 0
BITMAP
10
90
90
C0
80
80
C0
ENDCHAR
STARTCHAR 0166
ENCODING 358
SWIDTH 617 0
DWIDTH 6 0
BBX 6 7 0 0
BITMAP
FC
B4
30
78
30
30
38
ENDCHAR
STARTCHAR 0167
ENCODING 359
SWIDTH 308 0
DWIDTH 3 0
BBX 3 6 0 0
BITMAP
40
40
60
E0
40
60
ENDCHAR
STARTCHAR 0168
ENCODING 360
SWIDTH 617 0
DWIDTH 6 0
BBX 6 8 0 0
BITMAP
38
EC
44
44
44
44
64
78
ENDCHAR
STARTCHAR 0169
ENCODING 361
SWIDTH 514 0
DWIDTH 5 0
BBX 5 7 1 0
BITMAP
40
20
00
90
90
90
F8
ENDCHAR
STARTCHAR 016A
ENCODING 362
SWIDTH 617 0
DWIDTH 6 0
BBX 6 8 0 0
BITMAP
3C
EC
44
44
44
44
64
78
ENDCHAR
STARTCHAR 016B
ENCODING 363
SWIDTH 514 0
DWIDTH 5 0
BBX 5 6 1 0
BITMAP
60
00
90
90
90
F8
ENDCHAR
STARTCHAR 016C
ENCODING 364
SWIDTH 617 0
DWIDTH 6 0
BBX 6 8 0 1
BITMAP
38
EC
44
44
44
44
64
78
ENDCHAR
STARTCHAR 016D
ENCODING 365
SWIDTH 514 0
DWIDTH 5 0
BBX 5 7 1 0
BITMAP
90
60
00
90
90
90
F8
ENDCHAR
STARTCHAR 016E
ENCODING 366
SWIDTH 617 0
DWIDTH 6 0
BBX 6 9 0 0
BITMAP
10
28
FC
44
44
44
44
64
78
ENDCHAR
STARTCHAR 016F
ENCODING 367
SWIDTH 514 0
DWIDTH 5 0
BBX 5 7 1 0
BITMAP
60
60
00
90
90
90
F8
ENDCHAR
STARTCHAR 0170
ENCODING 368
SWIDTH 617 0
DWIDTH 6 0
BBX 6 9 0 0
BITMAP
14
28
EC
44
44
44
44
64
78
ENDCHAR
STARTCHAR 0171
ENCODING 369
SWIDTH 514 0
DWIDTH 5 0
BBX 5 7 1 0
BITMAP
50
20
00
90
90
90
F8
ENDCHAR
STARTCHAR 0172
ENCODING 370
SWIDTH 617 0
DWIDTH 6 0
BBX 6 9 0 -2
BITMAP
EC
44
44
44
44
64
78
10
18
ENDCHAR
STARTCHAR 0173
ENCODING 371
SWIDTH 514 0
DWIDTH 5 0
BBX 5 6 1 -1
BITMAP
90
90
90
F8
10
38
ENDCHAR
STARTCHAR 0174
ENCODING 372
SWIDTH 925 0
DWIDTH 9 0
BBX 9 9 0 0
BITMAP
0400
0E00
E580
4480
6C80
7700
3300
3300
2200
ENDCHAR
STARTCHAR 0175
ENCODING 373
SWIDTH 720 0
DWIDTH 7 0
BBX 6 7 1 0
BITMAP
10
68
10
94
F4
D8
48
ENDCHAR
STARTCHAR 0176
ENCODING 374
SWIDTH 617 0
DWIDTH 6 0
BBX 6 9 0 0
BITMAP
10
28
EC
68
68
30
30
30
78
ENDCHAR
STARTCHAR 0177
ENCODING 375
SWIDTH 514 0
DWIDTH 5 0
BBX 5 9 0 -2
BITMAP
10
68
00
48
70
30
20
20
E0
ENDCHAR
STARTCHAR 0178
ENCODING 376
SWIDTH 617 0
DWIDTH 6 0
BBX 6 8 0 0
BITMAP
28
EC
68
68
30
30
30
78
ENDCHAR
STARTCHAR 0179
ENCODING 377
SWIDTH 514 0
DWIDTH 5 0
BBX 5 9 0 0
BITMAP
10
10
78
58
10
30
20
60
F8
ENDCHAR
STARTCHAR 017A
ENCODING 378
SWIDTH 411 0
DWIDTH 4 0
BBX 5 7 0 0
BITMAP
10
20
00
F0
30
68
F8
ENDCHAR
STARTCHAR 017B
ENCODING 379
SWIDTH 514 0
DWIDTH 5 0
BBX 5 8 0 0
BITMAP
30
78
58
10
30
20
60
F8
ENDCHAR
STARTCHAR 017C
ENCODING 380
SWIDTH 411 0
DWIDTH 4 0
BBX 5 6 0 0
BITMAP
20
00
F0
30
68
F8
ENDCHAR
STARTCHAR 017D
ENCODING 381
SWIDTH 514 0
DWIDTH 5 0
BBX 5 8 0 1
BITMAP
30
78
58
10
30
20
60
F8
ENDCHAR
STARTCHAR 017E
ENCODING 382
SWIDTH 411 0
DWIDTH 4 0
BBX 5 7 0 0
BITMAP
50
20
00
F0
30
68
F8
ENDCHAR
STARTCHAR 017F
ENCODING 383
SWIDTH 308 0
DWIDTH 3 0
BBX 4 7 0 0
BITMAP
30
40
40
40
40
40
E0
ENDCHAR
STARTCHAR 018E
ENCODING 398
SWIDTH 617 0
DWIDTH 6 0
BBX 6 7 0 0
BITMAP
7C
58
18
38
18
98
7C
ENDCHAR
STARTCHAR 018F
ENCODING 399
SWIDTH 617 0
DWIDTH 6 0
BBX 6 7 0 0
BITMAP
70
4C
04
04
FC
4C
78
ENDCHAR
STARTCHAR 0192
ENCODING 402
SWIDTH 411 0
DWIDTH 4 0
BBX 7 9 -2 -2
BITMAP
0E
0A
18
18
10
10
10
10
E0
ENDCHAR
STARTCHAR 019D
ENCODING 413
SWIDTH 720 0
DWIDTH 7 0
BBX 8 9 -1 -2
BITMAP
63
32
3A
2E
2E
26
22
20
C0
ENDCHAR
STARTCHAR 01A0
ENCODING 416
SWIDTH 720 0
DWIDTH 7 0
BBX 7 8 0 0
BITMAP
02
1E
64
46
C6
C6
44
3C
ENDCHAR
STARTCHAR 01A1
ENCODING 417
SWIDTH 514 0
DWIDTH 5 0
BBX 5 6 0 0
BITMAP
08
28
58
C8
C8
70
ENDCHAR
STARTCHAR 01AF
ENCODING 431
SWIDTH 720 0
DWIDTH 7 0
BBX 7 8 0 0
BITMAP
02
EE
44
44
44
44
64
78
ENDCHAR
STARTCHAR 01B0
ENCODING 432
SWIDTH 617 0
DWIDTH 6 0
BBX 5 6 1 0
BITMAP
08
08
90
90
90
F8
ENDCHAR
STARTCHAR 01B7
ENCODING 439
SWIDTH 514 0
DWIDTH 5 0
BBX 5 7 0 0
BITMAP
78
58
10
30
08
88
78
ENDCHAR
STARTCHAR 01C4
ENCODING 452
SWIDTH 1337 0
DWIDTH 13 0
BBX 13 9 0 0
BITMAP
0010
0060
F0F0
6CB0
6630
6660
6640
64C8
F8F0
ENDCHAR
STARTCHAR 01C5
ENCODING 453
SWIDTH 1234 0
DWIDTH 12 0
BBX 12 7 0 0
BITMAP
F0A0
6C40
6600
66E0
6660
64D0
F8F0
ENDCHAR
STARTCHAR 01C6
ENCODING 454
SWIDTH 1028 0
DWIDTH 10 0
BBX 11 7 0 0
BITMAP
1940
0880
0800
7BC0
C880
C980
7FE0
ENDCHAR
STARTCHAR 01C7
ENCODING 455
SWIDTH 925 0
DWIDTH 9 0
BBX 9 9 0 -2
BITMAP
E380
6100
6100
6100
6100
6500
F900
0100
0200
ENDCHAR
STARTCHAR 01C8
ENCODING 456
SWIDTH 822 0
DWIDTH 8 0
BBX 8 9 0 -2
BITMAP
E1
61
60
61
61
65
F9
01
02
ENDCHAR
STARTCHAR 01C9
ENCODING 457
SWIDTH 617 0
DWIDTH 6 0
BBX 6 9 0 -2
BITMAP
CC
4C
44
4C
4C
4C
EC
0C
08
ENDCHAR
STARTCHAR 01CA
ENCODING 458
SWIDTH 1028 0
DWIDTH 10 0
BBX 10 9 0 -2
BITMAP
C7C0
64C0
74C0
5CC0
5CC0
4CC0
C480
0080
0180
ENDCHAR
STARTCHAR 01CB
ENCODING 459
SWIDTH 1028 0
DWIDTH 10 0
BBX 9 9 0 -2
BITMAP
C680
6480
7400
5C80
5C80
4C80
C480
0080
0080
ENDCHAR
STARTCHAR 01CC
ENCODING 460
SWIDTH 925 0
DWIDTH 9 0
BBX 9 9 0 -2
BITMAP
0180
0180
0080
7980
4D80
4D80
ED80
0180
0100
ENDCHAR
STARTCHAR 01CD
ENCODING 461
SWIDTH 617 0
DWIDTH 6 0
BBX 7 9 0 0
BITMAP
08
30
10
10
38
58
48
7C
CE
ENDCHAR
STARTCHAR 01CE
ENCODING 462
SWIDTH 514 0
DWIDTH 5 0
BBX 4 7 1 0
BITMAP
A0
40
00
E0
30
E0
F0
ENDCHAR
STARTCHAR 01CF
ENCODING 463
SWIDTH 308 0
DWIDTH 3 0
BBX 3 8 0 1
BITMAP
60
E0
60
60
60
60
60
E0
ENDCHAR
STARTCHAR 01D0
ENCODING 464
SWIDTH 308 0
DWIDTH 3 0
BBX 3 7 0 0
BITMAP
A0
40
00
40
40
40
E0
ENDCHAR
STARTCHAR 01D1
ENCODING 465
SWIDTH 720 0
DWIDTH 7 0
BBX 7 9 0 0
BITMAP
20
18
18
64
46
C6
C6
44
3C
ENDCHAR
STARTCHAR 01D2
ENCODING 466
SWIDTH 514 0
DWIDTH 5 0
BBX 5 7 0 0
BITMAP
50
20
20
58
C8
C8
70
ENDCHAR
STARTCHAR 01D3
ENCODING 467
SWIDTH 617 0
DWIDTH 6 0
BBX 6 9 0 0
BITMAP
20
18
EC
44
44
44
44
64
78
ENDCHAR
STARTCHAR 01D4
ENCODING 468
SWIDTH 514 0
DWIDTH 5 0
BBX 5 7 1 0
BITMAP
90
60
00
90
90
90
F8
ENDCHAR
STARTCHAR 01D5
ENCODING 469
SWIDTH 617 0
DWIDTH 6 0
BBX 6 10 0 0
BITMAP
3C
00
2C
EC
44
44
44
44
64
78
ENDCHAR
STARTCHAR 01D6
ENCODING 470
SWIDTH 514 0
DWIDTH 5 0
BBX 5 8 1 0
BITMAP
F0
00
F0
00
90
90
90
F8
ENDCHAR
STARTCHAR 01D7
ENCODING 471
SWIDTH 617 0
DWIDTH 6 0
BBX 6 10 0 0
BITMAP
18
00
2C
EC
44
44
44
44
64
78
ENDCHAR
STARTCHAR 01D8
ENCODING 472
SWIDTH 514 0
DWIDTH 5 0
BBX 5 8 1 0
BITMAP
20
00
F0
00
90
90
90
F8
ENDCHAR
STARTCHAR 01D9
ENCODING 473
SWIDTH 617 0
DWIDTH 6 0
BBX 6 10 0 0
BITMAP
38
00
2C
EC
44
44
44
44
64
78
ENDCHAR
STARTCHAR 01DA
ENCODING 474
SWIDTH 514 0
DWIDTH 5 0
BBX 5 8 1 0
BITMAP
60
00
F0
00
90
90
90
F8
ENDCHAR
STARTCHAR 01DB
ENCODING 475
SWIDTH 617 0
DWIDTH 6 0
BBX 6 10 0 0
BITMAP
10
00
2C
EC
44
44
44
44
64
78
ENDCHAR
STARTCHAR 01DC
ENCODING 476
SWIDTH 514 0
DWIDTH 5 0
BBX 5 8 1 0
BITMAP
40
00
F0
00
90
90
90
F8
ENDCHAR
STARTCHAR 01DD
ENCODING 477
SWIDTH 411 0
DWIDTH 4 0
BBX 5 5 0 0
BITMAP
20
D0
18
F8
70
ENDCHAR
STARTCHAR 01E4
ENCODING 484
SWIDTH 617 0
DWIDTH 6 0
BBX 7 7 0 0
BITMAP
18
64
40
C0
CC
4E
3C
ENDCHAR
STARTCHAR 01E5
ENCODING 485
SWIDTH 514 0
DWIDTH 5 0
BBX 5 7 0 -2
BITMAP
20
58
D8
60
78
58
F8
ENDCHAR
STARTCHAR 01E6
ENCODING 486
SWIDTH 617 0
DWIDTH 6 0
BBX 6 9 0 0
BITMAP
20
18
18
64
40
C0
CC
44
3C
ENDCHAR
STARTCHAR 01E7
ENCODING 487
SWIDTH 514 0
DWIDTH 5 0
BBX 5 9 0 -2
BITMAP
50
20
20
58
D8
60
78
58
F8
ENDCHAR
STARTCHAR 01E8
ENCODING 488
SWIDTH 720 0
DWIDTH 7 0
BBX 7 9 0 0
BITMAP
20
18
EE
68
70
70
78
6C
EE
ENDCHAR
STARTCHAR 01E9
ENCODING 489
SWIDTH 514 0
DWIDTH 5 0
BBX 6 8 0 1
BITMAP
30
C0
40
40
48
50
58
EC
ENDCHAR
STARTCHAR 01EA
ENCODING 490
SWIDTH 720 0
DWIDTH 7 0
BBX 7 9 0 -2
BITMAP
18
64
46
C6
C6
44
3C
10
18
ENDCHAR
STARTCHAR 01EB
ENCODING 491
SWIDTH 514 0
DWIDTH 5 0
BBX 5 7 0 -2
BITMAP
20
58
C8
C8
70
20
70
ENDCHAR
STARTCHAR 01EE
ENCODING 494
SWIDTH 514 0
DWIDTH 5 0
BBX 5 9 0 0
BITMAP
40
30
78
58
10
30
08
88
78
ENDCHAR
STARTCHAR 01EF
ENCODING 495
SWIDTH 514 0
DWIDTH 5 0
BBX 5 9 0 -2
BITMAP
50
20
00
F0
30
60
18
18
F0
ENDCHAR
STARTCHAR 01F1
ENCODING 497
SWIDTH 1337 0
DWIDTH 13 0
BBX 13 7 0 0
BITMAP
F0F0
6CB0
6630
6660
6640
64C8
F8F0
ENDCHAR
STARTCHAR 01F2
ENCODING 498
SWIDTH 1234 0
DWIDTH 12 0
BBX 12 7 0 0
BITMAP
F000
6C00
6600
66E0
6660
64D0
F8F0
ENDCHAR
STARTCHAR 01F3
ENCODING 499
SWIDTH 1028 0
DWIDTH 10 0
BBX 11 7 0 0
BITMAP
1800
0800
0800
7BC0
C880
C980
7FE0
ENDCHAR
STARTCHAR 01FA
ENCODING 506
SWIDTH 617 0
DWIDTH 6 0
BBX 7 11 0 0
BITMAP
18
10
10
30
10
10
38
58
48
7C
CE
ENDCHAR
STARTCHAR 01FB
ENCODING 507
SWIDTH 514 0
DWIDTH 5 0
BBX 4 8 1 0
BITMAP
40
00
E0
40
E0
30
E0
F0
ENDCHAR
STARTCHAR 01FC
ENCODING 508
SWIDTH 925 0
DWIDTH 9 0
BBX 9 9 0 0
BITMAP
0400
0400
1F00
0C80
1C00
2D00
3F00
4C80
CF80
ENDCHAR
STARTCHAR 01FD
ENCODING 509
SWIDTH 720 0
DWIDTH 7 0
BBX 7 7 0 0
BITMAP
08
10
20
5E
3E
D0
FE
ENDCHAR
STARTCHAR 01FE
ENCODING 510
SWIDTH 720 0
DWIDTH 7 0
BBX 7 9 0 0
BITMAP
08
10
1A
64
4E
D6
D6
64
7C
ENDCHAR
STARTCHAR 01FF
ENCODING 511
SWIDTH 514 0
DWIDTH 5 0
BBX 5 7 0 0
BITMAP
10
20
28
58
E8
E8
70
ENDCHAR
STARTCHAR 0200
ENCODING 512
SWIDTH 617 0
DWIDTH 6 0
BBX 7 8 0 0
BITMAP
30
10
10
38
58
48
7C
CE
ENDCHAR
STARTCHAR 0201
ENCODING 513
SWIDTH 514 0
DWIDTH 5 0
BBX 4 7 1 0
BITMAP
E0
A0
00
E0
30
E0
F0
ENDCHAR
STARTCHAR 0202
ENCODING 514
SWIDTH 617 0
DWIDTH 6 0
BBX 7 8 0 1
BITMAP
38
10
10
38
58
48
7C
CE
ENDCHAR
STARTCHAR 0203
ENCODING 515
SWIDTH 514 0
DWIDTH 5 0
BBX 4 7 1 0
BITMAP
E0
20
00
E0
30
E0
F0
ENDCHAR
STARTCHAR 0204
ENCODING 516
SWIDTH 617 0
DWIDTH 6 0
BBX 6 8 0 0
BITMAP
50
F8
68
60
70
60
64
FC
ENDCHAR
STARTCHAR 0205
ENCODING 517
SWIDTH 411 0
DWIDTH 4 0
BBX 5 7 0 0
BITMAP
50
10
20
50
F8
C0
70
ENDCHAR
STARTCHAR 0206
ENCODING 518
SWIDTH 617 0
DWIDTH 6 0
BBX 6 8 0 1
BITMAP
70
F8
68
60
70
60
64
FC
ENDCHAR
STARTCHAR 0207
ENCODING 519
SWIDTH 411 0
DWIDTH 4 0
BBX 5 7 0 0
BITMAP
70
00
20
50
F8
C0
70
ENDCHAR
STARTCHAR 0208
ENCODING 520
SWIDTH 308 0
DWIDTH 3 0
BBX 3 8 0 0
BITMAP
A0
E0
60
60
60
60
60
E0
ENDCHAR
STARTCHAR 0209
ENCODING 521
SWIDTH 308 0
DWIDTH 3 0
BBX 3 7 0 0
BITMAP
A0
20
00
40
40
40
E0
ENDCHAR
STARTCHAR 020A
ENCODING 522
SWIDTH 308 0
DWIDTH 3 0
BBX 3 8 0 0
BITMAP
E0
E0
60
60
60
60
60
E0
ENDCHAR
STARTCHAR 020B
ENCODING 523
SWIDTH 308 0
DWIDTH 3 0
BBX 3 7 0 0
BITMAP
60
A0
00
40
40
40
E0
ENDCHAR
STARTCHAR 020C
ENCODING 524
SWIDTH 720 0
DWIDTH 7 0
BBX 7 8 0 0
BITMAP
28
18
64
46
C6
C6
44
3C
ENDCHAR
STARTCHAR 020D
ENCODING 525
SWIDTH 514 0
DWIDTH 5 0
BBX 5 7 0 0
BITMAP
50
10
20
58
C8
C8
70
ENDCHAR
STARTCHAR 020E
ENCODING 526
SWIDTH 720 0
DWIDTH 7 0
BBX 7 8 0 1
BITMAP
38
18
64
46
C6
C6
44
3C
ENDCHAR
STARTCHAR 020F
ENCODING 527
SWIDTH 514 0
DWIDTH 5 0
BBX 5 7 0 0
BITMAP
70
48
20
58
C8
C8
70
ENDCHAR
STARTCHAR 0210
ENCODING 528
SWIDTH 617 0
DWIDTH 6 0
BBX 7 8 0 0
BITMAP
30
F8
6C
6C
68
78
6C
EE
ENDCHAR
STARTCHAR 0211
ENCODING 529
SWIDTH 411 0
DWIDTH 4 0
BBX 4 7 0 0
BITMAP
70
50
00
70
40
40
E0
ENDCHAR
STARTCHAR 0212
ENCODING 530
SWIDTH 617 0
DWIDTH 6 0
BBX 7 8 0 1
BITMAP
38
F8
6C
6C
68
78
6C
EE
ENDCHAR
STARTCHAR 0213
ENCODING 531
SWIDTH 411 0
DWIDTH 4 0
BBX 4 7 0 0
BITMAP
70
10
00
70
40
40
E0
ENDCHAR
STARTCHAR 0214
ENCODING 532
SWIDTH 617 0
DWIDTH 6 0
BBX 6 8 0 0
BITMAP
28
EC
44
44
44
44
64
78
ENDCHAR
STARTCHAR 0215
ENCODING 533
SWIDTH 514 0
DWIDTH 5 0
BBX 5 7 1 0
BITMAP
A0
40
00
90
90
90
F8
ENDCHAR
STARTCHAR 0216
ENCODING 534
SWIDTH 617 0
DWIDTH 6 0
BBX 6 8 0 1
BITMAP
38
EC
44
44
44
44
64
78
ENDCHAR
STARTCHAR 0217
ENCODING 535
SWIDTH 514 0
DWIDTH 5 0
BBX 5 7 1 0
BITMAP
60
90
00
90
90
90
F8
ENDCHAR
STARTCHAR 0218
ENCODING 536
SWIDTH 514 0
DWIDTH 5 0
BBX 5 10 0 -3
BITMAP
30
48
40
70
18
48
F8
00
30
20
ENDCHAR
STARTCHAR 0219
ENCODING 537
SWIDTH 411 0
DWIDTH 4 0
BBX 4 7 0 -3
BITMAP
20
D0
60
B0
F0
20
20
ENDCHAR
STARTCHAR 021A
ENCODING 538
SWIDTH 617 0
DWIDTH 6 0
BBX 6 9 0 -3
BITMAP
FC
B4
30
30
30
30
38
10
10
ENDCHAR
STARTCHAR 021B
ENCODING 539
SWIDTH 308 0
DWIDTH 3 0
BBX 2 9 1 -3
BITMAP
80
80
C0
80
80
C0
40
40
80
ENDCHAR
STARTCHAR 021C
ENCODING 540
SWIDTH 514 0
DWIDTH 5 0
BBX 4 9 1 -2
BITMAP
E0
B0
30
20
F0
10
10
30
C0
ENDCHAR
STARTCHAR 021D
ENCODING 541
SWIDTH 411 0
DWIDTH 4 0
BBX 5 7 0 -2
BITMAP
20
D0
10
20
10
18
70
ENDCHAR
STARTCHAR 021E
ENCODING 542
SWIDTH 720 0
DWIDTH 7 0
BBX 7 9 0 0
BITMAP
20
18
EE
64
64
7C
64
64
EE
ENDCHAR
STARTCHAR 021F
ENCODING 543
SWIDTH 617 0
DWIDTH 6 0
BBX 6 8 0 1
BITMAP
30
C0
40
40
78
48
48
FC
ENDCHAR
STARTCHAR 0228
ENCODING 552
SWIDTH 617 0
DWIDTH 6 0
BBX 6 9 0 -2
BITMAP
F8
68
60
70
60
64
FC
20
10
ENDCHAR
STARTCHAR 0229
ENCODING 553
SWIDTH 411 0
DWIDTH 4 0
BBX 5 7 0 -2
BITMAP
20
50
F8
C0
70
20
30
ENDCHAR
STARTCHAR 022A
ENCODING 554
SWIDTH 720 0
DWIDTH 7 0
BBX 7 10 0 0
BITMAP
38
00
28
18
64
46
C6
C6
44
3C
ENDCHAR
STARTCHAR 022B
ENCODING 555
SWIDTH 514 0
DWIDTH 5 0
BBX 5 8 0 0
BITMAP
78
00
58
20
58
C8
C8
70
ENDCHAR
STARTCHAR 022C
ENCODING 556
SWIDTH 720 0
DWIDTH 7 0
BBX 7 10 0 0
BITMAP
38
00
38
18
64
46
C6
C6
44
3C
ENDCHAR
STARTCHAR 022D
ENCODING 557
SWIDTH 514 0
DWIDTH 5 0
BBX 5 8 0 0
BITMAP
78
00
70
20
58
C8
C8
70
ENDCHAR
STARTCHAR 0230
ENCODING 560
SWIDTH 720 0
DWIDTH 7 0
BBX 7 9 0 0
BITMAP
38
10
18
64
46
C6
C6
44
3C
ENDCHAR
STARTCHAR 0231
ENCODING 561
SWIDTH 514 0
DWIDTH 5 0
BBX 5 7 0 0
BITMAP
70
30
20
58
C8
C8
70
ENDCHAR
STARTCHAR 0232
ENCODING 562
SWIDTH 617 0
DWIDTH 6 0
BBX 6 8 0 0
BITMAP
38
EC
68
68
30
30
30
78
ENDCHAR
STARTCHAR 0233
ENCODING 563
SWIDTH 514 0
DWIDTH 5 0
BBX 5 8 0 -2
BITMAP
30
00
48
70
30
20
20
E0
ENDCHAR
STARTCHAR 0237
ENCODING 567
SWIDTH 308 0
DWIDTH 3 0
BBX 2 6 0 -1
BITMAP
40
40
40
40
40
C0
ENDCHAR
STARTCHAR 0258
ENCODING 600
SWIDTH 411 0
DWIDTH 4 0
BBX 5 5 0 0
BITMAP
20
50
F8
18
F0
ENDCHAR
STARTCHAR 0259
ENCODING 601
SWIDTH 411 0
DWIDTH 4 0
BBX 5 5 0 0
BITMAP
20
D0
18
F8
70
ENDCHAR
STARTCHAR 0272
ENCODING 626
SWIDTH 617 0
DWIDTH 6 0
BBX 6 6 0 -1
BITMAP
78
48
48
4C
40
C0
ENDCHAR
STARTCHAR 0292
ENCODING 658
SWIDTH 514 0
DWIDTH 5 0
BBX 5 6 0 -2
BITMAP
F0
30
60
18
18
F0
ENDCHAR
STARTCHAR 02B9
ENCODING 697
SWIDTH 205 0
DWIDTH 2 0
BBX 1 2 1 4
BITMAP
80
80
ENDCHAR
STARTCHAR 02BA
ENCODING 698
SWIDTH 411 0
DWIDTH 4 0
BBX 3 3 1 4
BITMAP
A0
A0
40
ENDCHAR
STARTCHAR 02BB
ENCODING 699
SWIDTH 205 0
DWIDTH 2 0
BBX 1 3 1 4
BITMAP
80
80
80
ENDCHAR
STARTCHAR 02BC
ENCODING 700
SWIDTH 205 0
DWIDTH 2 0
BBX 1 3 1 4
BITMAP
80
80
80
ENDCHAR
STARTCHAR 02BE
ENCODING 702
SWIDTH 205 0
DWIDTH 2 0
BBX 2 3 0 4
BITMAP
C0
40
C0
ENDCHAR
STARTCHAR 02BF
ENCODING 703
SWIDTH 205 0
DWIDTH 2 0
BBX 2 3 0 4
BITMAP
40
80
40
ENDCHAR
STARTCHAR 02C6
ENCODING 710
SWIDTH 205 0
DWIDTH 2 0
BBX 3 2 0 5
BITMAP
40
A0
ENDCHAR
STARTCHAR 02C7
ENCODING 711
SWIDTH 205 0
DWIDTH 2 0
BBX 3 2 0 5
BITMAP
A0
40
ENDCHAR
STARTCHAR 02C8
ENCODING 712
SWIDTH 205 0
DWIDTH 2 0
BBX 1 3 1 4
BITMAP
80
80
80
ENDCHAR
STARTCHAR 02C9
ENCODING 713
SWIDTH 411 0
DWIDTH 4 0
BBX 2 1 1 5
BITMAP
C0
ENDCHAR
STARTCHAR 02CA
ENCODING 714
SWIDTH 205 0
DWIDTH 2 0
BBX 1 1 2 5
BITMAP
80
ENDCHAR
STARTCHAR 02CB
ENCODING 715
SWIDTH 205 0
DWIDTH 2 0
BBX 1 2 2 5
BITMAP
80
80
ENDCHAR
STARTCHAR 02CC
ENCODING 716
SWIDTH 205 0
DWIDTH 2 0
BBX 1 3 1 -2
BITMAP
80
80
80
ENDCHAR
STARTCHAR 02D8
ENCODING 728
SWIDTH 205 0
DWIDTH 2 0
BBX 3 1 0 6
BITMAP
E0
ENDCHAR
STARTCHAR 02D9
ENCODING 729
SWIDTH 205 0
DWIDTH 2 0
BBX 1 1 1 5
BITMAP
80
ENDCHAR
STARTCHAR 02DA
ENCODING 730
SWIDTH 205 0
DWIDTH 2 0
BBX 3 2 0 5
BITMAP
E0
C0
ENDCHAR
STARTCHAR 02DB
ENCODING 731
SWIDTH 205 0
DWIDTH 2 0
BBX 2 2 0 -2
BITMAP
C0
C0
ENDCHAR
STARTCHAR 02DC
ENCODING 732
SWIDTH 205 0
DWIDTH 2 0
BBX 3 2 0 5
BITMAP
80
60
ENDCHAR
STARTCHAR 02DD
ENCODING 733
SWIDTH 205 0
DWIDTH 2 0
BBX 3 2 0 5
BITMAP
A0
40
ENDCHAR
STARTCHAR 0300
ENCODING 768
SWIDTH 0 0
DWIDTH 0 0
BBX 1 1 1 5
BITMAP
80
ENDCHAR
STARTCHAR 0301
ENCODING 769
SWIDTH 0 0
DWIDTH 0 0
BBX 1 1 1 5
BITMAP
80
ENDCHAR
STARTCHAR 0302
ENCODING 770
SWIDTH 0 0
DWIDTH 0 0
BBX 3 2 1 5
BITMAP
40
A0
ENDCHAR
STARTCHAR 0303
ENCODING 771
SWIDTH 0 0
DWIDTH 0 0
BBX 3 2 1 5
BITMAP
80
60
ENDCHAR
STARTCHAR 0304
ENCODING 772
SWIDTH 0 0
DWIDTH 0 0
BBX 2 1 1 5
BITMAP
C0
ENDCHAR
STARTCHAR 0306
ENCODING 774
SWIDTH 0 0
DWIDTH 0 0
BBX 4 2 0 5
BITMAP
90
70
ENDCHAR
STARTCHAR 0307
ENCODING 775
SWIDTH 0 0
DWIDTH 0 0
BBX 1 1 1 5
BITMAP
80
ENDCHAR
STARTCHAR 0308
ENCODING 776
SWIDTH 0 0
DWIDTH 0 0
BBX 3 1 1 5
BITMAP
A0
ENDCHAR
STARTCHAR 0309
ENCODING 777
SWIDTH 0 0
DWIDTH 0 0
BBX 2 2 1 5
BITMAP
C0
80
ENDCHAR
STARTCHAR 030A
ENCODING 778
SWIDTH 0 0
DWIDTH 0 0
BBX 3 2 0 5
BITMAP
E0
60
ENDCHAR
STARTCHAR 030B
ENCODING 779
SWIDTH 0 0
DWIDTH 0 0
BBX 3 2 1 5
BITMAP
A0
40
ENDCHAR
STARTCHAR 030C
ENCODING 780
SWIDTH 0 0
DWIDTH 0 0
BBX 4 2 0 5
BITMAP
D0
60
ENDCHAR
STARTCHAR 030F
ENCODING 783
SWIDTH 0 0
DWIDTH 0 0
BBX 3 2 1 5
BITMAP
A0
20
ENDCHAR
STARTCHAR 0311
ENCODING 785
SWIDTH 0 0
DWIDTH 0 0
BBX 3 2 1 5
BITMAP
E0
20
ENDCHAR
STARTCHAR 0312
ENCODING 786
SWIDTH 0 0
DWIDTH 0 0
BBX 2 2 0 5
BITMAP
40
C0
ENDCHAR
STARTCHAR 0313
ENCODING 787
SWIDTH 0 0
DWIDTH 0 0
BBX 1 2 1 5
BITMAP
80
80
ENDCHAR
STARTCHAR 031B
ENCODING 795
SWIDTH 0 0
DWIDTH 0 0
BBX 1 2 0 4
BITMAP
80
80
ENDCHAR
STARTCHAR 0323
ENCODING 803
SWIDTH 0 0
DWIDTH 0 0
BBX 2 1 0 -2
BITMAP
C0
ENDCHAR
STARTCHAR 0324
ENCODING 804
SWIDTH 0 0
DWIDTH 0 0
BBX 4 1 0 -2
BITMAP
D0
ENDCHAR
STARTCHAR 0325
ENCODING 805
SWIDTH 0 0
DWIDTH 0 0
BBX 3 2 0 -2
BITMAP
40
E0
ENDCHAR
STARTCHAR 0326
ENCODING 806
SWIDTH 0 0
DWIDTH 0 0
BBX 1 3 1 -3
BITMAP
80
80
80
ENDCHAR
STARTCHAR 0327
ENCODING 807
SWIDTH 0 0
DWIDTH 0 0
BBX 2 2 0 -2
BITMAP
80
40
ENDCHAR
STARTCHAR 0328
ENCODING 808
SWIDTH 0 0
DWIDTH 0 0
BBX 3 2 0 -2
BITMAP
40
E0
ENDCHAR
STARTCHAR 032E
ENCODING 814
SWIDTH 0 0
DWIDTH 0 0
BBX 2 1 1 -1
BITMAP
C0
ENDCHAR
STARTCHAR 0331
ENCODING 817
SWIDTH 0 0
DWIDTH 0 0
BBX 4 1 0 -2
BITMAP
F0
ENDCHAR
STARTCHAR 0335
ENCODING 821
SWIDTH 0 0
DWIDTH 0 0
BBX 3 1 1 3
BITMAP
E0
ENDCHAR
STARTCHAR 0336
ENCODING 822
SWIDTH 0 0
DWIDTH 0 0
BBX 6 1 1 2
BITMAP
FC
ENDCHAR
STARTCHAR 0337
ENCODING 823
SWIDTH 0 0
DWIDTH 0 0
BBX 4 3 1 2
BITMAP
10
60
80
ENDCHAR
STARTCHAR 0338
ENCODING 824
SWIDTH 0 0
DWIDTH 0 0
BBX 4 3 1 2
BITMAP
10
60
80
ENDCHAR
STARTCHAR 0374
ENCODING 884
SWIDTH 205 0
DWIDTH 2 0
BBX 1 2 1 4
BITMAP
80
80
ENDCHAR
STARTCHAR 0375
ENCODING 885
SWIDTH 205 0
DWIDTH 2 0
BBX 1 2 1 -1
BITMAP
80
80
ENDCHAR
STARTCHAR 037E
ENCODING 894
SWIDTH 205 0
DWIDTH 2 0
BBX 1 6 1 -2
BITMAP
80
80
00
00
80
80
ENDCHAR
STARTCHAR 0384
ENCODING 900
SWIDTH 205 0
DWIDTH 2 0
BBX 1 2 1 5
BITMAP
80
80
ENDCHAR
STARTCHAR 0385
ENCODING 901
SWIDTH 205 0
DWIDTH 2 0
BBX 3 2 0 5
BITMAP
40
E0
ENDCHAR
STARTCHAR 0386
ENCODING 902
SWIDTH 617 0
DWIDTH 6 0
BBX 7 7 0 0
BITMAP
50
90
38
58
48
7C
CE
ENDCHAR
STARTCHAR 0387
ENCODING 903
SWIDTH 205 0
DWIDTH 2 0
BBX 1 1 1 4
BITMAP
80
ENDCHAR
STARTCHAR 0388
ENCODING 904
SWIDTH 617 0
DWIDTH 6 0
BBX 7 7 -1 0
BITMAP
FC
B4
30
38
30
32
7E
ENDCHAR
STARTCHAR 0389
ENCODING 905
SWIDTH 720 0
DWIDTH 7 0
BBX 8 7 -1 0
BITMAP
F7
B2
32
3E
32
32
77
ENDCHAR
STARTCHAR 038A
ENCODING 906
SWIDTH 308 0
DWIDTH 3 0
BBX 4 7 -1 0
BITMAP
F0
B0
30
30
30
30
70
ENDCHAR
STARTCHAR 038C
ENCODING 908
SWIDTH 720 0
DWIDTH 7 0
BBX 8 7 -1 0
BITMAP
8C
B2
23
63
63
22
1E
ENDCHAR
STARTCHAR 038E
ENCODING 910
SWIDTH 617 0
DWIDTH 6 0
BBX 8 7 -2 0
BITMAP
7B
9A
1A
0C
0C
0C
1E
ENDCHAR
STARTCHAR 038F
ENCODING 911
SWIDTH 822 0
DWIDTH 8 0
BBX 8 7 0 0
BITMAP
98
E6
42
42
42
A5
77
ENDCHAR
STARTCHAR 0390
ENCODING 912
SWIDTH 308 0
DWIDTH 3 0
BBX 4 7 0 0
BITMAP
60
D0
00
40
40
40
60
ENDCHAR
STARTCHAR 0391
ENCODING 913
SWIDTH 617 0
DWIDTH 6 0
BBX 7 7 0 0
BITMAP
10
10
38
58
48
7C
CE
ENDCHAR
STARTCHAR 0392
ENCODING 914
SWIDTH 617 0
DWIDTH 6 0
BBX 6 7 0 0
BITMAP
F0
6C
6C
78
6C
6C
F8
ENDCHAR
STARTCHAR 0393
ENCODING 915
SWIDTH 514 0
DWIDTH 5 0
BBX 5 7 0 0
BITMAP
F8
68
60
60
60
60
F0
ENDCHAR
STARTCHAR 0394
ENCODING 916
SWIDTH 617 0
DWIDTH 6 0
BBX 6 7 0 0
BITMAP
10
30
30
58
48
8C
FC
ENDCHAR
STARTCHAR 0395
ENCODING 917
SWIDTH 617 0
DWIDTH 6 0
BBX 6 7 0 0
BITMAP
F8
68
60
70
60
64
FC
ENDCHAR
STARTCHAR 0396
ENCODING 918
SWIDTH 514 0
DWIDTH 5 0
BBX 5 7 0 0
BITMAP
78
58
10
30
20
60
F8
ENDCHAR
STARTCHAR 0397
ENCODING 919
SWIDTH 720 0
DWIDTH 7 0
BBX 7 7 0 0
BITMAP
EE
64
64
7C
64
64
EE
ENDCHAR
STARTCHAR 0398
ENCODING 920
SWIDTH 720 0
DWIDTH 7 0
BBX 7 7 0 0
BITMAP
18
64
46
FE
C6
44
3C
ENDCHAR
STARTCHAR 0399
ENCODING 921
SWIDTH 308 0
DWIDTH 3 0
BBX 3 7 0 0
BITMAP
E0
60
60
60
60
60
E0
ENDCHAR
STARTCHAR 039A
ENCODING 922
SWIDTH 720 0
DWIDTH 7 0
BBX 7 7 0 0
BITMAP
EE
68
70
70
78
6C
EE
ENDCHAR
STARTCHAR 039B
ENCODING 923
SWIDTH 617 0
DWIDTH 6 0
BBX 6 7 0 0
BITMAP
10
30
30
58
48
4C
CC
ENDCHAR
STARTCHAR 039C
ENCODING 924
SWIDTH 925 0
DWIDTH 9 0
BBX 9 7 0 0
BITMAP
6180
6300
7300
5500
5D00
5900
CB80
ENDCHAR
STARTCHAR 039D
ENCODING 925
SWIDTH 720 0
DWIDTH 7 0
BBX 7 7 0 0
BITMAP
C6
64
74
5C
5C
4C
C4
ENDCHAR
STARTCHAR 039E
ENCODING 926
SWIDTH 514 0
DWIDTH 5 0
BBX 6 7 0 0
BITMAP
78
C8
00
78
48
84
FC
ENDCHAR
STARTCHAR 039F
ENCODING 927
SWIDTH 720 0
DWIDTH 7 0
BBX 7 7 0 0
BITMAP
18
64
46
C6
C6
44
3C
ENDCHAR
STARTCHAR 03A0
ENCODING 928
SWIDTH 720 0
DWIDTH 7 0
BBX 7 7 0 0
BITMAP
FE
64
64
64
64
64
EE
ENDCHAR
STARTCHAR 03A1
ENCODING 929
SWIDTH 617 0
DWIDTH 6 0
BBX 6 7 0 0
BITMAP
F0
6C
6C
6C
78
60
F0
ENDCHAR
STARTCHAR 03A3
ENCODING 931
SWIDTH 514 0
DWIDTH 5 0
BBX 6 7 0 0
BITMAP
78
68
20
30
30
64
FC
ENDCHAR
STARTCHAR 03A4
ENCODING 932
SWIDTH 617 0
DWIDTH 6 0
BBX 6 7 0 0
BITMAP
FC
B4
30
30
30
30
38
ENDCHAR
STARTCHAR 03A5
ENCODING 933
SWIDTH 617 0
DWIDTH 6 0
BBX 6 7 0 0
BITMAP
EC
68
68
30
30
30
78
ENDCHAR
STARTCHAR 03A6
ENCODING 934
SWIDTH 720 0
DWIDTH 7 0
BBX 7 7 0 0
BITMAP
38
18
76
D2
D2
7C
38
ENDCHAR
STARTCHAR 03A7
ENCODING 935
SWIDTH 617 0
DWIDTH 6 0
BBX 6 7 0 0
BITMAP
EC
64
38
30
38
48
CC
ENDCHAR
STARTCHAR 03A8
ENCODING 936
SWIDTH 720 0
DWIDTH 7 0
BBX 7 7 1 0
BITMAP
B6
B4
B4
B4
78
30
78
ENDCHAR
STARTCHAR 03A9
ENCODING 937
SWIDTH 822 0
DWIDTH 8 0
BBX 8 7 0 0
BITMAP
18
66
42
42
42
A5
77
ENDCHAR
STARTCHAR 03AA
ENCODING 938
SWIDTH 308 0
DWIDTH 3 0
BBX 4 8 0 0
BITMAP
B0
E0
60
60
60
60
60
E0
ENDCHAR
STARTCHAR 03AB
ENCODING 939
SWIDTH 617 0
DWIDTH 6 0
BBX 6 8 0 0
BITMAP
28
EC
68
68
30
30
30
78
ENDCHAR
STARTCHAR 03AC
ENCODING 940
SWIDTH 617 0
DWIDTH 6 0
BBX 6 7 0 0
BITMAP
30
20
28
58
C8
D8
7C
ENDCHAR
STARTCHAR 03AD
ENCODING 941
SWIDTH 411 0
DWIDTH 4 0
BBX 4 7 0 0
BITMAP
20
20
20
50
60
C0
70
ENDCHAR
STARTCHAR 03AE
ENCODING 942
SWIDTH 617 0
DWIDTH 6 0
BBX 4 9 1 -2
BITMAP
20
00
00
F0
90
90
90
10
10
ENDCHAR
STARTCHAR 03AF
ENCODING 943
SWIDTH 308 0
DWIDTH 3 0
BBX 2 7 1 0
BITMAP
C0
80
00
80
80
80
C0
ENDCHAR
STARTCHAR 03B0
ENCODING 944
SWIDTH 514 0
DWIDTH 5 0
BBX 4 7 1 0
BITMAP
40
F0
00
90
90
90
E0
ENDCHAR
STARTCHAR 03B1
ENCODING 945
SWIDTH 617 0
DWIDTH 6 0
BBX 6 5 0 0
BITMAP
28
58
C8
D8
7C
ENDCHAR
STARTCHAR 03B2
ENCODING 946
SWIDTH 514 0
DWIDTH 5 0
BBX 4 9 1 -2
BITMAP
F0
90
B0
E0
90
90
F0
80
80
ENDCHAR
STARTCHAR 03B3
ENCODING 947
SWIDTH 514 0
DWIDTH 5 0
BBX 5 7 0 -2
BITMAP
80
68
70
30
30
50
70
ENDCHAR
STARTCHAR 03B4
ENCODING 948
SWIDTH 514 0
DWIDTH 5 0
BBX 5 7 0 0
BITMAP
30
40
60
78
D8
C8
70
ENDCHAR
STARTCHAR 03B5
ENCODING 949
SWIDTH 411 0
DWIDTH 4 0
BBX 4 5 0 0
BITMAP
20
50
60
C0
70
ENDCHAR
STARTCHAR 03B6
ENCODING 950
SWIDTH 411 0
DWIDTH 4 0
BBX 4 9 0 -2
BITMAP
F0
90
20
40
C0
C0
70
10
30
ENDCHAR
STARTCHAR 03B7
ENCODING 951
SWIDTH 617 0
DWIDTH 6 0
BBX 4 6 1 -1
BITMAP
F0
90
90
90
10
10
ENDCHAR
STARTCHAR 03B8
ENCODING 952
SWIDTH 514 0
DWIDTH 5 0
BBX 5 7 0 0
BITMAP
70
48
C8
F8
C8
48
70
ENDCHAR
STARTCHAR 03B9
ENCODING 953
SWIDTH 308 0
DWIDTH 3 0
BBX 2 4 1 1
BITMAP
80
80
80
C0
ENDCHAR
STARTCHAR 03BA
ENCODING 954
SWIDTH 514 0
DWIDTH 5 0
BBX 5 4 1 1
BITMAP
B0
E0
B0
98
ENDCHAR
STARTCHAR 03BB
ENCODING 955
SWIDTH 514 0
DWIDTH 5 0
BBX 5 7 0 0
BITMAP
E0
20
20
30
50
50
D8
ENDCHAR
STARTCHAR 03BC
ENCODING 956
SWIDTH 617 0
DWIDTH 6 0
BBX 5 6 1 -1
BITMAP
90
90
90
F8
80
80
ENDCHAR
STARTCHAR 03BD
ENCODING 957
SWIDTH 411 0
DWIDTH 4 0
BBX 4 5 1 0
BITMAP
90
90
E0
60
40
ENDCHAR
STARTCHAR 03BE
ENCODING 958
SWIDTH 411 0
DWIDTH 4 0
BBX 4 9 0 -2
BITMAP
F0
B0
40
40
60
C0
70
10
30
ENDCHAR
STARTCHAR 03BF
ENCODING 959
SWIDTH 514 0
DWIDTH 5 0
BBX 5 5 0 0
BITMAP
20
58
C8
C8
70
ENDCHAR
STARTCHAR 03C0
ENCODING 960
SWIDTH 514 0
DWIDTH 5 0
BBX 5 5 0 0
BITMAP
08
F8
50
50
58
ENDCHAR
STARTCHAR 03C1
ENCODING 961
SWIDTH 514 0
DWIDTH 5 0
BBX 5 6 0 -1
BITMAP
58
C8
C8
D0
E0
C0
ENDCHAR
STARTCHAR 03C2
ENCODING 962
SWIDTH 411 0
DWIDTH 4 0
BBX 4 7 0 -2
BITMAP
20
50
C0
40
70
10
30
ENDCHAR
STARTCHAR 03C3
ENCODING 963
SWIDTH 617 0
DWIDTH 6 0
BBX 6 5 0 0
BITMAP
04
7C
C8
C8
78
ENDCHAR
STARTCHAR 03C4
ENCODING 964
SWIDTH 308 0
DWIDTH 3 0
BBX 3 5 0 0
BITMAP
20
E0
60
60
60
ENDCHAR
STARTCHAR 03C5
ENCODING 965
SWIDTH 514 0
DWIDTH 5 0
BBX 4 4 1 1
BITMAP
90
90
90
E0
ENDCHAR
STARTCHAR 03C6
ENCODING 966
SWIDTH 720 0
DWIDTH 7 0
BBX 7 6 0 -1
BITMAP
5A
DA
DA
7C
18
18
ENDCHAR
STARTCHAR 03C7
ENCODING 967
SWIDTH 514 0
DWIDTH 5 0
BBX 4 6 1 -1
BITMAP
F0
E0
60
60
A0
B0
ENDCHAR
STARTCHAR 03C8
ENCODING 968
SWIDTH 720 0
DWIDTH 7 0
BBX 6 9 1 -2
BITMAP
30
30
34
B4
B4
B4
F8
30
30
ENDCHAR
STARTCHAR 03C9
ENCODING 969
SWIDTH 720 0
DWIDTH 7 0
BBX 7 4 0 1
BITMAP
46
D2
D6
7E
ENDCHAR
STARTCHAR 03CA
ENCODING 970
SWIDTH 308 0
DWIDTH 3 0
BBX 4 6 0 0
BITMAP
B0
00
40
40
40
60
ENDCHAR
STARTCHAR 03CB
ENCODING 971
SWIDTH 514 0
DWIDTH 5 0
BBX 4 6 1 0
BITMAP
A0
00
90
90
90
E0
ENDCHAR
STARTCHAR 03CC
ENCODING 972
SWIDTH 514 0
DWIDTH 5 0
BBX 5 7 0 0
BITMAP
20
20
20
58
C8
C8
70
ENDCHAR
STARTCHAR 03CD
ENCODING 973
SWIDTH 514 0
DWIDTH 5 0
BBX 4 7 1 0
BITMAP
40
40
00
90
90
90
E0
ENDCHAR
STARTCHAR 03CE
ENCODING 974
SWIDTH 720 0
DWIDTH 7 0
BBX 7 7 0 0
BITMAP
10
10
00
46
D2
D6
7E
ENDCHAR
STARTCHAR 03CF
ENCODING 975
SWIDTH 720 0
DWIDTH 7 0
BBX 7 9 0 -2
BITMAP
EE
68
70
70
78
6C
EE
08
08
ENDCHAR
STARTCHAR 03D1
ENCODING 977
SWIDTH 514 0
DWIDTH 5 0
BBX 6 7 0 0
BITMAP
70
48
48
3C
C8
48
70
ENDCHAR
STARTCHAR 03D2
ENCODING 978
SWIDTH 617 0
DWIDTH 6 0
BBX 5 7 1 0
BITMAP
88
D8
60
60
20
20
70
ENDCHAR
STARTCHAR 03D5
ENCODING 981
SWIDTH 720 0
DWIDTH 7 0
BBX 7 9 0 -2
BITMAP
30
10
18
76
D2
D2
7C
10
18
ENDCHAR
STARTCHAR 03D6
ENCODING 982
SWIDTH 822 0
DWIDTH 8 0
BBX 8 5 0 0
BITMAP
11
FF
6A
6A
3E
ENDCHAR
STARTCHAR 03D7
ENCODING 983
SWIDTH 514 0
DWIDTH 5 0
BBX 5 6 1 -1
BITMAP
B0
E0
B0
98
08
70
ENDCHAR
STARTCHAR 03F0
ENCODING 1008
SWIDTH 617 0
DWIDTH 6 0
BBX 6 5 0 0
BITMAP
40
D8
70
70
4C
ENDCHAR
STARTCHAR 03F1
ENCODING 1009
SWIDTH 514 0
DWIDTH 5 0
BBX 5 7 0 -2
BITMAP
20
58
C8
C8
F0
40
78
ENDCHAR
STARTCHAR 03F2
ENCODING 1010
SWIDTH 411 0
DWIDTH 4 0
BBX 4 5 0 0
BITMAP
20
50
C0
C0
70
ENDCHAR
STARTCHAR 03F4
ENCODING 1012
SWIDTH 720 0
DWIDTH 7 0
BBX 7 7 0 0
BITMAP
18
64
46
FE
C6
44
3C
ENDCHAR
STARTCHAR 03F6
ENCODING 1014
SWIDTH 411 0
DWIDTH 4 0
BBX 4 4 0 1
BITMAP
F0
70
10
F0
ENDCHAR
STARTCHAR 03F7
ENCODING 1015
SWIDTH 617 0
DWIDTH 6 0
BBX 6 7 0 0
BITMAP
E0
60
7C
6C
6C
70
F0
ENDCHAR
STARTCHAR 03F8
ENCODING 1016
SWIDTH 617 0
DWIDTH 6 0
BBX 6 9 0 -2
BITMAP
C0
40
40
6C
4C
4C
78
40
40
ENDCHAR
STARTCHAR 03F9
ENCODING 1017
SWIDTH 617 0
DWIDTH 6 0
BBX 6 7 0 0
BITMAP
18
64
40
C0
C0
40
3C
ENDCHAR
STARTCHAR 0400
ENCODING 1024
SWIDTH 617 0
DWIDTH 6 0
BBX 6 7 0 2
BITMAP
F8
68
60
70
60
64
FC
ENDCHAR
STARTCHAR 0401
ENCODING 1025
SWIDTH 617 0
DWIDTH 6 0
BBX 6 8 0 1
BITMAP
58
F8
68
60
70
60
64
FC
ENDCHAR
STARTCHAR 0402
ENCODING 1026
SWIDTH 720 0
DWIDTH 7 0
BBX 7 7 0 0
BITMAP
FC
B4
30
3E
32
32
36
ENDCHAR
STARTCHAR 0403
ENCODING 1027
SWIDTH 514 0
DWIDTH 5 0
BBX 5 9 0 0
BITMAP
10
20
F8
68
60
60
60
60
F0
ENDCHAR
STARTCHAR 0404
ENCODING 1028
SWIDTH 617 0
DWIDTH 6 0
BBX 6 7 0 0
BITMAP
38
44
C0
F8
C0
44
3C
ENDCHAR
STARTCHAR 0405
ENCODING 1029
SWIDTH 514 0
DWIDTH 5 0
BBX 5 7 0 0
BITMAP
30
48
40
70
18
48
F8
ENDCHAR
STARTCHAR 0406
ENCODING 1030
SWIDTH 308 0
DWIDTH 3 0
BBX 3 7 0 0
BITMAP
E0
60
60
60
60
60
E0
ENDCHAR
STARTCHAR 0407
ENCODING 1031
SWIDTH 308 0
DWIDTH 3 0
BBX 3 8 0 0
BITMAP
E0
E0
60
60
60
60
60
E0
ENDCHAR
STARTCHAR 0408
ENCODING 1032
SWIDTH 308 0
DWIDTH 3 0
BBX 3 9 0 -2
BITMAP
E0
40
40
40
40
40
40
40
C0
ENDCHAR
STARTCHAR 0409
ENCODING 1033
SWIDTH 925 0
DWIDTH 9 0
BBX 9 7 0 0
BITMAP
7C00
2C00
2C00
2F00
2D80
4D80
DF00
ENDCHAR
STARTCHAR 040A
ENCODING 1034
SWIDTH 925 0
DWIDTH 9 0
BBX 9 7 0 0
BITMAP
EE00
6400
6400
7F00
6480
6480
EF80
ENDCHAR
STARTCHAR 040B
ENCODING 1035
SWIDTH 822 0
DWIDTH 8 0
BBX 8 7 0 0
BITMAP
FC
B4
30
3E
32
32
3F
ENDCHAR
STARTCHAR 040C
ENCODING 1036
SWIDTH 720 0
DWIDTH 7 0
BBX 7 9 0 0
BITMAP
08
10
EE
64
68
70
78
6C
E6
ENDCHAR
STARTCHAR 040D
ENCODING 1037
SWIDTH 720 0
DWIDTH 7 0
BBX 7 9 0 0
BITMAP
10
10
E6
64
6C
74
74
64
EE
ENDCHAR
STARTCHAR 040E
ENCODING 1038
SWIDTH 617 0
DWIDTH 6 0
BBX 6 9 0 0
BITMAP
24
38
E4
64
28
38
10
10
60
ENDCHAR
STARTCHAR 040F
ENCODING 1039
SWIDTH 720 0
DWIDTH 7 0
BBX 7 9 0 -2
BITMAP
EE
64
64
64
64
64
FE
10
10
ENDCHAR
STARTCHAR 0410
ENCODING 1040
SWIDTH 617 0
DWIDTH 6 0
BBX 7 7 0 0
BITMAP
10
10
38
58
48
7C
CE
ENDCHAR
STARTCHAR 0411
ENCODING 1041
SWIDTH 617 0
DWIDTH 6 0
BBX 6 7 0 0
BITMAP
F8
68
60
78
6C
6C
F8
ENDCHAR
STARTCHAR 0412
ENCODING 1042
SWIDTH 617 0
DWIDTH 6 0
BBX 6 7 0 0
BITMAP
F0
6C
6C
78
6C
6C
F8
ENDCHAR
STARTCHAR 0413
ENCODING 1043
SWIDTH 514 0
DWIDTH 5 0
BBX 5 7 0 0
BITMAP
F8
68
60
60
60
60
F0
ENDCHAR
STARTCHAR 0414
ENCODING 1044
SWIDTH 720 0
DWIDTH 7 0
BBX 7 9 0 -2
BITMAP
7C
2C
2C
2C
2C
4C
FE
82
82
ENDCHAR
STARTCHAR 0415
ENCODING 1045
SWIDTH 617 0
DWIDTH 6 0
BBX 6 7 0 0
BITMAP
F8
68
60
70
60
64
FC
ENDCHAR
STARTCHAR 0416
ENCODING 1046
SWIDTH 1028 0
DWIDTH 10 0
BBX 10 7 0 0
BITMAP
EFC0
2C80
2D00
1F00
3D00
6D80
ECC0
ENDCHAR
STARTCHAR 0417
ENCODING 1047
SWIDTH 514 0
DWIDTH 5 0
BBX 5 7 0 0
BITMAP
70
58
18
30
08
48
F8
ENDCHAR
STARTCHAR 0418
ENCODING 1048
SWIDTH 720 0
DWIDTH 7 0
BBX 7 7 0 0
BITMAP
E6
64
6C
74
74
64
EE
ENDCHAR
STARTCHAR 0419
ENCODING 1049
SWIDTH 720 0
DWIDTH 7 0
BBX 7 9 0 0
BITMAP
24
38
E6
64
6C
74
74
64
EE
ENDCHAR
STARTCHAR 041A
ENCODING 1050
SWIDTH 720 0
DWIDTH 7 0
BBX 7 7 0 0
BITMAP
EE
64
68
70
78
6C
E6
ENDCHAR
STARTCHAR 041B
ENCODING 1051
SWIDTH 617 0
DWIDTH 6 0
BBX 6 7 0 0
BITMAP
7C
2C
2C
2C
2C
4C
CC
ENDCHAR
STARTCHAR 041C
ENCODING 1052
SWIDTH 925 0
DWIDTH 9 0
BBX 9 7 0 0
BITMAP
6180
6300
7300
5500
5D00
5900
CB80
ENDCHAR
STARTCHAR 041D
ENCODING 1053
SWIDTH 720 0
DWIDTH 7 0
BBX 7 7 0 0
BITMAP
EE
64
64
7C
64
64
EE
ENDCHAR
STARTCHAR 041E
ENCODING 1054
SWIDTH 720 0
DWIDTH 7 0
BBX 7 7 0 0
BITMAP
18
64
46
C6
C6
44
3C
ENDCHAR
STARTCHAR 041F
ENCODING 1055
SWIDTH 720 0
DWIDTH 7 0
BBX 7 7 0 0
BITMAP
FE
64
64
64
64
64
EE
ENDCHAR
STARTCHAR 0420
ENCODING 1056
SWIDTH 617 0
DWIDTH 6 0
BBX 6 7 0 0
BITMAP
F0
6C
6C
6C
78
60
F0
ENDCHAR
STARTCHAR 0421
ENCODING 1057
SWIDTH 617 0
DWIDTH 6 0
BBX 6 7 0 0
BITMAP
18
64
40
C0
C0
40
3C
ENDCHAR
STARTCHAR 0422
ENCODING 1058
SWIDTH 617 0
DWIDTH 6 0
BBX 6 7 0 0
BITMAP
FC
B4
30
30
30
30
38
ENDCHAR
STARTCHAR 0423
ENCODING 1059
SWIDTH 617 0
DWIDTH 6 0
BBX 6 7 0 0
BITMAP
E4
64
28
38
10
10
60
ENDCHAR
STARTCHAR 0424
ENCODING 1060
SWIDTH 822 0
DWIDTH 8 0
BBX 8 7 0 0
BITMAP
1C
3C
4B
C9
4B
3C
1C
ENDCHAR
STARTCHAR 0425
ENCODING 1061
SWIDTH 617 0
DWIDTH 6 0
BBX 6 7 0 0
BITMAP
EC
64
38
30
38
48
CC
ENDCHAR
STARTCHAR 0426
ENCODING 1062
SWIDTH 822 0
DWIDTH 8 0
BBX 8 9 0 -2
BITMAP
EE
64
64
64
64
64
FE
01
01
ENDCHAR
STARTCHAR 0427
ENCODING 1063
SWIDTH 720 0
DWIDTH 7 0
BBX 7 7 0 0
BITMAP
EE
44
44
64
1C
04
0E
ENDCHAR
STARTCHAR 0428
ENCODING 1064
SWIDTH 1028 0
DWIDTH 10 0
BBX 10 7 0 0
BITMAP
EDC0
6C80
6C80
6C80
6C80
6C80
FFC0
ENDCHAR
STARTCHAR 0429
ENCODING 1065
SWIDTH 1028 0
DWIDTH 10 0
BBX 10 9 0 -2
BITMAP
EDC0
6C80
6C80
6C80
6C80
6C80
FFC0
0040
0040
ENDCHAR
STARTCHAR 042A
ENCODING 1066
SWIDTH 720 0
DWIDTH 7 0
BBX 7 7 0 0
BITMAP
F8
B0
30
3C
36
32
3E
ENDCHAR
STARTCHAR 042B
ENCODING 1067
SWIDTH 925 0
DWIDTH 9 0
BBX 9 7 0 0
BITMAP
F380
6100
6100
7900
6D00
6D00
FB80
ENDCHAR
STARTCHAR 042C
ENCODING 1068
SWIDTH 617 0
DWIDTH 6 0
BBX 6 7 0 0
BITMAP
F0
60
60
78
6C
6C
F8
ENDCHAR
STARTCHAR 042D
ENCODING 1069
SWIDTH 617 0
DWIDTH 6 0
BBX 5 7 1 0
BITMAP
E0
90
18
78
18
10
F0
ENDCHAR
STARTCHAR 042E
ENCODING 1070
SWIDTH 1028 0
DWIDTH 10 0
BBX 10 7 0 0
BITMAP
E300
6C80
68C0
78C0
68C0
6880
E780
ENDCHAR
STARTCHAR 042F
ENCODING 1071
SWIDTH 617 0
DWIDTH 6 0
BBX 6 7 0 0
BITMAP
1C
6C
4C
2C
3C
6C
CC
ENDCHAR
STARTCHAR 0430
ENCODING 1072
SWIDTH 411 0
DWIDTH 4 0
BBX 5 5 0 0
BITMAP
20
D0
30
D0
F8
ENDCHAR
STARTCHAR 0431
ENCODING 1073
SWIDTH 514 0
DWIDTH 5 0
BBX 5 7 0 0
BITMAP
08
78
40
F8
C8
C8
70
ENDCHAR
STARTCHAR 0432
ENCODING 1074
SWIDTH 514 0
DWIDTH 5 0
BBX 5 4 0 0
BITMAP
78
70
48
F8
ENDCHAR
STARTCHAR 0433
ENCODING 1075
SWIDTH 411 0
DWIDTH 4 0
BBX 4 4 0 0
BITMAP
70
40
40
E0
ENDCHAR
STARTCHAR 0434
ENCODING 1076
SWIDTH 514 0
DWIDTH 5 0
BBX 6 6 0 -2
BITMAP
78
58
58
FC
84
84
ENDCHAR
STARTCHAR 0435
ENCODING 1077
SWIDTH 411 0
DWIDTH 4 0
BBX 5 5 0 0
BITMAP
20
50
F8
C0
70
ENDCHAR
STARTCHAR 0436
ENCODING 1078
SWIDTH 822 0
DWIDTH 8 0
BBX 8 4 0 0
BITMAP
4B
2C
2A
DF
ENDCHAR
STARTCHAR 0437
ENCODING 1079
SWIDTH 411 0
DWIDTH 4 0
BBX 4 5 0 0
BITMAP
20
D0
30
10
F0
ENDCHAR
STARTCHAR 0438
ENCODING 1080
SWIDTH 617 0
DWIDTH 6 0
BBX 6 4 0 0
BITMAP
48
58
68
CC
ENDCHAR
STARTCHAR 0439
ENCODING 1081
SWIDTH 617 0
DWIDTH 6 0
BBX 6 7 0 0
BITMAP
48
38
00
48
58
68
CC
ENDCHAR
STARTCHAR 043A
ENCODING 1082
SWIDTH 514 0
DWIDTH 5 0
BBX 6 4 0 0
BITMAP
48
50
50
EC
ENDCHAR
STARTCHAR 043B
ENCODING 1083
SWIDTH 514 0
DWIDTH 5 0
BBX 5 4 0 0
BITMAP
78
58
58
D8
ENDCHAR
STARTCHAR 043C
ENCODING 1084
SWIDTH 720 0
DWIDTH 7 0
BBX 7 4 0 0
BITMAP
6C
6C
B4
D6
ENDCHAR
STARTCHAR 043D
ENCODING 1085
SWIDTH 617 0
DWIDTH 6 0
BBX 6 4 0 0
BITMAP
4C
78
48
EC
ENDCHAR
STARTCHAR 043E
ENCODING 1086
SWIDTH 514 0
DWIDTH 5 0
BBX 5 5 0 0
BITMAP
20
58
C8
C8
70
ENDCHAR
STARTCHAR 043F
ENCODING 1087
SWIDTH 617 0
DWIDTH 6 0
BBX 6 4 0 0
BITMAP
78
48
48
FC
ENDCHAR
STARTCHAR 0440
ENCODING 1088
SWIDTH 617 0
DWIDTH 6 0
BBX 5 6 1 -1
BITMAP
F8
98
98
F0
80
C0
ENDCHAR
STARTCHAR 0441
ENCODING 1089
SWIDTH 411 0
DWIDTH 4 0
BBX 4 5 0 0
BITMAP
20
50
C0
C0
70
ENDCHAR
STARTCHAR 0442
ENCODING 1090
SWIDTH 514 0
DWIDTH 5 0
BBX 5 4 0 0
BITMAP
F8
20
20
70
ENDCHAR
STARTCHAR 0443
ENCODING 1091
SWIDTH 514 0
DWIDTH 5 0
BBX 5 6 0 -2
BITMAP
48
70
30
20
20
E0
ENDCHAR
STARTCHAR 0444
ENCODING 1092
SWIDTH 720 0
DWIDTH 7 0
BBX 7 9 0 -2
BITMAP
38
18
18
7E
DA
DA
7C
18
18
ENDCHAR
STARTCHAR 0445
ENCODING 1093
SWIDTH 514 0
DWIDTH 5 0
BBX 5 4 0 0
BITMAP
78
30
50
D8
ENDCHAR
STARTCHAR 0446
ENCODING 1094
SWIDTH 617 0
DWIDTH 6 0
BBX 6 6 0 -2
BITMAP
48
48
48
FC
04
04
ENDCHAR
STARTCHAR 0447
ENCODING 1095
SWIDTH 514 0
DWIDTH 5 0
BBX 4 4 1 0
BITMAP
B0
90
70
30
ENDCHAR
STARTCHAR 0448
ENCODING 1096
SWIDTH 822 0
DWIDTH 8 0
BBX 8 4 0 0
BITMAP
4B
4B
4B
FF
ENDCHAR
STARTCHAR 0449
ENCODING 1097
SWIDTH 925 0
DWIDTH 9 0
BBX 9 6 0 -2
BITMAP
4B00
4B00
4B00
FF80
0080
0080
ENDCHAR
STARTCHAR 044A
ENCODING 1098
SWIDTH 514 0
DWIDTH 5 0
BBX 6 4 0 0
BITMAP
F0
38
2C
78
ENDCHAR
STARTCHAR 044B
ENCODING 1099
SWIDTH 822 0
DWIDTH 8 0
BBX 8 4 0 0
BITMAP
62
72
5A
FF
ENDCHAR
STARTCHAR 044C
ENCODING 1100
SWIDTH 514 0
DWIDTH 5 0
BBX 5 4 0 0
BITMAP
60
70
48
F8
ENDCHAR
STARTCHAR 044D
ENCODING 1101
SWIDTH 411 0
DWIDTH 4 0
BBX 4 4 0 1
BITMAP
F0
70
10
F0
ENDCHAR
STARTCHAR 044E
ENCODING 1102
SWIDTH 822 0
DWIDTH 8 0
BBX 8 5 0 0
BITMAP
04
5A
73
5B
EE
ENDCHAR
STARTCHAR 044F
ENCODING 1103
SWIDTH 514 0
DWIDTH 5 0
BBX 5 4 0 0
BITMAP
78
58
78
D8
ENDCHAR
STARTCHAR 0450
ENCODING 1104
SWIDTH 411 0
DWIDTH 4 0
BBX 5 7 0 0
BITMAP
40
20
20
50
F8
C0
70
ENDCHAR
STARTCHAR 0451
ENCODING 1105
SWIDTH 411 0
DWIDTH 4 0
BBX 5 6 0 0
BITMAP
50
20
50
F8
C0
70
ENDCHAR
STARTCHAR 0452
ENCODING 1106
SWIDTH 617 0
DWIDTH 6 0
BBX 6 9 0 -2
BITMAP
C0
40
60
78
4C
4C
E8
08
10
ENDCHAR
STARTCHAR 0453
ENCODING 1107
SWIDTH 411 0
DWIDTH 4 0
BBX 4 7 0 0
BITMAP
30
20
00
70
40
40
E0
ENDCHAR
STARTCHAR 0454
ENCODING 1108
SWIDTH 411 0
DWIDTH 4 0
BBX 4 5 0 0
BITMAP
20
50
E0
C0
70
ENDCHAR
STARTCHAR 0455
ENCODING 1109
SWIDTH 411 0
DWIDTH 4 0
BBX 4 5 0 0
BITMAP
20
D0
60
B0
F0
ENDCHAR
STARTCHAR 0456
ENCODING 1110
SWIDTH 308 0
DWIDTH 3 0
BBX 3 7 0 0
BITMAP
40
40
00
40
40
40
E0
ENDCHAR
STARTCHAR 0457
ENCODING 1111
SWIDTH 308 0
DWIDTH 3 0
BBX 3 6 0 0
BITMAP
A0
00
40
40
40
E0
ENDCHAR
STARTCHAR 0458
ENCODING 1112
SWIDTH 308 0
DWIDTH 3 0
BBX 2 9 0 -2
BITMAP
40
40
00
40
40
40
40
40
C0
ENDCHAR
STARTCHAR 0459
ENCODING 1113
SWIDTH 720 0
DWIDTH 7 0
BBX 8 4 0 0
BITMAP
78
5E
5B
DE
ENDCHAR
STARTCHAR 045A
ENCODING 1114
SWIDTH 822 0
DWIDTH 8 0
BBX 8 4 0 0
BITMAP
4C
7E
4B
FF
ENDCHAR
STARTCHAR 045B
ENCODING 1115
SWIDTH 617 0
DWIDTH 6 0
BBX 6 7 0 0
BITMAP
C0
40
60
78
48
48
FC
ENDCHAR
STARTCHAR 045C
ENCODING 1116
SWIDTH 514 0
DWIDTH 5 0
BBX 6 7 0 0
BITMAP
10
10
00
48
50
50
EC
ENDCHAR
STARTCHAR 045D
ENCODING 1117
SWIDTH 617 0
DWIDTH 6 0
BBX 6 7 0 0
BITMAP
20
10
00
48
58
68
CC
ENDCHAR
STARTCHAR 045E
ENCODING 1118
SWIDTH 514 0
DWIDTH 5 0
BBX 5 9 0 -2
BITMAP
48
38
00
48
70
30
20
20
E0
ENDCHAR
STARTCHAR 045F
ENCODING 1119
SWIDTH 617 0
DWIDTH 6 0
BBX 6 6 0 -2
BITMAP
48
48
48
FC
10
10
ENDCHAR
STARTCHAR 0462
ENCODING 1122
SWIDTH 720 0
DWIDTH 7 0
BBX 7 7 0 0
BITMAP
70
F8
A8
20
3E
26
7C
ENDCHAR
STARTCHAR 0463
ENCODING 1123
SWIDTH 617 0
DWIDTH 6 0
BBX 6 7 0 0
BITMAP
60
20
20
F8
38
2C
7C
ENDCHAR
STARTCHAR 046A
ENCODING 1130
SWIDTH 925 0
DWIDTH 9 0
BBX 9 7 0 0
BITMAP
7F00
3200
1200
0C00
3B00
6B00
DD80
ENDCHAR
STARTCHAR 046B
ENCODING 1131
SWIDTH 720 0
DWIDTH 7 0
BBX 8 4 0 0
BITMAP
7E
18
7E
DB
ENDCHAR
STARTCHAR 0472
ENCODING 1138
SWIDTH 720 0
DWIDTH 7 0
BBX 7 7 0 0
BITMAP
18
64
46
FE
C6
44
3C
ENDCHAR
STARTCHAR 0473
ENCODING 1139
SWIDTH 514 0
DWIDTH 5 0
BBX 5 5 0 0
BITMAP
20
58
F8
C8
70
ENDCHAR
STARTCHAR 0474
ENCODING 1140
SWIDTH 720 0
DWIDTH 7 0
BBX 7 7 0 0
BITMAP
E2
46
68
28
28
30
10
ENDCHAR
STARTCHAR 0475
ENCODING 1141
SWIDTH 514 0
DWIDTH 5 0
BBX 4 5 1 0
BITMAP
10
B0
E0
40
40
ENDCHAR
STARTCHAR 048A
ENCODING 1162
SWIDTH 822 0
DWIDTH 8 0
BBX 7 11 0 -2
BITMAP
24
38
E6
64
6C
74
74
64
EE
02
02
ENDCHAR
STARTCHAR 048B
ENCODING 1163
SWIDTH 617 0
DWIDTH 6 0
BBX 6 8 0 -2
BITMAP
48
38
00
48
58
68
CC
04
ENDCHAR
STARTCHAR 048C
ENCODING 1164
SWIDTH 617 0
DWIDTH 6 0
BBX 6 7 0 0
BITMAP
F0
60
F0
78
6C
6C
F8
ENDCHAR
STARTCHAR 048D
ENCODING 1165
SWIDTH 514 0
DWIDTH 5 0
BBX 5 7 0 0
BITMAP
C0
40
40
60
78
48
F8
ENDCHAR
STARTCHAR 048E
ENCODING 1166
SWIDTH 617 0
DWIDTH 6 0
BBX 6 7 0 0
BITMAP
F0
6C
64
7C
78
60
F0
ENDCHAR
STARTCHAR 048F
ENCODING 1167
SWIDTH 617 0
DWIDTH 6 0
BBX 5 6 1 -1
BITMAP
F8
98
B8
F0
80
C0
ENDCHAR
STARTCHAR 0490
ENCODING 1168
SWIDTH 514 0
DWIDTH 5 0
BBX 5 8 0 0
BITMAP
08
F8
60
60
60
60
60
F0
ENDCHAR
STARTCHAR 0491
ENCODING 1169
SWIDTH 411 0
DWIDTH 4 0
BBX 4 6 0 0
BITMAP
10
10
60
40
40
E0
ENDCHAR
STARTCHAR 0492
ENCODING 1170
SWIDTH 514 0
DWIDTH 5 0
BBX 5 7 0 0
BITMAP
F8
68
60
F0
60
60
F0
ENDCHAR
STARTCHAR 0493
ENCODING 1171
SWIDTH 411 0
DWIDTH 4 0
BBX 4 4 0 0
BITMAP
70
40
60
E0
ENDCHAR
STARTCHAR 0494
ENCODING 1172
SWIDTH 617 0
DWIDTH 6 0
BBX 6 9 0 -2
BITMAP
F8
68
60
78
6C
6C
EC
0C
08
ENDCHAR
STARTCHAR 0495
ENCODING 1173
SWIDTH 514 0
DWIDTH 5 0
BBX 5 6 0 -2
BITMAP
78
40
78
E8
08
10
ENDCHAR
STARTCHAR 0496
ENCODING 1174
SWIDTH 1028 0
DWIDTH 10 0
BBX 10 9 0 -2
BITMAP
EDC0
4D00
2D00
1F00
3D00
6D80
CCC0
0040
0040
ENDCHAR
STARTCHAR 0497
ENCODING 1175
SWIDTH 822 0
DWIDTH 8 0
BBX 9 6 0 -2
BITMAP
5B00
2C00
2E00
DB80
0080
0080
ENDCHAR
STARTCHAR 0498
ENCODING 1176
SWIDTH 514 0
DWIDTH 5 0
BBX 5 9 0 -2
BITMAP
70
58
18
30
08
48
F8
20
20
ENDCHAR
STARTCHAR 0499
ENCODING 1177
SWIDTH 411 0
DWIDTH 4 0
BBX 4 7 0 -2
BITMAP
20
D0
30
10
F0
20
20
ENDCHAR
STARTCHAR 049A
ENCODING 1178
SWIDTH 720 0
DWIDTH 7 0
BBX 7 9 0 -2
BITMAP
EE
64
68
70
78
6C
E6
02
02
ENDCHAR
STARTCHAR 049B
ENCODING 1179
SWIDTH 514 0
DWIDTH 5 0
BBX 6 6 0 -2
BITMAP
48
50
50
EC
04
04
ENDCHAR
STARTCHAR 049C
ENCODING 1180
SWIDTH 720 0
DWIDTH 7 0
BBX 7 7 0 0
BITMAP
E2
66
78
78
7C
6C
E6
ENDCHAR
STARTCHAR 049D
ENCODING 1181
SWIDTH 617 0
DWIDTH 6 0
BBX 6 5 0 0
BITMAP
04
6C
70
48
EC
ENDCHAR
STARTCHAR 049E
ENCODING 1182
SWIDTH 720 0
DWIDTH 7 0
BBX 7 7 0 0
BITMAP
E6
6A
68
70
68
6C
E6
ENDCHAR
STARTCHAR 049F
ENCODING 1183
SWIDTH 514 0
DWIDTH 5 0
BBX 6 7 0 0
BITMAP
C0
40
60
58
60
58
EC
ENDCHAR
STARTCHAR 04A0
ENCODING 1184
SWIDTH 822 0
DWIDTH 8 0
BBX 8 7 0 0
BITMAP
FB
93
14
1C
16
16
3B
ENDCHAR
STARTCHAR 04A1
ENCODING 1185
SWIDTH 617 0
DWIDTH 6 0
BBX 7 4 0 1
BITMAP
EC
30
28
76
ENDCHAR
STARTCHAR 04A2
ENCODING 1186
SWIDTH 822 0
DWIDTH 8 0
BBX 8 9 0 -2
BITMAP
EE
64
64
7C
64
64
EF
01
01
ENDCHAR
STARTCHAR 04A3
ENCODING 1187
SWIDTH 617 0
DWIDTH 6 0
BBX 6 5 0 -2
BITMAP
4C
78
48
EC
04
ENDCHAR
STARTCHAR 04A4
ENCODING 1188
SWIDTH 822 0
DWIDTH 8 0
BBX 9 7 0 0
BITMAP
EF00
6480
6400
7C00
6400
6400
EE00
ENDCHAR
STARTCHAR 04A5
ENCODING 1189
SWIDTH 720 0
DWIDTH 7 0
BBX 7 4 0 0
BITMAP
4E
78
48
FC
ENDCHAR
STARTCHAR 04A8
ENCODING 1192
SWIDTH 822 0
DWIDTH 8 0
BBX 8 6 0 1
BITMAP
6E
5B
D9
DB
4A
3F
ENDCHAR
STARTCHAR 04A9
ENCODING 1193
SWIDTH 720 0
DWIDTH 7 0
BBX 7 5 0 0
BITMAP
20
5E
D6
D4
7E
ENDCHAR
STARTCHAR 04AA
ENCODING 1194
SWIDTH 617 0
DWIDTH 6 0
BBX 6 9 0 -2
BITMAP
18
64
40
C0
C0
40
3C
10
10
ENDCHAR
STARTCHAR 04AB
ENCODING 1195
SWIDTH 411 0
DWIDTH 4 0
BBX 4 7 0 -2
BITMAP
20
50
C0
C0
70
20
20
ENDCHAR
STARTCHAR 04AC
ENCODING 1196
SWIDTH 617 0
DWIDTH 6 0
BBX 6 9 0 -2
BITMAP
FC
B4
30
30
30
30
38
08
08
ENDCHAR
STARTCHAR 04AD
ENCODING 1197
SWIDTH 514 0
DWIDTH 5 0
BBX 5 5 0 -2
BITMAP
F8
20
20
70
10
ENDCHAR
STARTCHAR 04AE
ENCODING 1198
SWIDTH 617 0
DWIDTH 6 0
BBX 6 7 0 0
BITMAP
EC
68
68
30
30
30
78
ENDCHAR
STARTCHAR 04AF
ENCODING 1199
SWIDTH 514 0
DWIDTH 5 0
BBX 4 6 1 -2
BITMAP
90
E0
60
40
40
60
ENDCHAR
STARTCHAR 04B0
ENCODING 1200
SWIDTH 617 0
DWIDTH 6 0
BBX 6 7 0 0
BITMAP
EC
68
68
30
78
30
78
ENDCHAR
STARTCHAR 04B1
ENCODING 1201
SWIDTH 514 0
DWIDTH 5 0
BBX 4 6 1 -2
BITMAP
90
E0
60
F0
40
60
ENDCHAR
STARTCHAR 04B2
ENCODING 1202
SWIDTH 720 0
DWIDTH 7 0
BBX 7 9 0 -2
BITMAP
EC
64
38
30
38
48
CE
02
02
ENDCHAR
STARTCHAR 04B3
ENCODING 1203
SWIDTH 514 0
DWIDTH 5 0
BBX 5 5 0 -2
BITMAP
78
30
50
D8
08
ENDCHAR
STARTCHAR 04B4
ENCODING 1204
SWIDTH 1028 0
DWIDTH 10 0
BBX 10 9 0 -2
BITMAP
FF80
B500
3100
3100
3100
3100
3FC0
0040
0040
ENDCHAR
STARTCHAR 04B5
ENCODING 1205
SWIDTH 822 0
DWIDTH 8 0
BBX 8 6 0 -2
BITMAP
FE
26
26
7F
01
01
ENDCHAR
STARTCHAR 04B6
ENCODING 1206
SWIDTH 720 0
DWIDTH 7 0
BBX 7 9 0 -2
BITMAP
EE
44
44
64
1C
04
0E
02
02
ENDCHAR
STARTCHAR 04B7
ENCODING 1207
SWIDTH 617 0
DWIDTH 6 0
BBX 5 6 1 -2
BITMAP
B0
90
70
38
08
08
ENDCHAR
STARTCHAR 04B8
ENCODING 1208
SWIDTH 720 0
DWIDTH 7 0
BBX 7 7 0 0
BITMAP
EE
44
74
7C
14
14
0E
ENDCHAR
STARTCHAR 04B9
ENCODING 1209
SWIDTH 617 0
DWIDTH 6 0
BBX 5 4 1 0
BITMAP
98
F0
30
38
ENDCHAR
STARTCHAR 04BA
ENCODING 1210
SWIDTH 720 0
DWIDTH 7 0
BBX 7 7 0 0
BITMAP
F0
60
60
7C
64
64
EE
ENDCHAR
STARTCHAR 04BB
ENCODING 1211
SWIDTH 617 0
DWIDTH 6 0
BBX 6 7 0 0
BITMAP
C0
40
40
78
48
48
FC
ENDCHAR
STARTCHAR 04BC
ENCODING 1212
SWIDTH 822 0
DWIDTH 8 0
BBX 8 7 0 0
BITMAP
0C
12
A3
7F
20
30
1E
ENDCHAR
STARTCHAR 04BD
ENCODING 1213
SWIDTH 617 0
DWIDTH 6 0
BBX 6 4 0 1
BITMAP
BC
7C
20
3C
ENDCHAR
STARTCHAR 04BE
ENCODING 1214
SWIDTH 822 0
DWIDTH 8 0
BBX 8 9 0 -2
BITMAP
0C
12
A3
7F
20
30
1E
04
04
ENDCHAR
STARTCHAR 04BF
ENCODING 1215
SWIDTH 617 0
DWIDTH 6 0
BBX 6 6 0 -1
BITMAP
BC
7C
20
3C
08
08
ENDCHAR
STARTCHAR 04C0
ENCODING 1216
SWIDTH 308 0
DWIDTH 3 0
BBX 3 7 0 0
BITMAP
E0
60
60
60
60
60
E0
ENDCHAR
STARTCHAR 04C1
ENCODING 1217
SWIDTH 1028 0
DWIDTH 10 0
BBX 10 9 0 0
BITMAP
1200
1E00
EDC0
4D00
2D00
1F00
3D00
6D80
CCC0
ENDCHAR
STARTCHAR 04C2
ENCODING 1218
SWIDTH 822 0
DWIDTH 8 0
BBX 8 7 0 0
BITMAP
24
1C
00
5B
2C
2E
DB
ENDCHAR
STARTCHAR 04C3
ENCODING 1219
SWIDTH 617 0
DWIDTH 6 0
BBX 6 9 0 -2
BITMAP
E4
6C
70
70
6C
64
E4
04
08
ENDCHAR
STARTCHAR 04C4
ENCODING 1220
SWIDTH 514 0
DWIDTH 5 0
BBX 5 6 0 -1
BITMAP
58
60
58
E8
08
10
ENDCHAR
STARTCHAR 04C5
ENCODING 1221
SWIDTH 720 0
DWIDTH 7 0
BBX 7 9 0 -2
BITMAP
7C
2C
2C
2C
2C
4C
CE
02
04
ENDCHAR
STARTCHAR 04C6
ENCODING 1222
SWIDTH 617 0
DWIDTH 6 0
BBX 6 6 0 -2
BITMAP
78
58
58
DC
0C
08
ENDCHAR
STARTCHAR 04C7
ENCODING 1223
SWIDTH 720 0
DWIDTH 7 0
BBX 7 9 0 -2
BITMAP
EE
64
64
7C
64
64
E4
04
0C
ENDCHAR
STARTCHAR 04C8
ENCODING 1224
SWIDTH 617 0
DWIDTH 6 0
BBX 5 6 0 -2
BITMAP
48
78
48
E8
08
18
ENDCHAR
STARTCHAR 04C9
ENCODING 1225
SWIDTH 822 0
DWIDTH 8 0
BBX 7 9 0 -2
BITMAP
EE
64
64
7C
64
64
EE
02
02
ENDCHAR
STARTCHAR 04CA
ENCODING 1226
SWIDTH 617 0
DWIDTH 6 0
BBX 6 6 0 -2
BITMAP
4C
78
48
EC
04
04
ENDCHAR
STARTCHAR 04CB
ENCODING 1227
SWIDTH 720 0
DWIDTH 7 0
BBX 7 9 0 -2
BITMAP
EE
44
44
64
1C
04
1E
10
10
ENDCHAR
STARTCHAR 04CC
ENCODING 1228
SWIDTH 514 0
DWIDTH 5 0
BBX 4 6 1 -2
BITMAP
B0
90
70
70
40
40
ENDCHAR
STARTCHAR 04CD
ENCODING 1229
SWIDTH 925 0
DWIDTH 9 0
BBX 10 9 0 -2
BITMAP
6180
6300
7300
5500
5D00
5900
CBC0
0080
0080
ENDCHAR
STARTCHAR 04CE
ENCODING 1230
SWIDTH 720 0
DWIDTH 7 0
BBX 7 6 0 -2
BITMAP
6C
6C
B4
D6
02
02
ENDCHAR
STARTCHAR 04CF
ENCODING 1231
SWIDTH 308 0
DWIDTH 3 0
BBX 3 7 0 0
BITMAP
C0
40
40
40
40
40
E0
ENDCHAR
STARTCHAR 04D0
ENCODING 1232
SWIDTH 617 0
DWIDTH 6 0
BBX 7 9 0 0
BITMAP
48
38
10
10
38
58
48
7C
CE
ENDCHAR
STARTCHAR 04D1
ENCODING 1233
SWIDTH 514 0
DWIDTH 5 0
BBX 4 7 1 0
BITMAP
A0
E0
00
E0
30
E0
F0
ENDCHAR
STARTCHAR 04D2
ENCODING 1234
SWIDTH 617 0
DWIDTH 6 0
BBX 7 8 0 0
BITMAP
28
10
10
38
58
48
7C
CE
ENDCHAR
STARTCHAR 04D3
ENCODING 1235
SWIDTH 514 0
DWIDTH 5 0
BBX 4 6 1 0
BITMAP
A0
00
E0
30
E0
F0
ENDCHAR
STARTCHAR 04D4
ENCODING 1236
SWIDTH 925 0
DWIDTH 9 0
BBX 9 7 0 0
BITMAP
1F00
0C80
1C00
2D00
3F00
4C80
CF80
ENDCHAR
STARTCHAR 04D5
ENCODING 1237
SWIDTH 720 0
DWIDTH 7 0
BBX 7 5 0 0
BITMAP
20
5E
3E
D0
FE
ENDCHAR
STARTCHAR 04D6
ENCODING 1238
SWIDTH 617 0
DWIDTH 6 0
BBX 6 9 0 0
BITMAP
48
78
F8
68
60
70
60
64
FC
ENDCHAR
STARTCHAR 04D7
ENCODING 1239
SWIDTH 411 0
DWIDTH 4 0
BBX 5 7 0 0
BITMAP
50
70
20
50
F8
C0
70
ENDCHAR
STARTCHAR 04D8
ENCODING 1240
SWIDTH 617 0
DWIDTH 6 0
BBX 6 7 0 0
BITMAP
70
4C
04
04
FC
4C
78
ENDCHAR
STARTCHAR 04D9
ENCODING 1241
SWIDTH 411 0
DWIDTH 4 0
BBX 5 5 0 0
BITMAP
20
D0
18
F8
70
ENDCHAR
STARTCHAR 04DA
ENCODING 1242
SWIDTH 617 0
DWIDTH 6 0
BBX 6 8 0 0
BITMAP
68
70
4C
04
04
FC
4C
78
ENDCHAR
STARTCHAR 04DB
ENCODING 1243
SWIDTH 411 0
DWIDTH 4 0
BBX 5 6 0 0
BITMAP
50
20
D0
18
F8
70
ENDCHAR
STARTCHAR 04DC
ENCODING 1244
SWIDTH 1028 0
DWIDTH 10 0
BBX 10 8 0 0
BITMAP
1E00
EDC0
4D00
2D00
1F00
3D00
6D80
CCC0
ENDCHAR
STARTCHAR 04DD
ENCODING 1245
SWIDTH 822 0
DWIDTH 8 0
BBX 8 6 0 0
BITMAP
34
00
5B
2C
2E
DB
ENDCHAR
STARTCHAR 04DE
ENCODING 1246
SWIDTH 514 0
DWIDTH 5 0
BBX 5 8 0 0
BITMAP
58
70
58
18
30
08
48
F8
ENDCHAR
STARTCHAR 04DF
ENCODING 1247
SWIDTH 411 0
DWIDTH 4 0
BBX 4 6 0 0
BITMAP
50
20
D0
30
10
F0
ENDCHAR
STARTCHAR 04E0
ENCODING 1248
SWIDTH 514 0
DWIDTH 5 0
BBX 5 7 0 0
BITMAP
78
70
10
30
18
08
F0
ENDCHAR
STARTCHAR 04E1
ENCODING 1249
SWIDTH 411 0
DWIDTH 4 0
BBX 3 6 1 -2
BITMAP
E0
40
40
20
20
E0
ENDCHAR
STARTCHAR 04E2
ENCODING 1250
SWIDTH 720 0
DWIDTH 7 0
BBX 7 8 0 0
BITMAP
3C
E6
64
6C
74
74
64
EE
ENDCHAR
STARTCHAR 04E3
ENCODING 1251
SWIDTH 617 0
DWIDTH 6 0
BBX 6 6 0 0
BITMAP
30
00
48
58
68
CC
ENDCHAR
STARTCHAR 04E4
ENCODING 1252
SWIDTH 720 0
DWIDTH 7 0
BBX 7 8 0 0
BITMAP
2C
E6
64
6C
74
74
64
EE
ENDCHAR
STARTCHAR 04E5
ENCODING 1253
SWIDTH 617 0
DWIDTH 6 0
BBX 6 6 0 0
BITMAP
68
00
48
58
68
CC
ENDCHAR
STARTCHAR 04E6
ENCODING 1254
SWIDTH 720 0
DWIDTH 7 0
BBX 7 8 0 0
BITMAP
28
18
64
46
C6
C6
44
3C
ENDCHAR
STARTCHAR 04E7
ENCODING 1255
SWIDTH 514 0
DWIDTH 5 0
BBX 5 6 0 0
BITMAP
58
20
58
C8
C8
70
ENDCHAR
STARTCHAR 04E8
ENCODING 1256
SWIDTH 720 0
DWIDTH 7 0
BBX 7 7 0 0
BITMAP
18
64
46
FE
C6
44
3C
ENDCHAR
STARTCHAR 04E9
ENCODING 1257
SWIDTH 514 0
DWIDTH 5 0
BBX 5 5 0 0
BITMAP
20
58
F8
C8
70
ENDCHAR
STARTCHAR 04EA
ENCODING 1258
SWIDTH 720 0
DWIDTH 7 0
BBX 7 8 0 0
BITMAP
28
18
64
46
FE
C6
44
3C
ENDCHAR
STARTCHAR 04EB
ENCODING 1259
SWIDTH 514 0
DWIDTH 5 0
BBX 5 6 0 0
BITMAP
58
20
58
F8
C8
70
ENDCHAR
STARTCHAR 04EC
ENCODING 1260
SWIDTH 617 0
DWIDTH 6 0
BBX 5 8 1 0
BITMAP
B0
E0
90
18
78
18
10
F0
ENDCHAR
STARTCHAR 04ED
ENCODING 1261
SWIDTH 411 0
DWIDTH 4 0
BBX 4 6 0 0
BITMAP
F0
00
F0
70
10
F0
ENDCHAR
STARTCHAR 04EE
ENCODING 1262
SWIDTH 617 0
DWIDTH 6 0
BBX 6 8 0 0
BITMAP
38
E4
64
28
38
10
10
60
ENDCHAR
STARTCHAR 04EF
ENCODING 1263
SWIDTH 514 0
DWIDTH 5 0
BBX 5 8 0 -2
BITMAP
30
00
48
70
30
20
20
E0
ENDCHAR
STARTCHAR 04F0
ENCODING 1264
SWIDTH 617 0
DWIDTH 6 0
BBX 6 8 0 0
BITMAP
28
E4
64
28
38
10
10
60
ENDCHAR
STARTCHAR 04F1
ENCODING 1265
SWIDTH 514 0
DWIDTH 5 0
BBX 5 8 0 -2
BITMAP
78
00
48
70
30
20
20
E0
ENDCHAR
STARTCHAR 04F2
ENCODING 1266
SWIDTH 617 0
DWIDTH 6 0
BBX 6 9 0 0
BITMAP
14
28
E4
64
28
38
10
10
60
ENDCHAR
STARTCHAR 04F3
ENCODING 1267
SWIDTH 514 0
DWIDTH 5 0
BBX 5 9 0 -2
BITMAP
28
20
00
48
70
30
20
20
E0
ENDCHAR
STARTCHAR 04F4
ENCODING 1268
SWIDTH 720 0
DWIDTH 7 0
BBX 7 8 0 0
BITMAP
28
EE
44
44
64
1C
04
0E
ENDCHAR
STARTCHAR 04F5
ENCODING 1269
SWIDTH 514 0
DWIDTH 5 0
BBX 4 6 1 0
BITMAP
B0
00
B0
90
70
30
ENDCHAR
STARTCHAR 04F6
ENCODING 1270
SWIDTH 514 0
DWIDTH 5 0
BBX 5 9 0 -2
BITMAP
F8
68
60
60
60
60
F0
10
10
ENDCHAR
STARTCHAR 04F7
ENCODING 1271
SWIDTH 411 0
DWIDTH 4 0
BBX 4 6 0 -2
BITMAP
70
40
40
E0
20
20
ENDCHAR
STARTCHAR 04F8
ENCODING 1272
SWIDTH 925 0
DWIDTH 9 0
BBX 9 8 0 0
BITMAP
1600
F380
6100
6100
7900
6D00
6D00
FB80
ENDCHAR
STARTCHAR 04F9
ENCODING 1273
SWIDTH 822 0
DWIDTH 8 0
BBX 8 6 0 0
BITMAP
3C
00
62
72
5A
FF
ENDCHAR
STARTCHAR 04FA
ENCODING 1274
SWIDTH 514 0
DWIDTH 5 0
BBX 5 9 0 -2
BITMAP
F8
68
60
F0
60
60
F0
10
30
ENDCHAR
STARTCHAR 04FB
ENCODING 1275
SWIDTH 411 0
DWIDTH 4 0
BBX 4 6 0 -2
BITMAP
70
40
60
F0
30
20
ENDCHAR
STARTCHAR 04FC
ENCODING 1276
SWIDTH 617 0
DWIDTH 6 0
BBX 6 9 0 -2
BITMAP
EC
68
38
10
38
4C
E4
04
04
ENDCHAR
STARTCHAR 04FD
ENCODING 1277
SWIDTH 514 0
DWIDTH 5 0
BBX 5 6 0 -2
BITMAP
78
30
50
D8
08
08
ENDCHAR
STARTCHAR 04FE
ENCODING 1278
SWIDTH 617 0
DWIDTH 6 0
BBX 6 7 0 0
BITMAP
EC
64
38
7C
38
48
CC
ENDCHAR
STARTCHAR 04FF
ENCODING 1279
SWIDTH 514 0
DWIDTH 5 0
BBX 5 4 0 0
BITMAP
78
78
50
D8
ENDCHAR
STARTCHAR 0510
ENCODING 1296
SWIDTH 514 0
DWIDTH 5 0
BBX 5 7 0 0
BITMAP
30
48
40
30
40
C8
78
ENDCHAR
STARTCHAR 0511
ENCODING 1297
SWIDTH 411 0
DWIDTH 4 0
BBX 4 5 0 0
BITMAP
20
50
60
C0
70
ENDCHAR
STARTCHAR 0512
ENCODING 1298
SWIDTH 617 0
DWIDTH 6 0
BBX 6 9 0 -2
BITMAP
7C
2C
2C
2C
2C
4C
CC
0C
08
ENDCHAR
STARTCHAR 0513
ENCODING 1299
SWIDTH 514 0
DWIDTH 5 0
BBX 5 6 0 -2
BITMAP
78
48
48
C8
18
10
ENDCHAR
STARTCHAR 051A
ENCODING 1306
SWIDTH 720 0
DWIDTH 7 0
BBX 7 9 0 -2
BITMAP
18
64
46
C6
C6
44
3C
0C
06
ENDCHAR
STARTCHAR 051B
ENCODING 1307
SWIDTH 514 0
DWIDTH 5 0
BBX 5 7 0 -2
BITMAP
10
68
C8
C8
78
08
18
ENDCHAR
STARTCHAR 051C
ENCODING 1308
SWIDTH 925 0
DWIDTH 9 0
BBX 9 7 0 0
BITMAP
E580
4480
6C80
7700
3300
3300
2200
ENDCHAR
STARTCHAR 051D
ENCODING 1309
SWIDTH 720 0
DWIDTH 7 0
BBX 6 5 1 0
BITMAP
10
94
F4
D8
48
ENDCHAR
STARTCHAR 0524
ENCODING 1316
SWIDTH 822 0
DWIDTH 8 0
BBX 8 9 0 -2
BITMAP
FE
64
64
64
64
64
EE
01
01
ENDCHAR
STARTCHAR 0525
ENCODING 1317
SWIDTH 617 0
DWIDTH 6 0
BBX 6 6 0 -2
BITMAP
78
48
48
FC
04
04
ENDCHAR
STARTCHAR 0526
ENCODING 1318
SWIDTH 720 0
DWIDTH 7 0
BBX 7 9 0 -2
BITMAP
F0
60
60
7C
64
64
EE
02
02
ENDCHAR
STARTCHAR 0527
ENCODING 1319
SWIDTH 617 0
DWIDTH 6 0
BBX 6 8 0 -2
BITMAP
C0
40
40
78
48
48
FC
04
ENDCHAR
STARTCHAR 0528
ENCODING 1320
SWIDTH 720 0
DWIDTH 7 0
BBX 7 9 0 -2
BITMAP
EE
64
64
7C
64
64
6E
40
40
ENDCHAR
STARTCHAR 0529
ENCODING 1321
SWIDTH 617 0
DWIDTH 6 0
BBX 6 6 0 -2
BITMAP
6C
78
48
4C
40
C0
ENDCHAR
STARTCHAR 052E
ENCODING 1326
SWIDTH 720 0
DWIDTH 7 0
BBX 7 9 0 -2
BITMAP
7C
2C
2C
2C
2C
4C
CE
02
02
ENDCHAR
STARTCHAR 052F
ENCODING 1327
SWIDTH 617 0
DWIDTH 6 0
BBX 6 6 0 -2
BITMAP
78
58
58
DC
04
04
ENDCHAR
STARTCHAR 058F
ENCODING 1423
SWIDTH 514 0
DWIDTH 5 0
BBX 6 7 0 0
BITMAP
20
D0
D8
3C
18
38
38
ENDCHAR
STARTCHAR 1E08
ENCODING 7688
SWIDTH 617 0
DWIDTH 6 0
BBX 6 11 0 -2
BITMAP
08
10
18
64
40
C0
C0
40
3C
10
10
ENDCHAR
STARTCHAR 1E09
ENCODING 7689
SWIDTH 411 0
DWIDTH 4 0
BBX 4 9 0 -2
BITMAP
10
20
20
50
C0
C0
70
20
30
ENDCHAR
STARTCHAR 1E0C
ENCODING 7692
SWIDTH 720 0
DWIDTH 7 0
BBX 7 9 0 -2
BITMAP
F0
6C
66
66
66
64
F8
00
30
ENDCHAR
STARTCHAR 1E0D
ENCODING 7693
SWIDTH 514 0
DWIDTH 5 0
BBX 6 9 0 -2
BITMAP
18
08
08
78
C8
C8
7C
00
30
ENDCHAR
STARTCHAR 1E0E
ENCODING 7694
SWIDTH 720 0
DWIDTH 7 0
BBX 7 9 0 -2
BITMAP
F0
6C
66
66
66
64
F8
00
78
ENDCHAR
STARTCHAR 1E0F
ENCODING 7695
SWIDTH 514 0
DWIDTH 5 0
BBX 6 9 0 -2
BITMAP
18
08
08
78
C8
C8
7C
00
78
ENDCHAR
STARTCHAR 1E10
ENCODING 7696
SWIDTH 720 0
DWIDTH 7 0
BBX 7 9 0 -3
BITMAP
F0
6C
66
66
66
64
F8
10
10
ENDCHAR
STARTCHAR 1E11
ENCODING 7697
SWIDTH 514 0
DWIDTH 5 0
BBX 6 10 0 -3
BITMAP
18
08
08
78
C8
C8
7C
00
30
20
ENDCHAR
STARTCHAR 1E14
ENCODING 7700
SWIDTH 617 0
DWIDTH 6 0
BBX 6 10 0 0
BITMAP
20
00
78
F8
68
60
70
60
64
FC
ENDCHAR
STARTCHAR 1E15
ENCODING 7701
SWIDTH 411 0
DWIDTH 4 0
BBX 5 8 0 0
BITMAP
60
20
70
20
50
F8
C0
70
ENDCHAR
STARTCHAR 1E16
ENCODING 7702
SWIDTH 617 0
DWIDTH 6 0
BBX 6 10 0 0
BITMAP
10
00
78
F8
68
60
70
60
64
FC
ENDCHAR
STARTCHAR 1E17
ENCODING 7703
SWIDTH 411 0
DWIDTH 4 0
BBX 5 8 0 0
BITMAP
10
20
70
20
50
F8
C0
70
ENDCHAR
STARTCHAR 1E1C
ENCODING 7708
SWIDTH 617 0
DWIDTH 6 0
BBX 6 10 0 -1
BITMAP
30
F8
68
60
70
60
64
FC
20
10
ENDCHAR
STARTCHAR 1E1D
ENCODING 7709
SWIDTH 411 0
DWIDTH 4 0
BBX 5 9 0 -2
BITMAP
40
70
20
50
F8
C0
70
20
30
ENDCHAR
STARTCHAR 1E20
ENCODING 7712
SWIDTH 617 0
DWIDTH 6 0
BBX 6 8 0 0
BITMAP
38
18
64
40
C0
CC
44
3C
ENDCHAR
STARTCHAR 1E21
ENCODING 7713
SWIDTH 514 0
DWIDTH 5 0
BBX 5 8 0 -2
BITMAP
60
20
58
D8
60
78
58
F8
ENDCHAR
STARTCHAR 1E24
ENCODING 7716
SWIDTH 720 0
DWIDTH 7 0
BBX 7 9 0 -2
BITMAP
EE
64
64
7C
64
64
EE
00
18
ENDCHAR
STARTCHAR 1E25
ENCODING 7717
SWIDTH 617 0
DWIDTH 6 0
BBX 6 9 0 -2
BITMAP
C0
40
40
78
48
48
FC
00
30
ENDCHAR
STARTCHAR 1E2A
ENCODING 7722
SWIDTH 720 0
DWIDTH 7 0
BBX 7 9 0 -2
BITMAP
EE
64
64
7C
64
64
EE
00
38
ENDCHAR
STARTCHAR 1E2B
ENCODING 7723
SWIDTH 617 0
DWIDTH 6 0
BBX 6 9 0 -2
BITMAP
C0
40
40
78
48
48
FC
08
38
ENDCHAR
STARTCHAR 1E2E
ENCODING 7726
SWIDTH 308 0
DWIDTH 3 0
BBX 3 10 0 0
BITMAP
20
00
E0
E0
60
60
60
60
60
E0
ENDCHAR
STARTCHAR 1E2F
ENCODING 7727
SWIDTH 308 0
DWIDTH 3 0
BBX 3 8 0 0
BITMAP
20
00
A0
00
40
40
40
E0
ENDCHAR
STARTCHAR 1E36
ENCODING 7734
SWIDTH 514 0
DWIDTH 5 0
BBX 6 9 0 -2
BITMAP
E0
60
60
60
60
64
F8
00
30
ENDCHAR
STARTCHAR 1E37
ENCODING 7735
SWIDTH 308 0
DWIDTH 3 0
BBX 3 9 0 -2
BITMAP
C0
40
40
40
40
40
E0
00
40
ENDCHAR
STARTCHAR 1E3A
ENCODING 7738
SWIDTH 514 0
DWIDTH 5 0
BBX 6 9 0 -2
BITMAP
E0
60
60
60
60
64
F8
00
78
ENDCHAR
STARTCHAR 1E3B
ENCODING 7739
SWIDTH 308 0
DWIDTH 3 0
BBX 3 9 0 -2
BITMAP
C0
40
40
40
40
40
E0
00
E0
ENDCHAR
STARTCHAR 1E42
ENCODING 7746
SWIDTH 925 0
DWIDTH 9 0
BBX 9 9 0 -2
BITMAP
6180
6300
7300
5500
5D00
5900
CB80
0000
0800
ENDCHAR
STARTCHAR 1E43
ENCODING 7747
SWIDTH 925 0
DWIDTH 9 0
BBX 9 6 0 -1
BITMAP
7F00
4900
4900
FD80
0000
0C00
ENDCHAR
STARTCHAR 1E44
ENCODING 7748
SWIDTH 720 0
DWIDTH 7 0
BBX 7 8 0 0
BITMAP
10
C6
64
74
5C
5C
4C
C4
ENDCHAR
STARTCHAR 1E45
ENCODING 7749
SWIDTH 617 0
DWIDTH 6 0
BBX 6 6 0 0
BITMAP
30
00
78
4C
4C
EC
ENDCHAR
STARTCHAR 1E46
ENCODING 7750
SWIDTH 720 0
DWIDTH 7 0
BBX 7 9 0 -2
BITMAP
C6
64
74
5C
5C
4C
C4
00
18
ENDCHAR
STARTCHAR 1E47
ENCODING 7751
SWIDTH 617 0
DWIDTH 6 0
BBX 6 6 0 -1
BITMAP
78
4C
4C
EC
00
30
ENDCHAR
STARTCHAR 1E48
ENCODING 7752
SWIDTH 720 0
DWIDTH 7 0
BBX 7 9 0 -2
BITMAP
C6
64
74
5C
5C
4C
C4
00
3C
ENDCHAR
STARTCHAR 1E49
ENCODING 7753
SWIDTH 617 0
DWIDTH 6 0
BBX 6 6 0 -1
BITMAP
78
4C
4C
EC
00
78
ENDCHAR
STARTCHAR 1E4C
ENCODING 7756
SWIDTH 720 0
DWIDTH 7 0
BBX 7 10 0 0
BITMAP
10
00
38
18
64
46
C6
C6
44
3C
ENDCHAR
STARTCHAR 1E4D
ENCODING 7757
SWIDTH 514 0
DWIDTH 5 0
BBX 5 8 0 0
BITMAP
10
00
70
20
58
C8
C8
70
ENDCHAR
STARTCHAR 1E4E
ENCODING 7758
SWIDTH 720 0
DWIDTH 7 0
BBX 7 10 0 0
BITMAP
28
00
38
18
64
46
C6
C6
44
3C
ENDCHAR
STARTCHAR 1E4F
ENCODING 7759
SWIDTH 514 0
DWIDTH 5 0
BBX 5 8 0 0
BITMAP
58
00
70
20
58
C8
C8
70
ENDCHAR
STARTCHAR 1E50
ENCODING 7760
SWIDTH 720 0
DWIDTH 7 0
BBX 7 10 0 0
BITMAP
10
00
38
18
64
46
C6
C6
44
3C
ENDCHAR
STARTCHAR 1E51
ENCODING 7761
SWIDTH 514 0
DWIDTH 5 0
BBX 5 8 0 0
BITMAP
20
20
78
20
58
C8
C8
70
ENDCHAR
STARTCHAR 1E52
ENCODING 7762
SWIDTH 720 0
DWIDTH 7 0
BBX 7 10 0 0
BITMAP
08
00
38
18
64
46
C6
C6
44
3C
ENDCHAR
STARTCHAR 1E53
ENCODING 7763
SWIDTH 514 0
DWIDTH 5 0
BBX 5 8 0 0
BITMAP
10
20
78
20
58
C8
C8
70
ENDCHAR
STARTCHAR 1E5A
ENCODING 7770
SWIDTH 617 0
DWIDTH 6 0
BBX 7 9 0 -2
BITMAP
F8
6C
6C
68
78
6C
EE
00
10
ENDCHAR
STARTCHAR 1E5B
ENCODING 7771
SWIDTH 411 0
DWIDTH 4 0
BBX 4 6 0 -1
BITMAP
70
40
40
E0
00
60
ENDCHAR
STARTCHAR 1E5E
ENCODING 7774
SWIDTH 617 0
DWIDTH 6 0
BBX 7 9 0 -2
BITMAP
F8
6C
6C
68
78
6C
EE
00
38
ENDCHAR
STARTCHAR 1E5F
ENCODING 7775
SWIDTH 411 0
DWIDTH 4 0
BBX 4 6 0 -1
BITMAP
70
40
40
E0
00
F0
ENDCHAR
STARTCHAR 1E60
ENCODING 7776
SWIDTH 514 0
DWIDTH 5 0
BBX 5 8 0 0
BITMAP
30
30
48
40
70
18
48
F8
ENDCHAR
STARTCHAR 1E61
ENCODING 7777
SWIDTH 411 0
DWIDTH 4 0
BBX 4 6 0 0
BITMAP
60
20
D0
60
B0
F0
ENDCHAR
STARTCHAR 1E62
ENCODING 7778
SWIDTH 514 0
DWIDTH 5 0
BBX 5 9 0 -2
BITMAP
30
48
40
70
18
48
F8
00
30
ENDCHAR
STARTCHAR 1E63
ENCODING 7779
SWIDTH 411 0
DWIDTH 4 0
BBX 4 7 0 -2
BITMAP
20
D0
60
B0
F0
00
60
ENDCHAR
STARTCHAR 1E64
ENCODING 7780
SWIDTH 514 0
DWIDTH 5 0
BBX 5 10 0 0
BITMAP
30
10
20
30
48
40
70
18
48
F8
ENDCHAR
STARTCHAR 1E65
ENCODING 7781
SWIDTH 411 0
DWIDTH 4 0
BBX 4 8 0 0
BITMAP
20
00
20
20
D0
60
B0
F0
ENDCHAR
STARTCHAR 1E66
ENCODING 7782
SWIDTH 514 0
DWIDTH 5 0
BBX 5 10 0 0
BITMAP
30
40
30
30
48
40
70
18
48
F8
ENDCHAR
STARTCHAR 1E67
ENCODING 7783
SWIDTH 411 0
DWIDTH 4 0
BBX 4 8 0 0
BITMAP
60
00
60
20
D0
60
B0
F0
ENDCHAR
STARTCHAR 1E68
ENCODING 7784
SWIDTH 514 0
DWIDTH 5 0
BBX 5 10 0 -2
BITMAP
30
30
48
40
70
18
48
F8
00
30
ENDCHAR
STARTCHAR 1E69
ENCODING 7785
SWIDTH 411 0
DWIDTH 4 0
BBX 4 8 0 -2
BITMAP
60
20
D0
60
B0
F0
00
60
ENDCHAR
STARTCHAR 1E6C
ENCODING 7788
SWIDTH 617 0
DWIDTH 6 0
BBX 6 9 0 -2
BITMAP
FC
B4
30
30
30
30
38
00
30
ENDCHAR
STARTCHAR 1E6D
ENCODING 7789
SWIDTH 308 0
DWIDTH 3 0
BBX 2 8 1 -2
BITMAP
80
80
C0
80
80
C0
00
C0
ENDCHAR
STARTCHAR 1E6E
ENCODING 7790
SWIDTH 617 0
DWIDTH 6 0
BBX 6 9 0 -2
BITMAP
FC
B4
30
30
30
30
38
00
78
ENDCHAR
STARTCHAR 1E6F
ENCODING 7791
SWIDTH 308 0
DWIDTH 3 0
BBX 4 8 0 -2
BITMAP
40
40
60
40
40
60
00
F0
ENDCHAR
STARTCHAR 1E78
ENCODING 7800
SWIDTH 617 0
DWIDTH 6 0
BBX 6 10 0 0
BITMAP
18
00
38
EC
44
44
44
44
64
78
ENDCHAR
STARTCHAR 1E79
ENCODING 7801
SWIDTH 514 0
DWIDTH 5 0
BBX 5 9 1 0
BITMAP
20
00
40
20
00
90
90
90
F8
ENDCHAR
STARTCHAR 1E7A
ENCODING 7802
SWIDTH 617 0
DWIDTH 6 0
BBX 6 10 0 0
BITMAP
28
28
3C
EC
44
44
44
44
64
78
ENDCHAR
STARTCHAR 1E7B
ENCODING 7803
SWIDTH 514 0
DWIDTH 5 0
BBX 5 8 1 0
BITMAP
B0
B0
F0
00
90
90
90
F8
ENDCHAR
STARTCHAR 1E80
ENCODING 7808
SWIDTH 925 0
DWIDTH 9 0
BBX 9 8 0 1
BITMAP
0C00
E580
4480
6C80
7700
3300
3300
2200
ENDCHAR
STARTCHAR 1E81
ENCODING 7809
SWIDTH 720 0
DWIDTH 7 0
BBX 6 7 1 0
BITMAP
20
10
10
94
F4
D8
48
ENDCHAR
STARTCHAR 1E82
ENCODING 7810
SWIDTH 925 0
DWIDTH 9 0
BBX 9 9 0 0
BITMAP
0400
0400
E580
4480
6C80
7700
3300
3300
2200
ENDCHAR
STARTCHAR 1E83
ENCODING 7811
SWIDTH 720 0
DWIDTH 7 0
BBX 6 7 1 0
BITMAP
10
10
10
94
F4
D8
48
ENDCHAR
STARTCHAR 1E84
ENCODING 7812
SWIDTH 925 0
DWIDTH 9 0
BBX 9 8 0 0
BITMAP
1A00
E580
4480
6C80
7700
3300
3300
2200
ENDCHAR
STARTCHAR 1E85
ENCODING 7813
SWIDTH 720 0
DWIDTH 7 0
BBX 6 6 1 0
BITMAP
68
10
94
F4
D8
48
ENDCHAR
STARTCHAR 1E8E
ENCODING 7822
SWIDTH 617 0
DWIDTH 6 0
BBX 6 8 0 0
BITMAP
10
EC
68
68
30
30
30
78
ENDCHAR
STARTCHAR 1E8F
ENCODING 7823
SWIDTH 514 0
DWIDTH 5 0
BBX 5 8 0 -2
BITMAP
30
00
48
70
30
20
20
E0
ENDCHAR
STARTCHAR 1E90
ENCODING 7824
SWIDTH 514 0
DWIDTH 5 0
BBX 5 9 0 0
BITMAP
10
78
78
58
10
30
20
60
F8
ENDCHAR
STARTCHAR 1E91
ENCODING 7825
SWIDTH 411 0
DWIDTH 4 0
BBX 5 7 0 0
BITMAP
20
50
00
F0
30
68
F8
ENDCHAR
STARTCHAR 1E92
ENCODING 7826
SWIDTH 514 0
DWIDTH 5 0
BBX 5 9 0 -2
BITMAP
78
58
10
30
20
60
F8
00
30
ENDCHAR
STARTCHAR 1E93
ENCODING 7827
SWIDTH 411 0
DWIDTH 4 0
BBX 5 6 0 -2
BITMAP
F0
30
68
F8
00
20
ENDCHAR
STARTCHAR 1E97
ENCODING 7831
SWIDTH 308 0
DWIDTH 3 0
BBX 4 7 0 1
BITMAP
B0
40
40
60
40
40
60
ENDCHAR
STARTCHAR 1E9E
ENCODING 7838
SWIDTH 720 0
DWIDTH 7 0
BBX 7 7 0 0
BITMAP
1C
64
4C
4C
46
52
DC
ENDCHAR
STARTCHAR 1EA0
ENCODING 7840
SWIDTH 617 0
DWIDTH 6 0
BBX 7 9 0 -2
BITMAP
10
10
38
58
48
7C
CE
00
30
ENDCHAR
STARTCHAR 1EA1
ENCODING 7841
SWIDTH 514 0
DWIDTH 5 0
BBX 4 6 1 -1
BITMAP
E0
30
E0
F0
00
40
ENDCHAR
STARTCHAR 1EA2
ENCODING 7842
SWIDTH 617 0
DWIDTH 6 0
BBX 7 9 0 0
BITMAP
30
10
10
10
38
58
48
7C
CE
ENDCHAR
STARTCHAR 1EA3
ENCODING 7843
SWIDTH 514 0
DWIDTH 5 0
BBX 4 7 1 0
BITMAP
E0
40
00
E0
30
E0
F0
ENDCHAR
STARTCHAR 1EA4
ENCODING 7844
SWIDTH 617 0
DWIDTH 6 0
BBX 7 10 0 0
BITMAP
04
18
28
10
10
38
58
48
7C
CE
ENDCHAR
STARTCHAR 1EA5
ENCODING 7845
SWIDTH 514 0
DWIDTH 5 0
BBX 4 8 1 0
BITMAP
10
00
E0
00
E0
30
E0
F0
ENDCHAR
STARTCHAR 1EA6
ENCODING 7846
SWIDTH 617 0
DWIDTH 6 0
BBX 7 10 0 0
BITMAP
08
18
28
10
10
38
58
48
7C
CE
ENDCHAR
STARTCHAR 1EA7
ENCODING 7847
SWIDTH 514 0
DWIDTH 5 0
BBX 4 8 1 0
BITMAP
20
20
E0
00
E0
30
E0
F0
ENDCHAR
STARTCHAR 1EA8
ENCODING 7848
SWIDTH 617 0
DWIDTH 6 0
BBX 7 10 0 0
BITMAP
04
18
28
10
10
38
58
48
7C
CE
ENDCHAR
STARTCHAR 1EA9
ENCODING 7849
SWIDTH 514 0
DWIDTH 5 0
BBX 4 8 1 0
BITMAP
30
00
E0
00
E0
30
E0
F0
ENDCHAR
STARTCHAR 1EAA
ENCODING 7850
SWIDTH 617 0
DWIDTH 6 0
BBX 7 10 0 0
BITMAP
38
10
28
10
10
38
58
48
7C
CE
ENDCHAR
STARTCHAR 1EAB
ENCODING 7851
SWIDTH 514 0
DWIDTH 5 0
BBX 4 8 1 0
BITMAP
E0
00
E0
00
E0
30
E0
F0
ENDCHAR
STARTCHAR 1EAC
ENCODING 7852
SWIDTH 617 0
DWIDTH 6 0
BBX 7 11 0 -2
BITMAP
10
28
10
10
38
58
48
7C
CE
00
30
ENDCHAR
STARTCHAR 1EAD
ENCODING 7853
SWIDTH 514 0
DWIDTH 5 0
BBX 4 9 1 -2
BITMAP
40
A0
00
E0
30
E0
F0
00
40
ENDCHAR
STARTCHAR 1EAE
ENCODING 7854
SWIDTH 617 0
DWIDTH 6 0
BBX 7 10 0 0
BITMAP
10
18
38
10
10
38
58
48
7C
CE
ENDCHAR
STARTCHAR 1EAF
ENCODING 7855
SWIDTH 514 0
DWIDTH 5 0
BBX 4 8 1 0
BITMAP
20
40
E0
00
E0
30
E0
F0
ENDCHAR
STARTCHAR 1EB0
ENCODING 7856
SWIDTH 617 0
DWIDTH 6 0
BBX 7 10 0 0
BITMAP
20
18
38
10
10
38
58
48
7C
CE
ENDCHAR
STARTCHAR 1EB1
ENCODING 7857
SWIDTH 514 0
DWIDTH 5 0
BBX 4 8 1 0
BITMAP
C0
40
E0
00
E0
30
E0
F0
ENDCHAR
STARTCHAR 1EB2
ENCODING 7858
SWIDTH 617 0
DWIDTH 6 0
BBX 7 10 0 0
BITMAP
30
18
38
10
10
38
58
48
7C
CE
ENDCHAR
STARTCHAR 1EB3
ENCODING 7859
SWIDTH 514 0
DWIDTH 5 0
BBX 4 8 1 0
BITMAP
C0
40
E0
00
E0
30
E0
F0
ENDCHAR
STARTCHAR 1EB4
ENCODING 7860
SWIDTH 617 0
DWIDTH 6 0
BBX 7 10 0 0
BITMAP
38
08
38
10
10
38
58
48
7C
CE
ENDCHAR
STARTCHAR 1EB5
ENCODING 7861
SWIDTH 514 0
DWIDTH 5 0
BBX 4 8 1 0
BITMAP
E0
00
E0
00
E0
30
E0
F0
ENDCHAR
STARTCHAR 1EB6
ENCODING 7862
SWIDTH 617 0
DWIDTH 6 0
BBX 7 11 0 -2
BITMAP
08
38
10
10
38
58
48
7C
CE
00
30
ENDCHAR
STARTCHAR 1EB7
ENCODING 7863
SWIDTH 514 0
DWIDTH 5 0
BBX 4 9 1 -2
BITMAP
80
E0
00
E0
30
E0
F0
00
40
ENDCHAR
STARTCHAR 1EB8
ENCODING 7864
SWIDTH 617 0
DWIDTH 6 0
BBX 6 9 0 -2
BITMAP
F8
68
60
70
60
64
FC
00
30
ENDCHAR
STARTCHAR 1EB9
ENCODING 7865
SWIDTH 411 0
DWIDTH 4 0
BBX 5 7 0 -2
BITMAP
20
50
F8
C0
70
00
30
ENDCHAR
STARTCHAR 1EBA
ENCODING 7866
SWIDTH 617 0
DWIDTH 6 0
BBX 6 9 0 0
BITMAP
30
20
F8
68
60
70
60
64
FC
ENDCHAR
STARTCHAR 1EBB
ENCODING 7867
SWIDTH 411 0
DWIDTH 4 0
BBX 5 7 0 0
BITMAP
70
20
20
50
F8
C0
70
ENDCHAR
STARTCHAR 1EBC
ENCODING 7868
SWIDTH 617 0
DWIDTH 6 0
BBX 6 8 0 0
BITMAP
70
F8
68
60
70
60
64
FC
ENDCHAR
STARTCHAR 1EBD
ENCODING 7869
SWIDTH 411 0
DWIDTH 4 0
BBX 5 6 0 1
BITMAP
70
20
50
F8
C0
70
ENDCHAR
STARTCHAR 1EBE
ENCODING 7870
SWIDTH 617 0
DWIDTH 6 0
BBX 6 10 0 0
BITMAP
0C
08
78
F8
68
60
70
60
64
FC
ENDCHAR
STARTCHAR 1EBF
ENCODING 7871
SWIDTH 411 0
DWIDTH 4 0
BBX 5 8 0 0
BITMAP
08
00
70
20
50
F8
C0
70
ENDCHAR
STARTCHAR 1EC0
ENCODING 7872
SWIDTH 617 0
DWIDTH 6 0
BBX 6 10 0 0
BITMAP
10
08
78
F8
68
60
70
60
64
FC
ENDCHAR
STARTCHAR 1EC1
ENCODING 7873
SWIDTH 411 0
DWIDTH 4 0
BBX 5 8 0 0
BITMAP
10
00
70
20
50
F8
C0
70
ENDCHAR
STARTCHAR 1EC2
ENCODING 7874
SWIDTH 617 0
DWIDTH 6 0
BBX 6 10 0 0
BITMAP
18
08
78
F8
68
60
70
60
64
FC
ENDCHAR
STARTCHAR 1EC3
ENCODING 7875
SWIDTH 411 0
DWIDTH 4 0
BBX 5 8 0 0
BITMAP
18
00
70
20
50
F8
C0
70
ENDCHAR
STARTCHAR 1EC4
ENCODING 7876
SWIDTH 617 0
DWIDTH 6 0
BBX 6 10 0 0
BITMAP
70
00
78
F8
68
60
70
60
64
FC
ENDCHAR
STARTCHAR 1EC5
ENCODING 7877
SWIDTH 411 0
DWIDTH 4 0
BBX 5 8 0 0
BITMAP
70
00
70
20
50
F8
C0
70
ENDCHAR
STARTCHAR 1EC6
ENCODING 7878
SWIDTH 617 0
DWIDTH 6 0
BBX 6 10 0 -1
BITMAP
78
F8
68
60
70
60
64
FC
00
30
ENDCHAR
STARTCHAR 1EC7
ENCODING 7879
SWIDTH 411 0
DWIDTH 4 0
BBX 5 9 0 -2
BITMAP
20
50
20
50
F8
C0
70
00
30
ENDCHAR
STARTCHAR 1EC8
ENCODING 7880
SWIDTH 308 0
DWIDTH 3 0
BBX 3 9 0 0
BITMAP
60
40
E0
60
60
60
60
60
E0
ENDCHAR
STARTCHAR 1EC9
ENCODING 7881
SWIDTH 308 0
DWIDTH 3 0
BBX 3 7 0 0
BITMAP
60
40
00
40
40
40
E0
ENDCHAR
STARTCHAR 1ECA
ENCODING 7882
SWIDTH 308 0
DWIDTH 3 0
BBX 3 9 0 -2
BITMAP
E0
60
60
60
60
60
E0
00
60
ENDCHAR
STARTCHAR 1ECB
ENCODING 7883
SWIDTH 308 0
DWIDTH 3 0
BBX 3 9 0 -2
BITMAP
40
40
00
40
40
40
E0
00
60
ENDCHAR
STARTCHAR 1ECC
ENCODING 7884
SWIDTH 720 0
DWIDTH 7 0
BBX 7 9 0 -2
BITMAP
18
64
46
C6
C6
44
3C
00
10
ENDCHAR
STARTCHAR 1ECD
ENCODING 7885
SWIDTH 514 0
DWIDTH 5 0
BBX 5 7 0 -2
BITMAP
20
58
C8
C8
70
00
30
ENDCHAR
STARTCHAR 1ECE
ENCODING 7886
SWIDTH 720 0
DWIDTH 7 0
BBX 7 9 0 0
BITMAP
18
10
18
64
46
C6
C6
44
3C
ENDCHAR
STARTCHAR 1ECF
ENCODING 7887
SWIDTH 514 0
DWIDTH 5 0
BBX 5 7 0 0
BITMAP
30
20
20
58
C8
C8
70
ENDCHAR
STARTCHAR 1ED0
ENCODING 7888
SWIDTH 720 0
DWIDTH 7 0
BBX 7 10 0 0
BITMAP
04
10
28
18
64
46
C6
C6
44
3C
ENDCHAR
STARTCHAR 1ED1
ENCODING 7889
SWIDTH 514 0
DWIDTH 5 0
BBX 5 8 0 0
BITMAP
08
08
70
20
58
C8
C8
70
ENDCHAR
STARTCHAR 1ED2
ENCODING 7890
SWIDTH 720 0
DWIDTH 7 0
BBX 7 10 0 0
BITMAP
08
14
28
18
64
46
C6
C6
44
3C
ENDCHAR
STARTCHAR 1ED3
ENCODING 7891
SWIDTH 514 0
DWIDTH 5 0
BBX 5 8 0 0
BITMAP
10
08
70
20
58
C8
C8
70
ENDCHAR
STARTCHAR 1ED4
ENCODING 7892
SWIDTH 720 0
DWIDTH 7 0
BBX 7 10 0 0
BITMAP
0C
10
28
18
64
46
C6
C6
44
3C
ENDCHAR
STARTCHAR 1ED5
ENCODING 7893
SWIDTH 514 0
DWIDTH 5 0
BBX 5 8 0 0
BITMAP
18
00
70
20
58
C8
C8
70
ENDCHAR
STARTCHAR 1ED6
ENCODING 7894
SWIDTH 720 0
DWIDTH 7 0
BBX 7 10 0 0
BITMAP
38
10
28
18
64
46
C6
C6
44
3C
ENDCHAR
STARTCHAR 1ED7
ENCODING 7895
SWIDTH 514 0
DWIDTH 5 0
BBX 5 8 0 0
BITMAP
70
00
70
20
58
C8
C8
70
ENDCHAR
STARTCHAR 1ED8
ENCODING 7896
SWIDTH 720 0
DWIDTH 7 0
BBX 7 11 0 -2
BITMAP
10
28
18
64
46
C6
C6
44
3C
00
10
ENDCHAR
STARTCHAR 1ED9
ENCODING 7897
SWIDTH 514 0
DWIDTH 5 0
BBX 5 9 0 -2
BITMAP
30
58
20
58
C8
C8
70
00
30
ENDCHAR
STARTCHAR 1EDA
ENCODING 7898
SWIDTH 720 0
DWIDTH 7 0
BBX 7 9 0 0
BITMAP
08
12
1E
64
46
C6
C6
44
3C
ENDCHAR
STARTCHAR 1EDB
ENCODING 7899
SWIDTH 514 0
DWIDTH 5 0
BBX 5 7 0 0
BITMAP
10
28
28
58
C8
C8
70
ENDCHAR
STARTCHAR 1EDC
ENCODING 7900
SWIDTH 720 0
DWIDTH 7 0
BBX 7 9 0 0
BITMAP
10
12
1E
64
46
C6
C6
44
3C
ENDCHAR
STARTCHAR 1EDD
ENCODING 7901
SWIDTH 514 0
DWIDTH 5 0
BBX 5 7 0 0
BITMAP
20
28
28
58
C8
C8
70
ENDCHAR
STARTCHAR 1EDE
ENCODING 7902
SWIDTH 720 0
DWIDTH 7 0
BBX 7 9 0 0
BITMAP
18
12
1E
64
46
C6
C6
44
3C
ENDCHAR
STARTCHAR 1EDF
ENCODING 7903
SWIDTH 514 0
DWIDTH 5 0
BBX 5 7 0 0
BITMAP
30
28
28
58
C8
C8
70
ENDCHAR
STARTCHAR 1EE0
ENCODING 7904
SWIDTH 720 0
DWIDTH 7 0
BBX 7 8 0 0
BITMAP
3A
1E
64
46
C6
C6
44
3C
ENDCHAR
STARTCHAR 1EE1
ENCODING 7905
SWIDTH 514 0
DWIDTH 5 0
BBX 5 7 0 0
BITMAP
20
58
28
58
C8
C8
70
ENDCHAR
STARTCHAR 1EE2
ENCODING 7906
SWIDTH 720 0
DWIDTH 7 0
BBX 7 10 0 -2
BITMAP
02
1E
64
46
C6
C6
44
3C
00
10
ENDCHAR
STARTCHAR 1EE3
ENCODING 7907
SWIDTH 514 0
DWIDTH 5 0
BBX 5 8 0 -2
BITMAP
08
28
58
C8
C8
70
00
30
ENDCHAR
STARTCHAR 1EE4
ENCODING 7908
SWIDTH 617 0
DWIDTH 6 0
BBX 6 9 0 -2
BITMAP
EC
44
44
44
44
64
78
00
10
ENDCHAR
STARTCHAR 1EE5
ENCODING 7909
SWIDTH 514 0
DWIDTH 5 0
BBX 5 6 1 -1
BITMAP
90
90
90
F8
00
60
ENDCHAR
STARTCHAR 1EE6
ENCODING 7910
SWIDTH 617 0
DWIDTH 6 0
BBX 6 9 0 0
BITMAP
18
10
EC
44
44
44
44
64
78
ENDCHAR
STARTCHAR 1EE7
ENCODING 7911
SWIDTH 514 0
DWIDTH 5 0
BBX 5 7 1 0
BITMAP
60
40
00
90
90
90
F8
ENDCHAR
STARTCHAR 1EE8
ENCODING 7912
SWIDTH 720 0
DWIDTH 7 0
BBX 7 9 0 0
BITMAP
08
12
EE
44
44
44
44
64
78
ENDCHAR
STARTCHAR 1EE9
ENCODING 7913
SWIDTH 617 0
DWIDTH 6 0
BBX 5 7 1 0
BITMAP
20
08
08
90
90
90
F8
ENDCHAR
STARTCHAR 1EEA
ENCODING 7914
SWIDTH 720 0
DWIDTH 7 0
BBX 7 9 0 0
BITMAP
10
12
EE
44
44
44
44
64
78
ENDCHAR
STARTCHAR 1EEB
ENCODING 7915
SWIDTH 617 0
DWIDTH 6 0
BBX 5 7 1 0
BITMAP
40
08
08
90
90
90
F8
ENDCHAR
STARTCHAR 1EEC
ENCODING 7916
SWIDTH 720 0
DWIDTH 7 0
BBX 7 9 0 0
BITMAP
18
12
EE
44
44
44
44
64
78
ENDCHAR
STARTCHAR 1EED
ENCODING 7917
SWIDTH 617 0
DWIDTH 6 0
BBX 5 7 1 0
BITMAP
60
48
08
90
90
90
F8
ENDCHAR
STARTCHAR 1EEE
ENCODING 7918
SWIDTH 720 0
DWIDTH 7 0
BBX 7 8 0 0
BITMAP
3A
EE
44
44
44
44
64
78
ENDCHAR
STARTCHAR 1EEF
ENCODING 7919
SWIDTH 617 0
DWIDTH 6 0
BBX 5 7 1 0
BITMAP
40
28
08
90
90
90
F8
ENDCHAR
STARTCHAR 1EF0
ENCODING 7920
SWIDTH 720 0
DWIDTH 7 0
BBX 7 10 0 -2
BITMAP
02
EE
44
44
44
44
64
78
00
10
ENDCHAR
STARTCHAR 1EF1
ENCODING 7921
SWIDTH 617 0
DWIDTH 6 0
BBX 5 8 1 -2
BITMAP
08
08
90
90
90
F8
00
60
ENDCHAR
STARTCHAR 1EF2
ENCODING 7922
SWIDTH 617 0
DWIDTH 6 0
BBX 6 8 0 1
BITMAP
10
EC
68
68
30
30
30
78
ENDCHAR
STARTCHAR 1EF3
ENCODING 7923
SWIDTH 514 0
DWIDTH 5 0
BBX 5 9 0 -2
BITMAP
20
10
00
48
70
30
20
20
E0
ENDCHAR
STARTCHAR 1EF4
ENCODING 7924
SWIDTH 617 0
DWIDTH 6 0
BBX 6 9 0 -2
BITMAP
EC
68
68
30
30
30
78
00
30
ENDCHAR
STARTCHAR 1EF5
ENCODING 7925
SWIDTH 514 0
DWIDTH 5 0
BBX 5 6 0 -2
BITMAP
48
70
30
20
20
F8
ENDCHAR
STARTCHAR 1EF6
ENCODING 7926
SWIDTH 617 0
DWIDTH 6 0
BBX 6 9 0 0
BITMAP
10
10
EC
68
68
30
30
30
78
ENDCHAR
STARTCHAR 1EF7
ENCODING 7927
SWIDTH 514 0
DWIDTH 5 0
BBX 5 9 0 -2
BITMAP
30
10
00
48
70
30
20
20
E0
ENDCHAR
STARTCHAR 1EF8
ENCODING 7928
SWIDTH 617 0
DWIDTH 6 0
BBX 6 8 0 0
BITMAP
38
EC
68
68
30
30
30
78
ENDCHAR
STARTCHAR 1EF9
ENCODING 7929
SWIDTH 514 0
DWIDTH 5 0
BBX 5 9 0 -2
BITMAP
20
50
00
48
70
30
20
20
E0
ENDCHAR
STARTCHAR 2007
ENCODING 8199
SWIDTH 514 0
DWIDTH 5 0
BBX 0 0 0 0
BITMAP
ENDCHAR
STARTCHAR 2008
ENCODING 8200
SWIDTH 102 0
DWIDTH 1 0
BBX 0 0 0 0
BITMAP
ENDCHAR
STARTCHAR 2009
ENCODING 8201
SWIDTH 0 0
DWIDTH 0 0
BBX 0 0 0 0
BITMAP
ENDCHAR
STARTCHAR 200A
ENCODING 8202
SWIDTH 0 0
DWIDTH 0 0
BBX 0 0 0 0
BITMAP
ENDCHAR
STARTCHAR 200B
ENCODING 8203
SWIDTH 0 0
DWIDTH 0 0
BBX 0 0 0 0
BITMAP
ENDCHAR
STARTCHAR 2010
ENCODING 8208
SWIDTH 411 0
DWIDTH 4 0
BBX 2 1 1 2
BITMAP
C0
ENDCHAR
STARTCHAR 2011
ENCODING 8209
SWIDTH 411 0
DWIDTH 4 0
BBX 2 1 1 2
BITMAP
C0
ENDCHAR
STARTCHAR 2012
ENCODING 8210
SWIDTH 514 0
DWIDTH 5 0
BBX 5 1 0 2
BITMAP
F8
ENDCHAR
STARTCHAR 2013
ENCODING 8211
SWIDTH 514 0
DWIDTH 5 0
BBX 4 1 1 2
BITMAP
F0
ENDCHAR
STARTCHAR 2014
ENCODING 8212
SWIDTH 925 0
DWIDTH 9 0
BBX 8 1 1 2
BITMAP
FF
ENDCHAR
STARTCHAR 2015
ENCODING 8213
SWIDTH 925 0
DWIDTH 9 0
BBX 8 1 1 2
BITMAP
FF
ENDCHAR
STARTCHAR 2016
ENCODING 8214
SWIDTH 308 0
DWIDTH 3 0
BBX 2 9 1 -2
BITMAP
40
C0
C0
C0
C0
C0
C0
C0
C0
ENDCHAR
STARTCHAR 2018
ENCODING 8216
SWIDTH 205 0
DWIDTH 2 0
BBX 1 3 1 4
BITMAP
80
80
80
ENDCHAR
STARTCHAR 2019
ENCODING 8217
SWIDTH 205 0
DWIDTH 2 0
BBX 1 2 1 4
BITMAP
80
80
ENDCHAR
STARTCHAR 201A
ENCODING 8218
SWIDTH 205 0
DWIDTH 2 0
BBX 1 2 1 -2
BITMAP
80
80
ENDCHAR
STARTCHAR 201B
ENCODING 8219
SWIDTH 205 0
DWIDTH 2 0
BBX 1 3 1 4
BITMAP
80
80
80
ENDCHAR
STARTCHAR 201C
ENCODING 8220
SWIDTH 411 0
DWIDTH 4 0
BBX 3 3 1 4
BITMAP
80
E0
C0
ENDCHAR
STARTCHAR 201D
ENCODING 8221
SWIDTH 411 0
DWIDTH 4 0
BBX 3 3 1 4
BITMAP
E0
A0
40
ENDCHAR
STARTCHAR 201E
ENCODING 8222
SWIDTH 411 0
DWIDTH 4 0
BBX 3 2 1 -2
BITMAP
E0
A0
ENDCHAR
STARTCHAR 201F
ENCODING 8223
SWIDTH 411 0
DWIDTH 4 0
BBX 3 3 1 4
BITMAP
E0
C0
A0
ENDCHAR
STARTCHAR 2020
ENCODING 8224
SWIDTH 411 0
DWIDTH 4 0
BBX 3 8 1 -1
BITMAP
40
40
E0
40
40
40
40
40
ENDCHAR
STARTCHAR 2021
ENCODING 8225
SWIDTH 411 0
DWIDTH 4 0
BBX 4 8 0 -1
BITMAP
20
20
70
20
20
F0
20
20
ENDCHAR
STARTCHAR 2022
ENCODING 8226
SWIDTH 308 0
DWIDTH 3 0
BBX 2 3 1 1
BITMAP
C0
C0
C0
ENDCHAR
STARTCHAR 2023
ENCODING 8227
SWIDTH 308 0
DWIDTH 3 0
BBX 2 3 1 1
BITMAP
80
C0
80
ENDCHAR
STARTCHAR 2024
ENCODING 8228
SWIDTH 205 0
DWIDTH 2 0
BBX 1 2 1 0
BITMAP
80
80
ENDCHAR
STARTCHAR 2025
ENCODING 8229
SWIDTH 617 0
DWIDTH 6 0
BBX 4 1 1 0
BITMAP
90
ENDCHAR
STARTCHAR 2026
ENCODING 8230
SWIDTH 925 0
DWIDTH 9 0
BBX 7 2 1 0
BITMAP
92
92
ENDCHAR
STARTCHAR 2027
ENCODING 8231
SWIDTH 205 0
DWIDTH 2 0
BBX 1 1 1 2
BITMAP
80
ENDCHAR
STARTCHAR 202F
ENCODING 8239
SWIDTH 102 0
DWIDTH 1 0
BBX 0 0 0 0
BITMAP
ENDCHAR
STARTCHAR 2030
ENCODING 8240
SWIDTH 1234 0
DWIDTH 12 0
BBX 10 7 1 0
BITMAP
4400
A800
A800
5000
2DC0
5340
8DC0
ENDCHAR
STARTCHAR 2031
ENCODING 8241
SWIDTH 1542 0
DWIDTH 15 0
BBX 14 7 1 0
BITMAP
4400
A800
A800
5000
2DD8
5354
8DD8
ENDCHAR
STARTCHAR 2032
ENCODING 8242
SWIDTH 205 0
DWIDTH 2 0
BBX 1 2 1 4
BITMAP
80
80
ENDCHAR
STARTCHAR 2033
ENCODING 8243
SWIDTH 411 0
DWIDTH 4 0
BBX 3 3 1 4
BITMAP
A0
A0
40
ENDCHAR
STARTCHAR 2034
ENCODING 8244
SWIDTH 617 0
DWIDTH 6 0
BBX 5 3 1 4
BITMAP
A8
B0
50
ENDCHAR
STARTCHAR 2035
ENCODING 8245
SWIDTH 205 0
DWIDTH 2 0
BBX 1 2 1 4
BITMAP
80
80
ENDCHAR
STARTCHAR 2036
ENCODING 8246
SWIDTH 411 0
DWIDTH 4 0
BBX 3 3 1 4
BITMAP
C0
A0
20
ENDCHAR
STARTCHAR 2037
ENCODING 8247
SWIDTH 617 0
DWIDTH 6 0
BBX 5 3 1 4
BITMAP
D0
B0
28
ENDCHAR
STARTCHAR 2038
ENCODING 8248
SWIDTH 514 0
DWIDTH 5 0
BBX 5 3 0 0
BITMAP
20
50
88
ENDCHAR
STARTCHAR 2039
ENCODING 8249
SWIDTH 308 0
DWIDTH 3 0
BBX 1 3 1 1
BITMAP
80
80
80
ENDCHAR
STARTCHAR 203A
ENCODING 8250
SWIDTH 308 0
DWIDTH 3 0
BBX 2 3 1 1
BITMAP
80
C0
80
ENDCHAR
STARTCHAR 203D
ENCODING 8253
SWIDTH 514 0
DWIDTH 5 0
BBX 4 7 1 0
BITMAP
F0
F0
50
20
20
00
60
ENDCHAR
STARTCHAR 203F
ENCODING 8255
SWIDTH 617 0
DWIDTH 6 0
BBX 5 1 1 -1
BITMAP
F8
ENDCHAR
STARTCHAR 2040
ENCODING 8256
SWIDTH 617 0
DWIDTH 6 0
BBX 5 1 1 7
BITMAP
F8
ENDCHAR
STARTCHAR 2043
ENCODING 8259
SWIDTH 308 0
DWIDTH 3 0
BBX 2 1 1 2
BITMAP
C0
ENDCHAR
STARTCHAR 2044
ENCODING 8260
SWIDTH 205 0
DWIDTH 2 0
BBX 6 7 -2 0
BITMAP
04
08
10
10
20
40
80
ENDCHAR
STARTCHAR 204B
ENCODING 8267
SWIDTH 514 0
DWIDTH 5 0
BBX 5 9 0 -2
BITMAP
F0
68
68
78
60
60
60
60
60
ENDCHAR
STARTCHAR 2052
ENCODING 8274
SWIDTH 514 0
DWIDTH 5 0
BBX 4 5 1 0
BITMAP
90
20
40
40
90
ENDCHAR
STARTCHAR 205D
ENCODING 8285
SWIDTH 205 0
DWIDTH 2 0
BBX 1 7 1 0
BITMAP
80
80
00
80
00
00
80
ENDCHAR
STARTCHAR 2070
ENCODING 8304
SWIDTH 411 0
DWIDTH 4 0
BBX 4 3 0 4
BITMAP
F0
90
70
ENDCHAR
STARTCHAR 2074
ENCODING 8308
SWIDTH 411 0
DWIDTH 4 0
BBX 4 4 0 3
BITMAP
20
60
F0
20
ENDCHAR
STARTCHAR 2075
ENCODING 8309
SWIDTH 308 0
DWIDTH 3 0
BBX 3 5 0 3
BITMAP
20
60
C0
20
60
ENDCHAR
STARTCHAR 2076
ENCODING 8310
SWIDTH 308 0
DWIDTH 3 0
BBX 4 4 0 4
BITMAP
60
E0
B0
60
ENDCHAR
STARTCHAR 2077
ENCODING 8311
SWIDTH 308 0
DWIDTH 3 0
BBX 3 4 0 3
BITMAP
E0
40
40
40
ENDCHAR
STARTCHAR 2078
ENCODING 8312
SWIDTH 308 0
DWIDTH 3 0
BBX 3 4 0 4
BITMAP
E0
60
A0
E0
ENDCHAR
STARTCHAR 2079
ENCODING 8313
SWIDTH 308 0
DWIDTH 3 0
BBX 4 4 0 3
BITMAP
E0
90
60
40
ENDCHAR
STARTCHAR 2080
ENCODING 8320
SWIDTH 411 0
DWIDTH 4 0
BBX 4 3 0 -1
BITMAP
70
90
F0
ENDCHAR
STARTCHAR 2081
ENCODING 8321
SWIDTH 205 0
DWIDTH 2 0
BBX 1 3 1 -1
BITMAP
80
80
80
ENDCHAR
STARTCHAR 2082
ENCODING 8322
SWIDTH 308 0
DWIDTH 3 0
BBX 3 3 0 -1
BITMAP
E0
20
60
ENDCHAR
STARTCHAR 2083
ENCODING 8323
SWIDTH 308 0
DWIDTH 3 0
BBX 3 5 0 -3
BITMAP
E0
40
60
20
40
ENDCHAR
STARTCHAR 2084
ENCODING 8324
SWIDTH 411 0
DWIDTH 4 0
BBX 4 4 0 -3
BITMAP
20
60
F0
20
ENDCHAR
STARTCHAR 2085
ENCODING 8325
SWIDTH 308 0
DWIDTH 3 0
BBX 3 5 0 -3
BITMAP
60
80
60
20
40
ENDCHAR
STARTCHAR 2086
ENCODING 8326
SWIDTH 308 0
DWIDTH 3 0
BBX 4 4 0 -1
BITMAP
60
C0
B0
E0
ENDCHAR
STARTCHAR 2087
ENCODING 8327
SWIDTH 308 0
DWIDTH 3 0
BBX 3 4 0 -3
BITMAP
E0
40
40
40
ENDCHAR
STARTCHAR 2088
ENCODING 8328
SWIDTH 308 0
DWIDTH 3 0
BBX 3 4 0 -1
BITMAP
60
E0
60
E0
ENDCHAR
STARTCHAR 2089
ENCODING 8329
SWIDTH 308 0
DWIDTH 3 0
BBX 4 5 0 -3
BITMAP
60
90
60
20
40
ENDCHAR
STARTCHAR 20A1
ENCODING 8353
SWIDTH 617 0
DWIDTH 6 0
BBX 6 8 0 -1
BITMAP
18
64
40
C0
C0
40
3C
30
ENDCHAR
STARTCHAR 20A3
ENCODING 8355
SWIDTH 514 0
DWIDTH 5 0
BBX 5 7 0 0
BITMAP
F8
68
60
68
78
E0
F0
ENDCHAR
STARTCHAR 20A4
ENCODING 8356
SWIDTH 514 0
DWIDTH 5 0
BBX 4 7 1 0
BITMAP
60
90
80
C0
E0
A0
F0
ENDCHAR
STARTCHAR 20A6
ENCODING 8358
SWIDTH 720 0
DWIDTH 7 0
BBX 7 7 0 0
BITMAP
C6
64
74
FE
5C
4C
C4
ENDCHAR
STARTCHAR 20A7
ENCODING 8359
SWIDTH 617 0
DWIDTH 6 0
BBX 7 7 0 0
BITMAP
F0
6C
FE
6C
78
60
F0
ENDCHAR
STARTCHAR 20A9
ENCODING 8361
SWIDTH 925 0
DWIDTH 9 0
BBX 10 7 0 0
BITMAP
E580
4480
6C80
7700
F3C0
3300
2200
ENDCHAR
STARTCHAR 20AB
ENCODING 8363
SWIDTH 514 0
DWIDTH 5 0
BBX 6 7 0 0
BITMAP
18
3C
08
78
C8
7C
FC
ENDCHAR
STARTCHAR 20AC
ENCODING 8364
SWIDTH 720 0
DWIDTH 7 0
BBX 7 7 0 0
BITMAP
1C
22
60
78
F8
20
1E
ENDCHAR
STARTCHAR 20AD
ENCODING 8365
SWIDTH 720 0
DWIDTH 7 0
BBX 7 7 0 0
BITMAP
EE
68
70
FC
78
6C
EE
ENDCHAR
STARTCHAR 20AE
ENCODING 8366
SWIDTH 617 0
DWIDTH 6 0
BBX 6 7 0 0
BITMAP
FC
B4
30
78
38
70
38
ENDCHAR
STARTCHAR 20B1
ENCODING 8369
SWIDTH 617 0
DWIDTH 6 0
BBX 7 7 0 0
BITMAP
F0
6C
6C
EE
78
60
F0
ENDCHAR
STARTCHAR 20B2
ENCODING 8370
SWIDTH 617 0
DWIDTH 6 0
BBX 6 8 0 -1
BITMAP
18
64
40
C0
CC
44
3C
10
ENDCHAR
STARTCHAR 20B4
ENCODING 8372
SWIDTH 617 0
DWIDTH 6 0
BBX 6 7 0 0
BITMAP
30
48
18
60
FC
48
78
ENDCHAR
STARTCHAR 20B5
ENCODING 8373
SWIDTH 617 0
DWIDTH 6 0
BBX 6 8 0 -1
BITMAP
18
74
50
D0
D0
50
3C
10
ENDCHAR
STARTCHAR 20B8
ENCODING 8376
SWIDTH 617 0
DWIDTH 6 0
BBX 6 7 0 0
BITMAP
FC
00
FC
34
30
30
38
ENDCHAR
STARTCHAR 20B9
ENCODING 8377
SWIDTH 514 0
DWIDTH 5 0
BBX 5 7 0 0
BITMAP
78
30
F8
30
E0
30
18
ENDCHAR
STARTCHAR 20BA
ENCODING 8378
SWIDTH 514 0
DWIDTH 5 0
BBX 5 7 0 0
BITMAP
E0
60
70
70
68
E8
70
ENDCHAR
STARTCHAR 20BC
ENCODING 8380
SWIDTH 720 0
DWIDTH 7 0
BBX 7 7 0 0
BITMAP
18
74
56
56
56
56
EE
ENDCHAR
STARTCHAR 20BD
ENCODING 8381
SWIDTH 617 0
DWIDTH 6 0
BBX 6 7 0 0
BITMAP
78
24
24
7C
20
F8
70
ENDCHAR
STARTCHAR 2102
ENCODING 8450
SWIDTH 617 0
DWIDTH 6 0
BBX 6 7 0 0
BITMAP
18
64
A0
A0
A0
60
3C
ENDCHAR
STARTCHAR 210D
ENCODING 8461
SWIDTH 720 0
DWIDTH 7 0
BBX 7 7 0 0
BITMAP
F6
64
64
7C
64
64
F6
ENDCHAR
STARTCHAR 2113
ENCODING 8467
SWIDTH 411 0
DWIDTH 4 0
BBX 4 7 0 0
BITMAP
30
70
50
60
C0
40
70
ENDCHAR
STARTCHAR 2115
ENCODING 8469
SWIDTH 720 0
DWIDTH 7 0
BBX 7 7 0 0
BITMAP
E6
52
6A
5A
56
4A
E6
ENDCHAR
STARTCHAR 2116
ENCODING 8470
SWIDTH 1131 0
DWIDTH 11 0
BBX 11 7 0 0
BITMAP
C6C0
6520
7520
5CC0
5C00
4DE0
C400
ENDCHAR
STARTCHAR 2117
ENCODING 8471
SWIDTH 720 0
DWIDTH 7 0
BBX 6 7 1 -1
BITMAP
30
C8
BC
AC
B4
F4
78
ENDCHAR
STARTCHAR 2119
ENCODING 8473
SWIDTH 617 0
DWIDTH 6 0
BBX 6 7 0 0
BITMAP
F8
64
64
64
68
60
F0
ENDCHAR
STARTCHAR 211A
ENCODING 8474
SWIDTH 720 0
DWIDTH 7 0
BBX 7 9 0 -2
BITMAP
18
64
A2
A2
A2
64
3C
0C
06
ENDCHAR
STARTCHAR 211D
ENCODING 8477
SWIDTH 617 0
DWIDTH 6 0
BBX 7 7 0 0
BITMAP
F8
64
64
6C
78
64
F6
ENDCHAR
STARTCHAR 2122
ENCODING 8482
SWIDTH 925 0
DWIDTH 9 0
BBX 8 3 1 4
BITMAP
6B
4D
D7
ENDCHAR
STARTCHAR 2124
ENCODING 8484
SWIDTH 617 0
DWIDTH 6 0
BBX 6 7 0 0
BITMAP
7C
54
18
28
30
64
FC
ENDCHAR
STARTCHAR 2126
ENCODING 8486
SWIDTH 822 0
DWIDTH 8 0
BBX 8 7 0 0
BITMAP
18
66
42
42
42
A5
77
ENDCHAR
STARTCHAR 212E
ENCODING 8494
SWIDTH 514 0
DWIDTH 5 0
BBX 6 6 0 0
BITMAP
30
C8
8C
F0
80
78
ENDCHAR
STARTCHAR 2153
ENCODING 8531
SWIDTH 925 0
DWIDTH 9 0
BBX 9 7 0 0
BITMAP
E200
6400
6400
6B80
1100
1080
2380
ENDCHAR
STARTCHAR 2154
ENCODING 8532
SWIDTH 925 0
DWIDTH 9 0
BBX 9 7 0 0
BITMAP
E100
2200
4400
F580
0900
1080
2380
ENDCHAR
STARTCHAR 215B
ENCODING 8539
SWIDTH 925 0
DWIDTH 9 0
BBX 9 7 0 0
BITMAP
E200
6400
6400
6B80
1300
1280
2380
ENDCHAR
STARTCHAR 215C
ENCODING 8540
SWIDTH 925 0
DWIDTH 9 0
BBX 9 7 0 0
BITMAP
E200
4400
6400
2B80
5300
2380
2380
ENDCHAR
STARTCHAR 215D
ENCODING 8541
SWIDTH 925 0
DWIDTH 9 0
BBX 9 7 0 0
BITMAP
6200
8200
7400
2B80
5300
1280
2380
ENDCHAR
STARTCHAR 215E
ENCODING 8542
SWIDTH 822 0
DWIDTH 8 0
BBX 8 7 0 0
BITMAP
E2
A4
48
57
17
25
47
ENDCHAR
STARTCHAR 2190
ENCODING 8592
SWIDTH 822 0
DWIDTH 8 0
BBX 8 3 0 0
BITMAP
20
FF
60
ENDCHAR
STARTCHAR 2191
ENCODING 8593
SWIDTH 411 0
DWIDTH 4 0
BBX 3 7 1 0
BITMAP
40
C0
60
40
40
40
40
ENDCHAR
STARTCHAR 2192
ENCODING 8594
SWIDTH 822 0
DWIDTH 8 0
BBX 7 3 1 1
BITMAP
08
FE
0C
ENDCHAR
STARTCHAR 2193
ENCODING 8595
SWIDTH 411 0
DWIDTH 4 0
BBX 3 7 1 0
BITMAP
40
40
40
40
40
E0
40
ENDCHAR
STARTCHAR 2194
ENCODING 8596
SWIDTH 925 0
DWIDTH 9 0
BBX 9 3 0 0
BITMAP
2200
FF80
2300
ENDCHAR
STARTCHAR 2195
ENCODING 8597
SWIDTH 411 0
DWIDTH 4 0
BBX 3 7 1 0
BITMAP
40
E0
40
40
40
E0
40
ENDCHAR
STARTCHAR 2196
ENCODING 8598
SWIDTH 720 0
DWIDTH 7 0
BBX 5 5 1 0
BITMAP
C0
C0
A0
10
08
ENDCHAR
STARTCHAR 2197
ENCODING 8599
SWIDTH 617 0
DWIDTH 6 0
BBX 5 5 1 0
BITMAP
38
18
20
40
80
ENDCHAR
STARTCHAR 2198
ENCODING 8600
SWIDTH 720 0
DWIDTH 7 0
BBX 6 6 1 0
BITMAP
80
40
20
18
18
04
ENDCHAR
STARTCHAR 2199
ENCODING 8601
SWIDTH 720 0
DWIDTH 7 0
BBX 5 5 1 0
BITMAP
08
10
20
C0
C0
ENDCHAR
STARTCHAR 21A4
ENCODING 8612
SWIDTH 822 0
DWIDTH 8 0
BBX 8 4 0 0
BITMAP
21
FF
61
01
ENDCHAR
STARTCHAR 21A5
ENCODING 8613
SWIDTH 411 0
DWIDTH 4 0
BBX 3 7 1 0
BITMAP
40
C0
60
40
40
40
E0
ENDCHAR
STARTCHAR 21A6
ENCODING 8614
SWIDTH 822 0
DWIDTH 8 0
BBX 7 3 1 0
BITMAP
88
FE
84
ENDCHAR
STARTCHAR 21A7
ENCODING 8615
SWIDTH 411 0
DWIDTH 4 0
BBX 3 7 1 0
BITMAP
E0
40
40
40
40
E0
40
ENDCHAR
STARTCHAR 21B0
ENCODING 8624
SWIDTH 617 0
DWIDTH 6 0
BBX 6 7 0 0
BITMAP
20
FC
24
04
04
04
04
ENDCHAR
STARTCHAR 21B1
ENCODING 8625
SWIDTH 617 0
DWIDTH 6 0
BBX 5 7 1 0
BITMAP
10
F8
90
80
80
80
80
ENDCHAR
STARTCHAR 21B2
ENCODING 8626
SWIDTH 617 0
DWIDTH 6 0
BBX 6 7 0 -1
BITMAP
04
04
04
04
24
FC
20
ENDCHAR
STARTCHAR 21B3
ENCODING 8627
SWIDTH 720 0
DWIDTH 7 0
BBX 6 7 1 0
BITMAP
80
80
80
80
90
FC
10
ENDCHAR
STARTCHAR 21BC
ENCODING 8636
SWIDTH 822 0
DWIDTH 8 0
BBX 8 2 0 2
BITMAP
20
FF
ENDCHAR
STARTCHAR 21BD
ENCODING 8637
SWIDTH 822 0
DWIDTH 8 0
BBX 8 2 0 0
BITMAP
FF
60
ENDCHAR
STARTCHAR 21BE
ENCODING 8638
SWIDTH 308 0
DWIDTH 3 0
BBX 2 7 1 0
BITMAP
80
80
C0
80
80
80
80
ENDCHAR
STARTCHAR 21BF
ENCODING 8639
SWIDTH 308 0
DWIDTH 3 0
BBX 2 7 1 0
BITMAP
40
C0
40
40
40
40
40
ENDCHAR
STARTCHAR 21C0
ENCODING 8640
SWIDTH 822 0
DWIDTH 8 0
BBX 7 2 1 2
BITMAP
08
FE
ENDCHAR
STARTCHAR 21C1
ENCODING 8641
SWIDTH 822 0
DWIDTH 8 0
BBX 7 2 1 1
BITMAP
FE
0C
ENDCHAR
STARTCHAR 21C2
ENCODING 8642
SWIDTH 308 0
DWIDTH 3 0
BBX 2 7 1 0
BITMAP
80
80
80
80
80
C0
80
ENDCHAR
STARTCHAR 21C3
ENCODING 8643
SWIDTH 308 0
DWIDTH 3 0
BBX 2 7 1 0
BITMAP
40
40
40
40
40
C0
40
ENDCHAR
STARTCHAR 21C4
ENCODING 8644
SWIDTH 822 0
DWIDTH 8 0
BBX 7 6 1 -1
BITMAP
0C
FE
08
40
FE
40
ENDCHAR
STARTCHAR 21C5
ENCODING 8645
SWIDTH 720 0
DWIDTH 7 0
BBX 6 7 1 0
BITMAP
48
C8
68
48
48
5C
48
ENDCHAR
STARTCHAR 21C6
ENCODING 8646
SWIDTH 822 0
DWIDTH 8 0
BBX 8 6 0 -1
BITMAP
20
7F
24
06
FF
04
ENDCHAR
STARTCHAR 21C7
ENCODING 8647
SWIDTH 822 0
DWIDTH 8 0
BBX 7 6 1 0
BITMAP
C0
FE
40
C0
FE
40
ENDCHAR
STARTCHAR 21C8
ENCODING 8648
SWIDTH 720 0
DWIDTH 7 0
BBX 6 7 1 0
BITMAP
48
DC
68
48
48
48
48
ENDCHAR
STARTCHAR 21C9
ENCODING 8649
SWIDTH 822 0
DWIDTH 8 0
BBX 8 7 0 -1
BITMAP
04
02
FF
04
02
FE
04
ENDCHAR
STARTCHAR 21CA
ENCODING 8650
SWIDTH 720 0
DWIDTH 7 0
BBX 6 7 1 0
BITMAP
48
48
48
48
48
FC
48
ENDCHAR
STARTCHAR 21CB
ENCODING 8651
SWIDTH 822 0
DWIDTH 8 0
BBX 7 6 1 -1
BITMAP
40
FE
00
FE
04
08
ENDCHAR
STARTCHAR 21CC
ENCODING 8652
SWIDTH 822 0
DWIDTH 8 0
BBX 7 5 1 -1
BITMAP
0C
FE
00
FE
40
ENDCHAR
STARTCHAR 21D2
ENCODING 8658
SWIDTH 822 0
DWIDTH 8 0
BBX 7 5 1 0
BITMAP
08
FC
06
FC
08
ENDCHAR
STARTCHAR 21D4
ENCODING 8660
SWIDTH 925 0
DWIDTH 9 0
BBX 9 5 0 0
BITMAP
2200
3F00
C180
7F00
2200
ENDCHAR
STARTCHAR 21F5
ENCODING 8693
SWIDTH 720 0
DWIDTH 7 0
BBX 6 7 1 0
BITMAP
48
5C
48
48
48
E8
48
ENDCHAR
STARTCHAR 2200
ENCODING 8704
SWIDTH 617 0
DWIDTH 6 0
BBX 7 7 0 0
BITMAP
E6
44
7C
28
38
10
10
ENDCHAR
STARTCHAR 2202
ENCODING 8706
SWIDTH 514 0
DWIDTH 5 0
BBX 5 7 0 0
BITMAP
60
10
18
68
C8
C8
70
ENDCHAR
STARTCHAR 2203
ENCODING 8707
SWIDTH 617 0
DWIDTH 6 0
BBX 6 7 0 0
BITMAP
7C
58
18
38
18
98
7C
ENDCHAR
STARTCHAR 2204
ENCODING 8708
SWIDTH 514 0
DWIDTH 5 0
BBX 6 9 0 -2
BITMAP
20
7C
58
38
38
38
D8
7C
40
ENDCHAR
STARTCHAR 2205
ENCODING 8709
SWIDTH 514 0
DWIDTH 5 0
BBX 5 5 0 0
BITMAP
78
98
A8
C8
F0
ENDCHAR
STARTCHAR 2206
ENCODING 8710
SWIDTH 617 0
DWIDTH 6 0
BBX 6 7 0 0
BITMAP
10
30
30
58
48
8C
FC
ENDCHAR
STARTCHAR 2207
ENCODING 8711
SWIDTH 617 0
DWIDTH 6 0
BBX 6 7 0 0
BITMAP
FC
C4
64
68
28
30
10
ENDCHAR
STARTCHAR 2208
ENCODING 8712
SWIDTH 514 0
DWIDTH 5 0
BBX 5 5 0 0
BITMAP
78
80
F8
80
78
ENDCHAR
STARTCHAR 2209
ENCODING 8713
SWIDTH 514 0
DWIDTH 5 0
BBX 5 6 0 -1
BITMAP
08
78
90
F8
A0
78
ENDCHAR
STARTCHAR 220B
ENCODING 8715
SWIDTH 514 0
DWIDTH 5 0
BBX 5 5 0 0
BITMAP
F0
08
78
08
F0
ENDCHAR
STARTCHAR 220C
ENCODING 8716
SWIDTH 514 0
DWIDTH 5 0
BBX 5 7 0 -1
BITMAP
10
F0
28
78
48
F0
40
ENDCHAR
STARTCHAR 220E
ENCODING 8718
SWIDTH 514 0
DWIDTH 5 0
BBX 4 7 1 0
BITMAP
F0
F0
F0
F0
F0
F0
F0
ENDCHAR
STARTCHAR 220F
ENCODING 8719
SWIDTH 720 0
DWIDTH 7 0
BBX 7 8 0 -1
BITMAP
FE
64
64
64
64
64
64
EE
ENDCHAR
STARTCHAR 2211
ENCODING 8721
SWIDTH 617 0
DWIDTH 6 0
BBX 6 8 0 -1
BITMAP
7C
64
60
30
10
20
44
FC
ENDCHAR
STARTCHAR 2212
ENCODING 8722
SWIDTH 514 0
DWIDTH 5 0
BBX 5 1 0 2
BITMAP
F8
ENDCHAR
STARTCHAR 2213
ENCODING 8723
SWIDTH 514 0
DWIDTH 5 0
BBX 4 5 1 0
BITMAP
F0
40
40
E0
40
ENDCHAR
STARTCHAR 2215
ENCODING 8725
SWIDTH 514 0
DWIDTH 5 0
BBX 3 7 1 -1
BITMAP
20
20
40
40
40
80
80
ENDCHAR
STARTCHAR 2216
ENCODING 8726
SWIDTH 514 0
DWIDTH 5 0
BBX 3 7 1 -1
BITMAP
80
80
40
40
40
20
20
ENDCHAR
STARTCHAR 2217
ENCODING 8727
SWIDTH 514 0
DWIDTH 5 0
BBX 4 5 1 0
BITMAP
40
D0
60
F0
40
ENDCHAR
STARTCHAR 2218
ENCODING 8728
SWIDTH 514 0
DWIDTH 5 0
BBX 3 3 1 1
BITMAP
60
A0
60
ENDCHAR
STARTCHAR 2219
ENCODING 8729
SWIDTH 514 0
DWIDTH 5 0
BBX 3 3 1 1
BITMAP
60
E0
60
ENDCHAR
STARTCHAR 221A
ENCODING 8730
SWIDTH 514 0
DWIDTH 5 0
BBX 6 9 0 -1
BITMAP
0C
08
08
10
10
D0
70
20
20
ENDCHAR
STARTCHAR 221D
ENCODING 8733
SWIDTH 720 0
DWIDTH 7 0
BBX 6 5 1 0
BITMAP
44
B8
90
A8
40
ENDCHAR
STARTCHAR 221E
ENCODING 8734
SWIDTH 925 0
DWIDTH 9 0
BBX 8 5 1 0
BITMAP
46
B9
91
A9
46
ENDCHAR
STARTCHAR 221F
ENCODING 8735
SWIDTH 514 0
DWIDTH 5 0
BBX 4 4 1 1
BITMAP
80
80
80
F0
ENDCHAR
STARTCHAR 2220
ENCODING 8736
SWIDTH 514 0
DWIDTH 5 0
BBX 5 4 0 0
BITMAP
10
20
40
F8
ENDCHAR
STARTCHAR 2221
ENCODING 8737
SWIDTH 514 0
DWIDTH 5 0
BBX 5 4 0 0
BITMAP
30
30
50
F8
ENDCHAR
STARTCHAR 2222
ENCODING 8738
SWIDTH 514 0
DWIDTH 5 0
BBX 5 4 0 1
BITMAP
38
D0
70
28
ENDCHAR
STARTCHAR 2223
ENCODING 8739
SWIDTH 514 0
DWIDTH 5 0
BBX 1 9 2 -2
BITMAP
80
80
80
80
80
80
80
80
80
ENDCHAR
STARTCHAR 2224
ENCODING 8740
SWIDTH 514 0
DWIDTH 5 0
BBX 4 9 1 -2
BITMAP
40
40
40
50
60
C0
40
40
40
ENDCHAR
STARTCHAR 2225
ENCODING 8741
SWIDTH 514 0
DWIDTH 5 0
BBX 3 9 1 -2
BITMAP
A0
A0
A0
A0
A0
A0
A0
A0
A0
ENDCHAR
STARTCHAR 2226
ENCODING 8742
SWIDTH 514 0
DWIDTH 5 0
BBX 5 9 0 -2
BITMAP
50
50
50
58
70
50
D0
50
50
ENDCHAR
STARTCHAR 2227
ENCODING 8743
SWIDTH 514 0
DWIDTH 5 0
BBX 5 5 0 0
BITMAP
20
50
50
48
88
ENDCHAR
STARTCHAR 2228
ENCODING 8744
SWIDTH 514 0
DWIDTH 5 0
BBX 5 5 0 0
BITMAP
88
88
50
50
20
ENDCHAR
STARTCHAR 2229
ENCODING 8745
SWIDTH 514 0
DWIDTH 5 0
BBX 5 5 0 0
BITMAP
30
C8
88
88
88
ENDCHAR
STARTCHAR 222A
ENCODING 8746
SWIDTH 514 0
DWIDTH 5 0
BBX 5 5 0 0
BITMAP
88
88
88
88
70
ENDCHAR
STARTCHAR 222B
ENCODING 8747
SWIDTH 308 0
DWIDTH 3 0
BBX 3 8 0 -1
BITMAP
20
40
40
40
40
40
40
C0
ENDCHAR
STARTCHAR 222C
ENCODING 8748
SWIDTH 514 0
DWIDTH 5 0
BBX 6 8 0 -1
BITMAP
2C
48
58
58
58
48
48
F0
ENDCHAR
STARTCHAR 222D
ENCODING 8749
SWIDTH 822 0
DWIDTH 8 0
BBX 8 8 0 -1
BITMAP
2D
4A
5A
5A
5A
4A
4A
F6
ENDCHAR
STARTCHAR 222E
ENCODING 8750
SWIDTH 411 0
DWIDTH 4 0
BBX 4 8 0 -1
BITMAP
30
20
60
F0
F0
70
20
C0
ENDCHAR
STARTCHAR 222F
ENCODING 8751
SWIDTH 617 0
DWIDTH 6 0
BBX 6 8 0 -1
BITMAP
34
48
78
EC
EC
7C
68
D8
ENDCHAR
STARTCHAR 2230
ENCODING 8752
SWIDTH 822 0
DWIDTH 8 0
BBX 9 8 0 -1
BITMAP
3580
4A00
7E00
EB00
EB80
7F00
6B00
DE00
ENDCHAR
STARTCHAR 2234
ENCODING 8756
SWIDTH 514 0
DWIDTH 5 0
BBX 4 4 1 0
BITMAP
40
00
B0
90
ENDCHAR
STARTCHAR 2235
ENCODING 8757
SWIDTH 514 0
DWIDTH 5 0
BBX 5 4 0 0
BITMAP
D8
00
20
20
ENDCHAR
STARTCHAR 2236
ENCODING 8758
SWIDTH 514 0
DWIDTH 5 0
BBX 1 5 2 0
BITMAP
80
80
00
80
80
ENDCHAR
STARTCHAR 223C
ENCODING 8764
SWIDTH 514 0
DWIDTH 5 0
BBX 4 1 1 2
BITMAP
F0
ENDCHAR
STARTCHAR 223D
ENCODING 8765
SWIDTH 514 0
DWIDTH 5 0
BBX 4 1 1 2
BITMAP
F0
ENDCHAR
STARTCHAR 2241
ENCODING 8769
SWIDTH 514 0
DWIDTH 5 0
BBX 4 3 1 1
BITMAP
40
F0
40
ENDCHAR
STARTCHAR 2243
ENCODING 8771
SWIDTH 514 0
DWIDTH 5 0
BBX 4 3 1 1
BITMAP
F0
00
F0
ENDCHAR
STARTCHAR 2245
ENCODING 8773
SWIDTH 514 0
DWIDTH 5 0
BBX 4 3 0 2
BITMAP
F0
00
70
ENDCHAR
STARTCHAR 2248
ENCODING 8776
SWIDTH 514 0
DWIDTH 5 0
BBX 4 3 1 1
BITMAP
F0
00
F0
ENDCHAR
STARTCHAR 2249
ENCODING 8777
SWIDTH 514 0
DWIDTH 5 0
BBX 4 7 1 -1
BITMAP
20
20
F0
40
F0
80
80
ENDCHAR
STARTCHAR 2254
ENCODING 8788
SWIDTH 514 0
DWIDTH 5 0
BBX 5 3 0 1
BITMAP
F8
00
F8
ENDCHAR
STARTCHAR 2259
ENCODING 8793
SWIDTH 514 0
DWIDTH 5 0
BBX 5 6 0 1
BITMAP
20
50
40
78
00
F8
ENDCHAR
STARTCHAR 225C
ENCODING 8796
SWIDTH 514 0
DWIDTH 5 0
BBX 5 6 0 1
BITMAP
20
50
70
78
00
F8
ENDCHAR
STARTCHAR 2260
ENCODING 8800
SWIDTH 514 0
DWIDTH 5 0
BBX 4 7 1 -1
BITMAP
20
20
F0
40
F0
80
80
ENDCHAR
STARTCHAR 2261
ENCODING 8801
SWIDTH 514 0
DWIDTH 5 0
BBX 4 3 1 1
BITMAP
E0
F0
E0
ENDCHAR
STARTCHAR 2262
ENCODING 8802
SWIDTH 514 0
DWIDTH 5 0
BBX 4 7 1 -1
BITMAP
20
20
C0
F0
40
A0
80
ENDCHAR
STARTCHAR 2263
ENCODING 8803
SWIDTH 514 0
DWIDTH 5 0
BBX 5 5 0 0
BITMAP
78
00
70
F8
78
ENDCHAR
STARTCHAR 2264
ENCODING 8804
SWIDTH 514 0
DWIDTH 5 0
BBX 4 5 1 0
BITMAP
30
C0
80
70
F0
ENDCHAR
STARTCHAR 2265
ENCODING 8805
SWIDTH 514 0
DWIDTH 5 0
BBX 5 5 0 0
BITMAP
C0
30
18
60
78
ENDCHAR
STARTCHAR 226A
ENCODING 8810
SWIDTH 514 0
DWIDTH 5 0
BBX 5 5 0 0
BITMAP
28
50
A0
50
28
ENDCHAR
STARTCHAR 226B
ENCODING 8811
SWIDTH 514 0
DWIDTH 5 0
BBX 5 5 0 0
BITMAP
A0
50
28
50
A0
ENDCHAR
STARTCHAR 2270
ENCODING 8816
SWIDTH 514 0
DWIDTH 5 0
BBX 4 7 1 -1
BITMAP
20
30
C0
C0
70
F0
80
ENDCHAR
STARTCHAR 2271
ENCODING 8817
SWIDTH 514 0
DWIDTH 5 0
BBX 5 6 0 -1
BITMAP
10
E0
30
38
40
78
ENDCHAR
STARTCHAR 2282
ENCODING 8834
SWIDTH 514 0
DWIDTH 5 0
BBX 5 5 0 0
BITMAP
78
80
80
80
78
ENDCHAR
STARTCHAR 2283
ENCODING 8835
SWIDTH 514 0
DWIDTH 5 0
BBX 5 5 0 0
BITMAP
F0
08
08
08
F0
ENDCHAR
STARTCHAR 2284
ENCODING 8836
SWIDTH 514 0
DWIDTH 5 0
BBX 5 6 0 -1
BITMAP
08
78
90
A0
A0
78
ENDCHAR
STARTCHAR 2285
ENCODING 8837
SWIDTH 514 0
DWIDTH 5 0
BBX 5 7 0 -1
BITMAP
10
F0
28
28
48
F0
40
ENDCHAR
STARTCHAR 2286
ENCODING 8838
SWIDTH 514 0
DWIDTH 5 0
BBX 5 5 0 0
BITMAP
78
80
40
30
78
ENDCHAR
STARTCHAR 2287
ENCODING 8839
SWIDTH 514 0
DWIDTH 5 0
BBX 4 5 1 0
BITMAP
E0
10
10
E0
F0
ENDCHAR
STARTCHAR 2288
ENCODING 8840
SWIDTH 514 0
DWIDTH 5 0
BBX 5 7 0 -1
BITMAP
10
78
A0
60
30
78
40
ENDCHAR
STARTCHAR 2289
ENCODING 8841
SWIDTH 514 0
DWIDTH 5 0
BBX 4 7 1 -1
BITMAP
20
E0
50
50
A0
F0
80
ENDCHAR
STARTCHAR 2295
ENCODING 8853
SWIDTH 514 0
DWIDTH 5 0
BBX 5 5 0 0
BITMAP
70
A8
B8
A8
70
ENDCHAR
STARTCHAR 22C5
ENCODING 8901
SWIDTH 514 0
DWIDTH 5 0
BBX 1 1 2 2
BITMAP
80
ENDCHAR
STARTCHAR 2308
ENCODING 8968
SWIDTH 205 0
DWIDTH 2 0
BBX 2 10 0 -3
BITMAP
C0
80
80
80
80
80
80
80
80
80
ENDCHAR
STARTCHAR 2309
ENCODING 8969
SWIDTH 205 0
DWIDTH 2 0
BBX 2 10 1 -3
BITMAP
C0
40
40
40
40
40
40
40
40
40
ENDCHAR
STARTCHAR 230A
ENCODING 8970
SWIDTH 205 0
DWIDTH 2 0
BBX 3 10 0 -3
BITMAP
80
80
80
80
80
80
80
80
80
E0
ENDCHAR
STARTCHAR 230B
ENCODING 8971
SWIDTH 205 0
DWIDTH 2 0
BBX 3 10 0 -3
BITMAP
20
20
20
20
20
20
20
20
20
E0
ENDCHAR
STARTCHAR 23DE
ENCODING 9182
SWIDTH 822 0
DWIDTH 8 0
BBX 8 3 0 1
BITMAP
08
7F
81
ENDCHAR
STARTCHAR 23DF
ENCODING 9183
SWIDTH 822 0
DWIDTH 8 0
BBX 8 3 0 0
BITMAP
80
F7
18
ENDCHAR
STARTCHAR 25A0
ENCODING 9632
SWIDTH 720 0
DWIDTH 7 0
BBX 7 7 0 0
BITMAP
FE
FE
FE
FE
FE
FE
FE
ENDCHAR
STARTCHAR 25A1
ENCODING 9633
SWIDTH 720 0
DWIDTH 7 0
BBX 7 7 0 0
BITMAP
FE
82
82
82
82
82
FE
ENDCHAR
STARTCHAR 25B2
ENCODING 9650
SWIDTH 720 0
DWIDTH 7 0
BBX 8 6 0 1
BITMAP
18
18
3C
7E
7E
FF
ENDCHAR
STARTCHAR 25B3
ENCODING 9651
SWIDTH 720 0
DWIDTH 7 0
BBX 8 6 0 1
BITMAP
18
28
24
42
42
FF
ENDCHAR
STARTCHAR 25B6
ENCODING 9654
SWIDTH 720 0
DWIDTH 7 0
BBX 7 7 0 0
BITMAP
C0
F0
F8
FE
FC
F0
E0
ENDCHAR
STARTCHAR 25B7
ENCODING 9655
SWIDTH 720 0
DWIDTH 7 0
BBX 7 7 0 0
BITMAP
C0
B0
88
86
84
98
E0
ENDCHAR
STARTCHAR 25BC
ENCODING 9660
SWIDTH 720 0
DWIDTH 7 0
BBX 8 7 0 0
BITMAP
FF
7E
7E
3C
3C
18
18
ENDCHAR
STARTCHAR 25BD
ENCODING 9661
SWIDTH 720 0
DWIDTH 7 0
BBX 8 7 0 0
BITMAP
FF
82
42
44
24
18
18
ENDCHAR
STARTCHAR 25C0
ENCODING 9664
SWIDTH 720 0
DWIDTH 7 0
BBX 7 7 0 0
BITMAP
06
0E
3E
FE
7E
1E
06
ENDCHAR
STARTCHAR 25C1
ENCODING 9665
SWIDTH 720 0
DWIDTH 7 0
BBX 7 7 0 0
BITMAP
06
0A
32
C2
42
32
0E
ENDCHAR
STARTCHAR 25C6
ENCODING 9670
SWIDTH 720 0
DWIDTH 7 0
BBX 7 7 0 0
BITMAP
10
38
7C
FE
7C
38
10
ENDCHAR
STARTCHAR 25C7
ENCODING 9671
SWIDTH 720 0
DWIDTH 7 0
BBX 7 7 0 0
BITMAP
10
28
44
82
44
28
10
ENDCHAR
STARTCHAR 25CA
ENCODING 9674
SWIDTH 514 0
DWIDTH 5 0
BBX 5 6 0 1
BITMAP
30
50
88
48
50
20
ENDCHAR
STARTCHAR 26AD
ENCODING 9901
SWIDTH 925 0
DWIDTH 9 0
BBX 9 5 0 0
BITMAP
7F80
8C80
9480
8C80
7F80
ENDCHAR
STARTCHAR 26AE
ENCODING 9902
SWIDTH 1234 0
DWIDTH 12 0
BBX 12 7 0 -1
BITMAP
0200
7BE0
8610
8610
8610
4B30
32C0
ENDCHAR
STARTCHAR 26AF
ENCODING 9903
SWIDTH 1337 0
DWIDTH 13 0
BBX 13 5 0 0
BITMAP
78F0
8508
8708
8508
7CF0
ENDCHAR
STARTCHAR 27C2
ENCODING 10178
SWIDTH 514 0
DWIDTH 5 0
BBX 5 5 0 0
BITMAP
20
20
20
20
F8
ENDCHAR
STARTCHAR 27E8
ENCODING 10216
SWIDTH 308 0
DWIDTH 3 0
BBX 3 9 0 -3
BITMAP
20
20
20
40
C0
40
40
20
20
ENDCHAR
STARTCHAR 27E9
ENCODING 10217
SWIDTH 308 0
DWIDTH 3 0
BBX 3 10 0 -3
BITMAP
80
40
40
60
20
20
40
40
80
80
ENDCHAR
STARTCHAR 2983
ENCODING 10627
SWIDTH 514 0
DWIDTH 5 0
BBX 5 10 0 -3
BITMAP
38
50
50
50
D0
50
50
50
50
38
ENDCHAR
STARTCHAR 2984
ENCODING 10628
SWIDTH 514 0
DWIDTH 5 0
BBX 5 10 0 -3
BITMAP
70
50
50
50
48
50
50
50
50
E0
ENDCHAR
STARTCHAR 299B
ENCODING 10651
SWIDTH 514 0
DWIDTH 5 0
BBX 5 4 0 0
BITMAP
60
20
50
F8
ENDCHAR
STARTCHAR 299D
ENCODING 10653
SWIDTH 514 0
DWIDTH 5 0
BBX 4 4 1 1
BITMAP
80
E0
E0
F0
ENDCHAR
STARTCHAR 2A2F
ENCODING 10799
SWIDTH 514 0
DWIDTH 5 0
BBX 5 5 0 0
BITMAP
88
50
20
50
88
ENDCHAR
STARTCHAR 2B58
ENCODING 11096
SWIDTH 514 0
DWIDTH 5 0
BBX 5 5 0 0
BITMAP
70
88
88
88
70
ENDCHAR
STARTCHAR 2E18
ENCODING 11800
SWIDTH 514 0
DWIDTH 5 0
BBX 4 7 1 -2
BITMAP
60
00
40
C0
E0
90
60
ENDCHAR
STARTCHAR 2E22
ENCODING 11810
SWIDTH 205 0
DWIDTH 2 0
BBX 3 5 0 2
BITMAP
E0
80
80
80
80
ENDCHAR
STARTCHAR 2E23
ENCODING 11811
SWIDTH 205 0
DWIDTH 2 0
BBX 2 5 1 2
BITMAP
C0
40
40
40
40
ENDCHAR
STARTCHAR 2E24
ENCODING 11812
SWIDTH 205 0
DWIDTH 2 0
BBX 3 5 0 -3
BITMAP
80
80
80
80
E0
ENDCHAR
STARTCHAR 2E25
ENCODING 11813
SWIDTH 205 0
DWIDTH 2 0
BBX 3 5 0 -3
BITMAP
20
20
20
20
E0
ENDCHAR
STARTCHAR 2E3A
ENCODING 11834
SWIDTH 1954 0
DWIDTH 19 0
BBX 18 1 1 2
BITMAP
FFFFC0
ENDCHAR
STARTCHAR 2E3B
ENCODING 11835
SWIDTH 2982 0
DWIDTH 29 0
BBX 28 1 1 2
BITMAP
FFFFFFF0
ENDCHAR
STARTCHAR FB01
ENCODING 64257
SWIDTH 617 0
DWIDTH 6 0
BBX 7 7 0 0
BITMAP
3C
4C
40
7C
44
44
EE
ENDCHAR
STARTCHAR FB02
ENCODING 64258
SWIDTH 617 0
DWIDTH 6 0
BBX 7 7 0 0
BITMAP
3C
44
44
64
44
44
EE
ENDCHAR
ENDFONT
